<mxfile host="app.diagrams.net" modified="2024-03-23T05:09:03.627Z" agent="Mozilla/5.0 (X11; Linux x86_64; rv:123.0) Gecko/20100101 Firefox/123.0" etag="qw5-kkpu0xYyUoHBK6rC" version="24.0.7" type="github" pages="10">
  <diagram name="Etapa 0-1" id="wjLe7C1f6Q-rE718hJTj">
    <mxGraphModel dx="1434" dy="750" grid="1" gridSize="10" guides="1" tooltips="1" connect="1" arrows="1" fold="1" page="1" pageScale="1" pageWidth="850" pageHeight="1100" math="0" shadow="0">
      <root>
        <mxCell id="adhAsfmDJSs-D7OuWcQ_-0" />
        <mxCell id="adhAsfmDJSs-D7OuWcQ_-1" parent="adhAsfmDJSs-D7OuWcQ_-0" />
        <mxCell id="adhAsfmDJSs-D7OuWcQ_-2" value="" style="rounded=0;whiteSpace=wrap;html=1;" vertex="1" parent="adhAsfmDJSs-D7OuWcQ_-1">
          <mxGeometry x="230" y="760" width="90" height="40" as="geometry" />
        </mxCell>
        <mxCell id="adhAsfmDJSs-D7OuWcQ_-3" value="" style="rounded=0;whiteSpace=wrap;html=1;" vertex="1" parent="adhAsfmDJSs-D7OuWcQ_-1">
          <mxGeometry x="30" y="20" width="120" height="60" as="geometry" />
        </mxCell>
        <mxCell id="adhAsfmDJSs-D7OuWcQ_-4" value="&lt;div style=&quot;font-size: 20px;&quot;&gt;Etapa 0&lt;/div&gt;" style="text;html=1;align=center;verticalAlign=middle;whiteSpace=wrap;rounded=0;" vertex="1" parent="adhAsfmDJSs-D7OuWcQ_-1">
          <mxGeometry x="30" y="20" width="120" height="60" as="geometry" />
        </mxCell>
        <mxCell id="adhAsfmDJSs-D7OuWcQ_-5" value="" style="endArrow=classic;html=1;rounded=0;" edge="1" parent="adhAsfmDJSs-D7OuWcQ_-1">
          <mxGeometry width="50" height="50" relative="1" as="geometry">
            <mxPoint x="110" y="180" as="sourcePoint" />
            <mxPoint x="110" y="250" as="targetPoint" />
          </mxGeometry>
        </mxCell>
        <mxCell id="adhAsfmDJSs-D7OuWcQ_-6" value="" style="endArrow=classic;html=1;rounded=0;" edge="1" parent="adhAsfmDJSs-D7OuWcQ_-1">
          <mxGeometry width="50" height="50" relative="1" as="geometry">
            <mxPoint x="200" y="180" as="sourcePoint" />
            <mxPoint x="200" y="250" as="targetPoint" />
          </mxGeometry>
        </mxCell>
        <mxCell id="adhAsfmDJSs-D7OuWcQ_-7" value="Inicio" style="text;html=1;align=center;verticalAlign=middle;whiteSpace=wrap;rounded=0;" vertex="1" parent="adhAsfmDJSs-D7OuWcQ_-1">
          <mxGeometry x="80" y="140" width="60" height="30" as="geometry" />
        </mxCell>
        <mxCell id="adhAsfmDJSs-D7OuWcQ_-8" value="Fim" style="text;html=1;align=center;verticalAlign=middle;whiteSpace=wrap;rounded=0;" vertex="1" parent="adhAsfmDJSs-D7OuWcQ_-1">
          <mxGeometry x="170" y="140" width="60" height="30" as="geometry" />
        </mxCell>
        <mxCell id="adhAsfmDJSs-D7OuWcQ_-9" value="" style="endArrow=none;html=1;rounded=0;" edge="1" parent="adhAsfmDJSs-D7OuWcQ_-1">
          <mxGeometry width="50" height="50" relative="1" as="geometry">
            <mxPoint x="85" y="260" as="sourcePoint" />
            <mxPoint x="135" y="260" as="targetPoint" />
          </mxGeometry>
        </mxCell>
        <mxCell id="adhAsfmDJSs-D7OuWcQ_-10" value="" style="endArrow=none;html=1;rounded=0;" edge="1" parent="adhAsfmDJSs-D7OuWcQ_-1">
          <mxGeometry width="50" height="50" relative="1" as="geometry">
            <mxPoint x="90" y="270" as="sourcePoint" />
            <mxPoint x="130" y="270" as="targetPoint" />
          </mxGeometry>
        </mxCell>
        <mxCell id="adhAsfmDJSs-D7OuWcQ_-11" value="" style="endArrow=none;html=1;rounded=0;" edge="1" parent="adhAsfmDJSs-D7OuWcQ_-1">
          <mxGeometry width="50" height="50" relative="1" as="geometry">
            <mxPoint x="175" y="260" as="sourcePoint" />
            <mxPoint x="225" y="260" as="targetPoint" />
          </mxGeometry>
        </mxCell>
        <mxCell id="adhAsfmDJSs-D7OuWcQ_-12" value="" style="endArrow=none;html=1;rounded=0;" edge="1" parent="adhAsfmDJSs-D7OuWcQ_-1">
          <mxGeometry width="50" height="50" relative="1" as="geometry">
            <mxPoint x="180" y="270" as="sourcePoint" />
            <mxPoint x="220" y="270" as="targetPoint" />
          </mxGeometry>
        </mxCell>
        <mxCell id="adhAsfmDJSs-D7OuWcQ_-13" value="" style="endArrow=classic;html=1;rounded=0;" edge="1" parent="adhAsfmDJSs-D7OuWcQ_-1">
          <mxGeometry width="50" height="50" relative="1" as="geometry">
            <mxPoint x="130" y="500" as="sourcePoint" />
            <mxPoint x="130" y="570" as="targetPoint" />
          </mxGeometry>
        </mxCell>
        <mxCell id="adhAsfmDJSs-D7OuWcQ_-14" value="" style="endArrow=classic;html=1;rounded=0;" edge="1" parent="adhAsfmDJSs-D7OuWcQ_-1">
          <mxGeometry width="50" height="50" relative="1" as="geometry">
            <mxPoint x="220" y="500" as="sourcePoint" />
            <mxPoint x="220" y="570" as="targetPoint" />
          </mxGeometry>
        </mxCell>
        <mxCell id="adhAsfmDJSs-D7OuWcQ_-15" value="Inicio" style="text;html=1;align=center;verticalAlign=middle;whiteSpace=wrap;rounded=0;" vertex="1" parent="adhAsfmDJSs-D7OuWcQ_-1">
          <mxGeometry x="100" y="460" width="60" height="30" as="geometry" />
        </mxCell>
        <mxCell id="adhAsfmDJSs-D7OuWcQ_-16" value="Fim" style="text;html=1;align=center;verticalAlign=middle;whiteSpace=wrap;rounded=0;" vertex="1" parent="adhAsfmDJSs-D7OuWcQ_-1">
          <mxGeometry x="190" y="460" width="60" height="30" as="geometry" />
        </mxCell>
        <mxCell id="adhAsfmDJSs-D7OuWcQ_-17" value="" style="endArrow=none;html=1;rounded=0;" edge="1" parent="adhAsfmDJSs-D7OuWcQ_-1">
          <mxGeometry width="50" height="50" relative="1" as="geometry">
            <mxPoint x="105" y="580" as="sourcePoint" />
            <mxPoint x="155" y="580" as="targetPoint" />
          </mxGeometry>
        </mxCell>
        <mxCell id="adhAsfmDJSs-D7OuWcQ_-18" value="" style="endArrow=none;html=1;rounded=0;" edge="1" parent="adhAsfmDJSs-D7OuWcQ_-1">
          <mxGeometry width="50" height="50" relative="1" as="geometry">
            <mxPoint x="110" y="590" as="sourcePoint" />
            <mxPoint x="150" y="590" as="targetPoint" />
          </mxGeometry>
        </mxCell>
        <mxCell id="adhAsfmDJSs-D7OuWcQ_-19" value="" style="endArrow=none;html=1;rounded=0;" edge="1" parent="adhAsfmDJSs-D7OuWcQ_-1">
          <mxGeometry width="50" height="50" relative="1" as="geometry">
            <mxPoint x="195" y="580" as="sourcePoint" />
            <mxPoint x="245" y="580" as="targetPoint" />
          </mxGeometry>
        </mxCell>
        <mxCell id="adhAsfmDJSs-D7OuWcQ_-20" value="" style="endArrow=none;html=1;rounded=0;" edge="1" parent="adhAsfmDJSs-D7OuWcQ_-1">
          <mxGeometry width="50" height="50" relative="1" as="geometry">
            <mxPoint x="200" y="590" as="sourcePoint" />
            <mxPoint x="240" y="590" as="targetPoint" />
          </mxGeometry>
        </mxCell>
        <mxCell id="adhAsfmDJSs-D7OuWcQ_-21" value="" style="whiteSpace=wrap;html=1;aspect=fixed;" vertex="1" parent="adhAsfmDJSs-D7OuWcQ_-1">
          <mxGeometry x="290" y="430" width="60" height="60" as="geometry" />
        </mxCell>
        <mxCell id="adhAsfmDJSs-D7OuWcQ_-22" value="&lt;font style=&quot;font-size: 20px;&quot;&gt;3&lt;/font&gt;" style="text;html=1;align=center;verticalAlign=middle;whiteSpace=wrap;rounded=0;" vertex="1" parent="adhAsfmDJSs-D7OuWcQ_-1">
          <mxGeometry x="290" y="430" width="60" height="60" as="geometry" />
        </mxCell>
        <mxCell id="adhAsfmDJSs-D7OuWcQ_-23" value="" style="endArrow=classic;html=1;rounded=0;" edge="1" parent="adhAsfmDJSs-D7OuWcQ_-1">
          <mxGeometry width="50" height="50" relative="1" as="geometry">
            <mxPoint x="320" y="500" as="sourcePoint" />
            <mxPoint x="320" y="570" as="targetPoint" />
          </mxGeometry>
        </mxCell>
        <mxCell id="adhAsfmDJSs-D7OuWcQ_-24" value="" style="endArrow=none;html=1;rounded=0;" edge="1" parent="adhAsfmDJSs-D7OuWcQ_-1">
          <mxGeometry width="50" height="50" relative="1" as="geometry">
            <mxPoint x="295" y="580" as="sourcePoint" />
            <mxPoint x="345" y="580" as="targetPoint" />
          </mxGeometry>
        </mxCell>
        <mxCell id="adhAsfmDJSs-D7OuWcQ_-25" value="" style="endArrow=none;html=1;rounded=0;" edge="1" parent="adhAsfmDJSs-D7OuWcQ_-1">
          <mxGeometry width="50" height="50" relative="1" as="geometry">
            <mxPoint x="300" y="590" as="sourcePoint" />
            <mxPoint x="340" y="590" as="targetPoint" />
          </mxGeometry>
        </mxCell>
        <mxCell id="adhAsfmDJSs-D7OuWcQ_-26" value="" style="rounded=0;whiteSpace=wrap;html=1;" vertex="1" parent="adhAsfmDJSs-D7OuWcQ_-1">
          <mxGeometry x="30" y="340" width="120" height="60" as="geometry" />
        </mxCell>
        <mxCell id="adhAsfmDJSs-D7OuWcQ_-27" value="&lt;div style=&quot;font-size: 20px;&quot;&gt;Etapa 1&lt;br&gt;&lt;/div&gt;" style="text;html=1;align=center;verticalAlign=middle;whiteSpace=wrap;rounded=0;" vertex="1" parent="adhAsfmDJSs-D7OuWcQ_-1">
          <mxGeometry x="30" y="340" width="120" height="60" as="geometry" />
        </mxCell>
        <mxCell id="adhAsfmDJSs-D7OuWcQ_-28" value="" style="endArrow=classic;html=1;rounded=0;" edge="1" parent="adhAsfmDJSs-D7OuWcQ_-1">
          <mxGeometry width="50" height="50" relative="1" as="geometry">
            <mxPoint x="620" y="470" as="sourcePoint" />
            <mxPoint x="620" y="540" as="targetPoint" />
          </mxGeometry>
        </mxCell>
        <mxCell id="adhAsfmDJSs-D7OuWcQ_-29" value="" style="endArrow=classic;html=1;rounded=0;" edge="1" parent="adhAsfmDJSs-D7OuWcQ_-1">
          <mxGeometry width="50" height="50" relative="1" as="geometry">
            <mxPoint x="710" y="470" as="sourcePoint" />
            <mxPoint x="710" y="540" as="targetPoint" />
          </mxGeometry>
        </mxCell>
        <mxCell id="adhAsfmDJSs-D7OuWcQ_-30" value="Inicio" style="text;html=1;align=center;verticalAlign=middle;whiteSpace=wrap;rounded=0;" vertex="1" parent="adhAsfmDJSs-D7OuWcQ_-1">
          <mxGeometry x="590" y="430" width="60" height="30" as="geometry" />
        </mxCell>
        <mxCell id="adhAsfmDJSs-D7OuWcQ_-31" value="Fim" style="text;html=1;align=center;verticalAlign=middle;whiteSpace=wrap;rounded=0;" vertex="1" parent="adhAsfmDJSs-D7OuWcQ_-1">
          <mxGeometry x="680" y="430" width="60" height="30" as="geometry" />
        </mxCell>
        <mxCell id="adhAsfmDJSs-D7OuWcQ_-32" value="" style="endArrow=none;html=1;rounded=0;" edge="1" parent="adhAsfmDJSs-D7OuWcQ_-1">
          <mxGeometry width="50" height="50" relative="1" as="geometry">
            <mxPoint x="685" y="550" as="sourcePoint" />
            <mxPoint x="735" y="550" as="targetPoint" />
          </mxGeometry>
        </mxCell>
        <mxCell id="adhAsfmDJSs-D7OuWcQ_-33" value="" style="endArrow=none;html=1;rounded=0;" edge="1" parent="adhAsfmDJSs-D7OuWcQ_-1">
          <mxGeometry width="50" height="50" relative="1" as="geometry">
            <mxPoint x="690" y="560" as="sourcePoint" />
            <mxPoint x="730" y="560" as="targetPoint" />
          </mxGeometry>
        </mxCell>
        <mxCell id="adhAsfmDJSs-D7OuWcQ_-34" value="" style="whiteSpace=wrap;html=1;aspect=fixed;" vertex="1" parent="adhAsfmDJSs-D7OuWcQ_-1">
          <mxGeometry x="590" y="550" width="60" height="60" as="geometry" />
        </mxCell>
        <mxCell id="adhAsfmDJSs-D7OuWcQ_-35" value="&lt;font style=&quot;font-size: 20px;&quot;&gt;3&lt;/font&gt;" style="text;html=1;align=center;verticalAlign=middle;whiteSpace=wrap;rounded=0;" vertex="1" parent="adhAsfmDJSs-D7OuWcQ_-1">
          <mxGeometry x="590" y="550" width="60" height="60" as="geometry" />
        </mxCell>
        <mxCell id="adhAsfmDJSs-D7OuWcQ_-36" value="" style="endArrow=classic;html=1;rounded=0;" edge="1" parent="adhAsfmDJSs-D7OuWcQ_-1">
          <mxGeometry width="50" height="50" relative="1" as="geometry">
            <mxPoint x="620" y="620" as="sourcePoint" />
            <mxPoint x="620" y="690" as="targetPoint" />
          </mxGeometry>
        </mxCell>
        <mxCell id="adhAsfmDJSs-D7OuWcQ_-37" value="" style="endArrow=none;html=1;rounded=0;" edge="1" parent="adhAsfmDJSs-D7OuWcQ_-1">
          <mxGeometry width="50" height="50" relative="1" as="geometry">
            <mxPoint x="595" y="700" as="sourcePoint" />
            <mxPoint x="645" y="700" as="targetPoint" />
          </mxGeometry>
        </mxCell>
        <mxCell id="adhAsfmDJSs-D7OuWcQ_-38" value="" style="endArrow=none;html=1;rounded=0;" edge="1" parent="adhAsfmDJSs-D7OuWcQ_-1">
          <mxGeometry width="50" height="50" relative="1" as="geometry">
            <mxPoint x="600" y="710" as="sourcePoint" />
            <mxPoint x="640" y="710" as="targetPoint" />
          </mxGeometry>
        </mxCell>
        <mxCell id="adhAsfmDJSs-D7OuWcQ_-39" value="" style="endArrow=classic;html=1;rounded=0;" edge="1" parent="adhAsfmDJSs-D7OuWcQ_-1">
          <mxGeometry width="50" height="50" relative="1" as="geometry">
            <mxPoint x="360" y="840" as="sourcePoint" />
            <mxPoint x="400" y="910" as="targetPoint" />
          </mxGeometry>
        </mxCell>
        <mxCell id="adhAsfmDJSs-D7OuWcQ_-40" value="" style="endArrow=classic;html=1;rounded=0;" edge="1" parent="adhAsfmDJSs-D7OuWcQ_-1">
          <mxGeometry width="50" height="50" relative="1" as="geometry">
            <mxPoint x="450" y="840" as="sourcePoint" />
            <mxPoint x="420" y="910" as="targetPoint" />
          </mxGeometry>
        </mxCell>
        <mxCell id="adhAsfmDJSs-D7OuWcQ_-41" value="&lt;div&gt;1.2&lt;/div&gt;" style="text;html=1;align=center;verticalAlign=middle;whiteSpace=wrap;rounded=0;" vertex="1" parent="adhAsfmDJSs-D7OuWcQ_-1">
          <mxGeometry x="230" y="760" width="90" height="40" as="geometry" />
        </mxCell>
        <mxCell id="adhAsfmDJSs-D7OuWcQ_-42" value="Inicio" style="text;html=1;align=center;verticalAlign=middle;whiteSpace=wrap;rounded=0;" vertex="1" parent="adhAsfmDJSs-D7OuWcQ_-1">
          <mxGeometry x="330" y="800" width="60" height="30" as="geometry" />
        </mxCell>
        <mxCell id="adhAsfmDJSs-D7OuWcQ_-43" value="Fim" style="text;html=1;align=center;verticalAlign=middle;whiteSpace=wrap;rounded=0;" vertex="1" parent="adhAsfmDJSs-D7OuWcQ_-1">
          <mxGeometry x="420" y="800" width="60" height="30" as="geometry" />
        </mxCell>
        <mxCell id="adhAsfmDJSs-D7OuWcQ_-44" value="" style="whiteSpace=wrap;html=1;aspect=fixed;" vertex="1" parent="adhAsfmDJSs-D7OuWcQ_-1">
          <mxGeometry x="380" y="920" width="60" height="60" as="geometry" />
        </mxCell>
        <mxCell id="adhAsfmDJSs-D7OuWcQ_-45" value="&lt;font style=&quot;font-size: 20px;&quot;&gt;3&lt;/font&gt;" style="text;html=1;align=center;verticalAlign=middle;whiteSpace=wrap;rounded=0;" vertex="1" parent="adhAsfmDJSs-D7OuWcQ_-1">
          <mxGeometry x="380" y="920" width="60" height="60" as="geometry" />
        </mxCell>
        <mxCell id="adhAsfmDJSs-D7OuWcQ_-46" value="" style="endArrow=classic;html=1;rounded=0;" edge="1" parent="adhAsfmDJSs-D7OuWcQ_-1">
          <mxGeometry width="50" height="50" relative="1" as="geometry">
            <mxPoint x="410" y="990" as="sourcePoint" />
            <mxPoint x="410" y="1060" as="targetPoint" />
          </mxGeometry>
        </mxCell>
        <mxCell id="adhAsfmDJSs-D7OuWcQ_-47" value="" style="endArrow=none;html=1;rounded=0;" edge="1" parent="adhAsfmDJSs-D7OuWcQ_-1">
          <mxGeometry width="50" height="50" relative="1" as="geometry">
            <mxPoint x="385" y="1070" as="sourcePoint" />
            <mxPoint x="435" y="1070" as="targetPoint" />
          </mxGeometry>
        </mxCell>
        <mxCell id="adhAsfmDJSs-D7OuWcQ_-48" value="" style="endArrow=none;html=1;rounded=0;" edge="1" parent="adhAsfmDJSs-D7OuWcQ_-1">
          <mxGeometry width="50" height="50" relative="1" as="geometry">
            <mxPoint x="390" y="1080" as="sourcePoint" />
            <mxPoint x="430" y="1080" as="targetPoint" />
          </mxGeometry>
        </mxCell>
        <mxCell id="adhAsfmDJSs-D7OuWcQ_-49" value="" style="rounded=0;whiteSpace=wrap;html=1;" vertex="1" parent="adhAsfmDJSs-D7OuWcQ_-1">
          <mxGeometry x="30" y="410" width="90" height="40" as="geometry" />
        </mxCell>
        <mxCell id="adhAsfmDJSs-D7OuWcQ_-50" value="&lt;div&gt;1.0&lt;/div&gt;" style="text;html=1;align=center;verticalAlign=middle;whiteSpace=wrap;rounded=0;" vertex="1" parent="adhAsfmDJSs-D7OuWcQ_-1">
          <mxGeometry x="30" y="410" width="90" height="40" as="geometry" />
        </mxCell>
        <mxCell id="adhAsfmDJSs-D7OuWcQ_-51" value="" style="rounded=0;whiteSpace=wrap;html=1;" vertex="1" parent="adhAsfmDJSs-D7OuWcQ_-1">
          <mxGeometry x="470" y="410" width="90" height="40" as="geometry" />
        </mxCell>
        <mxCell id="adhAsfmDJSs-D7OuWcQ_-52" value="&lt;div&gt;1.1&lt;/div&gt;" style="text;html=1;align=center;verticalAlign=middle;whiteSpace=wrap;rounded=0;" vertex="1" parent="adhAsfmDJSs-D7OuWcQ_-1">
          <mxGeometry x="470" y="410" width="90" height="40" as="geometry" />
        </mxCell>
      </root>
    </mxGraphModel>
  </diagram>
  <diagram name="Etapa 2" id="cazXV8UkhzaEXtnqToT9">
    <mxGraphModel dx="1434" dy="750" grid="1" gridSize="10" guides="1" tooltips="1" connect="1" arrows="1" fold="1" page="1" pageScale="1" pageWidth="850" pageHeight="1100" math="0" shadow="0">
      <root>
        <mxCell id="_CJPysXVSEiDjmwiG2ah-0" />
        <mxCell id="_CJPysXVSEiDjmwiG2ah-1" parent="_CJPysXVSEiDjmwiG2ah-0" />
        <mxCell id="_CJPysXVSEiDjmwiG2ah-32" value="" style="rounded=0;whiteSpace=wrap;html=1;" vertex="1" parent="_CJPysXVSEiDjmwiG2ah-1">
          <mxGeometry x="30" y="20" width="120" height="60" as="geometry" />
        </mxCell>
        <mxCell id="_CJPysXVSEiDjmwiG2ah-33" value="&lt;div style=&quot;font-size: 20px;&quot;&gt;Etapa 2&lt;br&gt;&lt;/div&gt;" style="text;html=1;align=center;verticalAlign=middle;whiteSpace=wrap;rounded=0;" vertex="1" parent="_CJPysXVSEiDjmwiG2ah-1">
          <mxGeometry x="30" y="20" width="120" height="60" as="geometry" />
        </mxCell>
        <mxCell id="_CJPysXVSEiDjmwiG2ah-34" value="" style="rounded=0;whiteSpace=wrap;html=1;" vertex="1" parent="_CJPysXVSEiDjmwiG2ah-1">
          <mxGeometry x="30" y="110" width="90" height="40" as="geometry" />
        </mxCell>
        <mxCell id="_CJPysXVSEiDjmwiG2ah-35" value="&lt;div&gt;2.0&lt;/div&gt;" style="text;html=1;align=center;verticalAlign=middle;whiteSpace=wrap;rounded=0;" vertex="1" parent="_CJPysXVSEiDjmwiG2ah-1">
          <mxGeometry x="30" y="110" width="90" height="40" as="geometry" />
        </mxCell>
        <mxCell id="_CJPysXVSEiDjmwiG2ah-43" value="" style="whiteSpace=wrap;html=1;aspect=fixed;" vertex="1" parent="_CJPysXVSEiDjmwiG2ah-1">
          <mxGeometry x="240" y="279" width="60" height="60" as="geometry" />
        </mxCell>
        <mxCell id="_CJPysXVSEiDjmwiG2ah-44" value="&lt;font style=&quot;font-size: 17px;&quot;&gt;3&lt;/font&gt;" style="text;html=1;align=center;verticalAlign=middle;whiteSpace=wrap;rounded=0;" vertex="1" parent="_CJPysXVSEiDjmwiG2ah-1">
          <mxGeometry x="240" y="279" width="60" height="60" as="geometry" />
        </mxCell>
        <mxCell id="_CJPysXVSEiDjmwiG2ah-45" value="" style="endArrow=classic;html=1;rounded=0;" edge="1" parent="_CJPysXVSEiDjmwiG2ah-1">
          <mxGeometry width="50" height="50" relative="1" as="geometry">
            <mxPoint x="270" y="349" as="sourcePoint" />
            <mxPoint x="270" y="419" as="targetPoint" />
          </mxGeometry>
        </mxCell>
        <mxCell id="_CJPysXVSEiDjmwiG2ah-46" value="" style="endArrow=none;html=1;rounded=0;" edge="1" parent="_CJPysXVSEiDjmwiG2ah-1">
          <mxGeometry width="50" height="50" relative="1" as="geometry">
            <mxPoint x="245" y="429" as="sourcePoint" />
            <mxPoint x="295" y="429" as="targetPoint" />
          </mxGeometry>
        </mxCell>
        <mxCell id="_CJPysXVSEiDjmwiG2ah-47" value="" style="endArrow=none;html=1;rounded=0;" edge="1" parent="_CJPysXVSEiDjmwiG2ah-1">
          <mxGeometry width="50" height="50" relative="1" as="geometry">
            <mxPoint x="250" y="439" as="sourcePoint" />
            <mxPoint x="290" y="439" as="targetPoint" />
          </mxGeometry>
        </mxCell>
        <mxCell id="_CJPysXVSEiDjmwiG2ah-48" value="" style="endArrow=classic;html=1;rounded=0;" edge="1" parent="_CJPysXVSEiDjmwiG2ah-1">
          <mxGeometry width="50" height="50" relative="1" as="geometry">
            <mxPoint x="160" y="310" as="sourcePoint" />
            <mxPoint x="230" y="310" as="targetPoint" />
          </mxGeometry>
        </mxCell>
        <mxCell id="_CJPysXVSEiDjmwiG2ah-49" value="Aux" style="text;html=1;align=center;verticalAlign=middle;whiteSpace=wrap;rounded=0;" vertex="1" parent="_CJPysXVSEiDjmwiG2ah-1">
          <mxGeometry x="100" y="299" width="60" height="30" as="geometry" />
        </mxCell>
        <mxCell id="_CJPysXVSEiDjmwiG2ah-50" value="" style="rounded=0;whiteSpace=wrap;html=1;" vertex="1" parent="_CJPysXVSEiDjmwiG2ah-1">
          <mxGeometry x="435" y="100" width="90" height="40" as="geometry" />
        </mxCell>
        <mxCell id="_CJPysXVSEiDjmwiG2ah-51" value="&lt;div&gt;2.1&lt;br&gt;&lt;/div&gt;" style="text;html=1;align=center;verticalAlign=middle;whiteSpace=wrap;rounded=0;" vertex="1" parent="_CJPysXVSEiDjmwiG2ah-1">
          <mxGeometry x="435" y="100" width="90" height="40" as="geometry" />
        </mxCell>
        <mxCell id="w9CdQlyJs-aEi1Nu7uwa-0" value="" style="endArrow=classic;html=1;rounded=0;" edge="1" parent="_CJPysXVSEiDjmwiG2ah-1">
          <mxGeometry width="50" height="50" relative="1" as="geometry">
            <mxPoint x="230" y="190" as="sourcePoint" />
            <mxPoint x="259" y="269" as="targetPoint" />
          </mxGeometry>
        </mxCell>
        <mxCell id="w9CdQlyJs-aEi1Nu7uwa-1" value="" style="endArrow=classic;html=1;rounded=0;" edge="1" parent="_CJPysXVSEiDjmwiG2ah-1">
          <mxGeometry width="50" height="50" relative="1" as="geometry">
            <mxPoint x="320" y="190" as="sourcePoint" />
            <mxPoint x="289" y="269" as="targetPoint" />
          </mxGeometry>
        </mxCell>
        <mxCell id="w9CdQlyJs-aEi1Nu7uwa-2" value="Inicio" style="text;html=1;align=center;verticalAlign=middle;whiteSpace=wrap;rounded=0;" vertex="1" parent="_CJPysXVSEiDjmwiG2ah-1">
          <mxGeometry x="180" y="150" width="60" height="30" as="geometry" />
        </mxCell>
        <mxCell id="w9CdQlyJs-aEi1Nu7uwa-3" value="Fim" style="text;html=1;align=center;verticalAlign=middle;whiteSpace=wrap;rounded=0;" vertex="1" parent="_CJPysXVSEiDjmwiG2ah-1">
          <mxGeometry x="290" y="150" width="60" height="30" as="geometry" />
        </mxCell>
        <mxCell id="TW32lhKSmoOaI0VEcXDO-0" value="" style="endArrow=classic;html=1;rounded=0;exitX=0.5;exitY=1;exitDx=0;exitDy=0;" edge="1" parent="_CJPysXVSEiDjmwiG2ah-1" source="TW32lhKSmoOaI0VEcXDO-2">
          <mxGeometry width="50" height="50" relative="1" as="geometry">
            <mxPoint x="650" y="190" as="sourcePoint" />
            <mxPoint x="630" y="220" as="targetPoint" />
          </mxGeometry>
        </mxCell>
        <mxCell id="TW32lhKSmoOaI0VEcXDO-1" value="" style="endArrow=classic;html=1;rounded=0;" edge="1" parent="_CJPysXVSEiDjmwiG2ah-1">
          <mxGeometry width="50" height="50" relative="1" as="geometry">
            <mxPoint x="740" y="190" as="sourcePoint" />
            <mxPoint x="740" y="270" as="targetPoint" />
          </mxGeometry>
        </mxCell>
        <mxCell id="TW32lhKSmoOaI0VEcXDO-2" value="Inicio" style="text;html=1;align=center;verticalAlign=middle;whiteSpace=wrap;rounded=0;" vertex="1" parent="_CJPysXVSEiDjmwiG2ah-1">
          <mxGeometry x="600" y="150" width="60" height="30" as="geometry" />
        </mxCell>
        <mxCell id="TW32lhKSmoOaI0VEcXDO-3" value="Fim" style="text;html=1;align=center;verticalAlign=middle;whiteSpace=wrap;rounded=0;" vertex="1" parent="_CJPysXVSEiDjmwiG2ah-1">
          <mxGeometry x="710" y="150" width="60" height="30" as="geometry" />
        </mxCell>
        <mxCell id="TW32lhKSmoOaI0VEcXDO-4" value="" style="whiteSpace=wrap;html=1;aspect=fixed;" vertex="1" parent="_CJPysXVSEiDjmwiG2ah-1">
          <mxGeometry x="700" y="280" width="60" height="60" as="geometry" />
        </mxCell>
        <mxCell id="TW32lhKSmoOaI0VEcXDO-5" value="&lt;font style=&quot;font-size: 20px;&quot;&gt;3&lt;/font&gt;" style="text;html=1;align=center;verticalAlign=middle;whiteSpace=wrap;rounded=0;" vertex="1" parent="_CJPysXVSEiDjmwiG2ah-1">
          <mxGeometry x="700" y="280" width="60" height="60" as="geometry" />
        </mxCell>
        <mxCell id="TW32lhKSmoOaI0VEcXDO-6" value="" style="endArrow=classic;html=1;rounded=0;" edge="1" parent="_CJPysXVSEiDjmwiG2ah-1">
          <mxGeometry width="50" height="50" relative="1" as="geometry">
            <mxPoint x="730" y="350" as="sourcePoint" />
            <mxPoint x="730" y="420" as="targetPoint" />
          </mxGeometry>
        </mxCell>
        <mxCell id="TW32lhKSmoOaI0VEcXDO-7" value="" style="endArrow=none;html=1;rounded=0;" edge="1" parent="_CJPysXVSEiDjmwiG2ah-1">
          <mxGeometry width="50" height="50" relative="1" as="geometry">
            <mxPoint x="705" y="430" as="sourcePoint" />
            <mxPoint x="755" y="430" as="targetPoint" />
          </mxGeometry>
        </mxCell>
        <mxCell id="TW32lhKSmoOaI0VEcXDO-8" value="" style="endArrow=none;html=1;rounded=0;" edge="1" parent="_CJPysXVSEiDjmwiG2ah-1">
          <mxGeometry width="50" height="50" relative="1" as="geometry">
            <mxPoint x="710" y="440" as="sourcePoint" />
            <mxPoint x="750" y="440" as="targetPoint" />
          </mxGeometry>
        </mxCell>
        <mxCell id="TW32lhKSmoOaI0VEcXDO-9" value="" style="endArrow=classic;html=1;rounded=0;" edge="1" parent="_CJPysXVSEiDjmwiG2ah-1">
          <mxGeometry width="50" height="50" relative="1" as="geometry">
            <mxPoint x="575" y="300" as="sourcePoint" />
            <mxPoint x="690" y="300" as="targetPoint" />
          </mxGeometry>
        </mxCell>
        <mxCell id="TW32lhKSmoOaI0VEcXDO-10" value="Aux" style="text;html=1;align=center;verticalAlign=middle;whiteSpace=wrap;rounded=0;" vertex="1" parent="_CJPysXVSEiDjmwiG2ah-1">
          <mxGeometry x="510" y="284" width="60" height="30" as="geometry" />
        </mxCell>
        <mxCell id="TW32lhKSmoOaI0VEcXDO-11" value="" style="endArrow=none;html=1;rounded=0;" edge="1" parent="_CJPysXVSEiDjmwiG2ah-1">
          <mxGeometry width="50" height="50" relative="1" as="geometry">
            <mxPoint x="600" y="240" as="sourcePoint" />
            <mxPoint x="650" y="240" as="targetPoint" />
          </mxGeometry>
        </mxCell>
        <mxCell id="TW32lhKSmoOaI0VEcXDO-12" value="" style="endArrow=none;html=1;rounded=0;" edge="1" parent="_CJPysXVSEiDjmwiG2ah-1">
          <mxGeometry width="50" height="50" relative="1" as="geometry">
            <mxPoint x="605" y="250" as="sourcePoint" />
            <mxPoint x="645" y="250" as="targetPoint" />
          </mxGeometry>
        </mxCell>
        <mxCell id="346AvoktXhyFlYUFxRvU-0" value="" style="rounded=0;whiteSpace=wrap;html=1;" vertex="1" parent="_CJPysXVSEiDjmwiG2ah-1">
          <mxGeometry x="30" y="520" width="90" height="40" as="geometry" />
        </mxCell>
        <mxCell id="346AvoktXhyFlYUFxRvU-1" value="2.2" style="text;html=1;align=center;verticalAlign=middle;whiteSpace=wrap;rounded=0;" vertex="1" parent="_CJPysXVSEiDjmwiG2ah-1">
          <mxGeometry x="30" y="520" width="90" height="40" as="geometry" />
        </mxCell>
        <mxCell id="346AvoktXhyFlYUFxRvU-2" value="" style="endArrow=classic;html=1;rounded=0;exitX=0.5;exitY=1;exitDx=0;exitDy=0;" edge="1" source="346AvoktXhyFlYUFxRvU-4" parent="_CJPysXVSEiDjmwiG2ah-1">
          <mxGeometry width="50" height="50" relative="1" as="geometry">
            <mxPoint x="170" y="620" as="sourcePoint" />
            <mxPoint x="190" y="660" as="targetPoint" />
          </mxGeometry>
        </mxCell>
        <mxCell id="346AvoktXhyFlYUFxRvU-3" value="" style="endArrow=classic;html=1;rounded=0;exitX=0.5;exitY=1;exitDx=0;exitDy=0;" edge="1" source="346AvoktXhyFlYUFxRvU-5" parent="_CJPysXVSEiDjmwiG2ah-1">
          <mxGeometry width="50" height="50" relative="1" as="geometry">
            <mxPoint x="260" y="620" as="sourcePoint" />
            <mxPoint x="220" y="660" as="targetPoint" />
          </mxGeometry>
        </mxCell>
        <mxCell id="346AvoktXhyFlYUFxRvU-4" value="Inicio" style="text;html=1;align=center;verticalAlign=middle;whiteSpace=wrap;rounded=0;" vertex="1" parent="_CJPysXVSEiDjmwiG2ah-1">
          <mxGeometry x="120" y="580" width="60" height="30" as="geometry" />
        </mxCell>
        <mxCell id="346AvoktXhyFlYUFxRvU-5" value="Fim" style="text;html=1;align=center;verticalAlign=middle;whiteSpace=wrap;rounded=0;" vertex="1" parent="_CJPysXVSEiDjmwiG2ah-1">
          <mxGeometry x="230" y="580" width="60" height="30" as="geometry" />
        </mxCell>
        <mxCell id="346AvoktXhyFlYUFxRvU-6" value="" style="whiteSpace=wrap;html=1;aspect=fixed;" vertex="1" parent="_CJPysXVSEiDjmwiG2ah-1">
          <mxGeometry x="220" y="710" width="60" height="60" as="geometry" />
        </mxCell>
        <mxCell id="346AvoktXhyFlYUFxRvU-7" value="&lt;font style=&quot;font-size: 20px;&quot;&gt;3&lt;/font&gt;" style="text;html=1;align=center;verticalAlign=middle;whiteSpace=wrap;rounded=0;" vertex="1" parent="_CJPysXVSEiDjmwiG2ah-1">
          <mxGeometry x="220" y="710" width="60" height="60" as="geometry" />
        </mxCell>
        <mxCell id="346AvoktXhyFlYUFxRvU-8" value="" style="endArrow=classic;html=1;rounded=0;" edge="1" parent="_CJPysXVSEiDjmwiG2ah-1">
          <mxGeometry width="50" height="50" relative="1" as="geometry">
            <mxPoint x="250" y="780" as="sourcePoint" />
            <mxPoint x="250" y="850" as="targetPoint" />
          </mxGeometry>
        </mxCell>
        <mxCell id="346AvoktXhyFlYUFxRvU-9" value="" style="endArrow=none;html=1;rounded=0;" edge="1" parent="_CJPysXVSEiDjmwiG2ah-1">
          <mxGeometry width="50" height="50" relative="1" as="geometry">
            <mxPoint x="225" y="860" as="sourcePoint" />
            <mxPoint x="275" y="860" as="targetPoint" />
          </mxGeometry>
        </mxCell>
        <mxCell id="346AvoktXhyFlYUFxRvU-10" value="" style="endArrow=none;html=1;rounded=0;" edge="1" parent="_CJPysXVSEiDjmwiG2ah-1">
          <mxGeometry width="50" height="50" relative="1" as="geometry">
            <mxPoint x="230" y="870" as="sourcePoint" />
            <mxPoint x="270" y="870" as="targetPoint" />
          </mxGeometry>
        </mxCell>
        <mxCell id="346AvoktXhyFlYUFxRvU-11" value="" style="endArrow=classic;html=1;rounded=0;" edge="1" parent="_CJPysXVSEiDjmwiG2ah-1">
          <mxGeometry width="50" height="50" relative="1" as="geometry">
            <mxPoint x="95" y="730" as="sourcePoint" />
            <mxPoint x="210" y="730" as="targetPoint" />
          </mxGeometry>
        </mxCell>
        <mxCell id="346AvoktXhyFlYUFxRvU-12" value="Aux" style="text;html=1;align=center;verticalAlign=middle;whiteSpace=wrap;rounded=0;" vertex="1" parent="_CJPysXVSEiDjmwiG2ah-1">
          <mxGeometry x="30" y="714" width="60" height="30" as="geometry" />
        </mxCell>
        <mxCell id="346AvoktXhyFlYUFxRvU-13" value="" style="endArrow=none;html=1;rounded=0;" edge="1" parent="_CJPysXVSEiDjmwiG2ah-1">
          <mxGeometry width="50" height="50" relative="1" as="geometry">
            <mxPoint x="180" y="670" as="sourcePoint" />
            <mxPoint x="230" y="670" as="targetPoint" />
          </mxGeometry>
        </mxCell>
        <mxCell id="346AvoktXhyFlYUFxRvU-14" value="" style="endArrow=none;html=1;rounded=0;" edge="1" parent="_CJPysXVSEiDjmwiG2ah-1">
          <mxGeometry width="50" height="50" relative="1" as="geometry">
            <mxPoint x="185" y="680" as="sourcePoint" />
            <mxPoint x="225" y="680" as="targetPoint" />
          </mxGeometry>
        </mxCell>
        <mxCell id="jVQFmZJryRZpelPWFDav-0" value="" style="rounded=0;whiteSpace=wrap;html=1;" vertex="1" parent="_CJPysXVSEiDjmwiG2ah-1">
          <mxGeometry x="460" y="520" width="90" height="40" as="geometry" />
        </mxCell>
        <mxCell id="jVQFmZJryRZpelPWFDav-1" value="2.3" style="text;html=1;align=center;verticalAlign=middle;whiteSpace=wrap;rounded=0;" vertex="1" parent="_CJPysXVSEiDjmwiG2ah-1">
          <mxGeometry x="460" y="520" width="90" height="40" as="geometry" />
        </mxCell>
        <mxCell id="jVQFmZJryRZpelPWFDav-2" value="" style="endArrow=classic;html=1;rounded=0;exitX=0.5;exitY=1;exitDx=0;exitDy=0;" edge="1" source="jVQFmZJryRZpelPWFDav-4" parent="_CJPysXVSEiDjmwiG2ah-1">
          <mxGeometry width="50" height="50" relative="1" as="geometry">
            <mxPoint x="600" y="620" as="sourcePoint" />
            <mxPoint x="620" y="660" as="targetPoint" />
          </mxGeometry>
        </mxCell>
        <mxCell id="jVQFmZJryRZpelPWFDav-3" value="" style="endArrow=classic;html=1;rounded=0;exitX=0.5;exitY=1;exitDx=0;exitDy=0;" edge="1" source="jVQFmZJryRZpelPWFDav-5" parent="_CJPysXVSEiDjmwiG2ah-1">
          <mxGeometry width="50" height="50" relative="1" as="geometry">
            <mxPoint x="690" y="620" as="sourcePoint" />
            <mxPoint x="650" y="660" as="targetPoint" />
          </mxGeometry>
        </mxCell>
        <mxCell id="jVQFmZJryRZpelPWFDav-4" value="Inicio" style="text;html=1;align=center;verticalAlign=middle;whiteSpace=wrap;rounded=0;" vertex="1" parent="_CJPysXVSEiDjmwiG2ah-1">
          <mxGeometry x="550" y="580" width="60" height="30" as="geometry" />
        </mxCell>
        <mxCell id="jVQFmZJryRZpelPWFDav-5" value="Fim" style="text;html=1;align=center;verticalAlign=middle;whiteSpace=wrap;rounded=0;" vertex="1" parent="_CJPysXVSEiDjmwiG2ah-1">
          <mxGeometry x="660" y="580" width="60" height="30" as="geometry" />
        </mxCell>
        <mxCell id="jVQFmZJryRZpelPWFDav-6" value="" style="whiteSpace=wrap;html=1;aspect=fixed;" vertex="1" parent="_CJPysXVSEiDjmwiG2ah-1">
          <mxGeometry x="650" y="710" width="60" height="60" as="geometry" />
        </mxCell>
        <mxCell id="jVQFmZJryRZpelPWFDav-7" value="&lt;font style=&quot;font-size: 20px;&quot;&gt;1&lt;/font&gt;" style="text;html=1;align=center;verticalAlign=middle;whiteSpace=wrap;rounded=0;" vertex="1" parent="_CJPysXVSEiDjmwiG2ah-1">
          <mxGeometry x="650" y="710" width="60" height="60" as="geometry" />
        </mxCell>
        <mxCell id="jVQFmZJryRZpelPWFDav-8" value="" style="endArrow=classic;html=1;rounded=0;" edge="1" parent="_CJPysXVSEiDjmwiG2ah-1">
          <mxGeometry width="50" height="50" relative="1" as="geometry">
            <mxPoint x="680" y="780" as="sourcePoint" />
            <mxPoint x="680" y="850" as="targetPoint" />
          </mxGeometry>
        </mxCell>
        <mxCell id="jVQFmZJryRZpelPWFDav-9" value="" style="endArrow=none;html=1;rounded=0;" edge="1" parent="_CJPysXVSEiDjmwiG2ah-1">
          <mxGeometry width="50" height="50" relative="1" as="geometry">
            <mxPoint x="655" y="860" as="sourcePoint" />
            <mxPoint x="705" y="860" as="targetPoint" />
          </mxGeometry>
        </mxCell>
        <mxCell id="jVQFmZJryRZpelPWFDav-10" value="" style="endArrow=none;html=1;rounded=0;" edge="1" parent="_CJPysXVSEiDjmwiG2ah-1">
          <mxGeometry width="50" height="50" relative="1" as="geometry">
            <mxPoint x="660" y="870" as="sourcePoint" />
            <mxPoint x="700" y="870" as="targetPoint" />
          </mxGeometry>
        </mxCell>
        <mxCell id="jVQFmZJryRZpelPWFDav-11" value="" style="endArrow=classic;html=1;rounded=0;" edge="1" parent="_CJPysXVSEiDjmwiG2ah-1">
          <mxGeometry width="50" height="50" relative="1" as="geometry">
            <mxPoint x="525" y="730" as="sourcePoint" />
            <mxPoint x="640" y="730" as="targetPoint" />
          </mxGeometry>
        </mxCell>
        <mxCell id="jVQFmZJryRZpelPWFDav-12" value="Aux" style="text;html=1;align=center;verticalAlign=middle;whiteSpace=wrap;rounded=0;" vertex="1" parent="_CJPysXVSEiDjmwiG2ah-1">
          <mxGeometry x="460" y="714" width="60" height="30" as="geometry" />
        </mxCell>
        <mxCell id="jVQFmZJryRZpelPWFDav-13" value="" style="endArrow=none;html=1;rounded=0;" edge="1" parent="_CJPysXVSEiDjmwiG2ah-1">
          <mxGeometry width="50" height="50" relative="1" as="geometry">
            <mxPoint x="610" y="670" as="sourcePoint" />
            <mxPoint x="660" y="670" as="targetPoint" />
          </mxGeometry>
        </mxCell>
        <mxCell id="jVQFmZJryRZpelPWFDav-14" value="" style="endArrow=none;html=1;rounded=0;" edge="1" parent="_CJPysXVSEiDjmwiG2ah-1">
          <mxGeometry width="50" height="50" relative="1" as="geometry">
            <mxPoint x="615" y="680" as="sourcePoint" />
            <mxPoint x="655" y="680" as="targetPoint" />
          </mxGeometry>
        </mxCell>
        <mxCell id="jVQFmZJryRZpelPWFDav-15" value="" style="shape=cross;whiteSpace=wrap;html=1;direction=south;rotation=45;fillColor=#f8cecc;strokeColor=#b85450;" vertex="1" parent="_CJPysXVSEiDjmwiG2ah-1">
          <mxGeometry x="639.9985424949239" y="699.9985424949239" width="80" height="80" as="geometry" />
        </mxCell>
      </root>
    </mxGraphModel>
  </diagram>
  <diagram name="Etapa 2-3" id="NBMpgEMKTo6VOnHB0W9j">
    <mxGraphModel dx="1434" dy="750" grid="1" gridSize="10" guides="1" tooltips="1" connect="1" arrows="1" fold="1" page="1" pageScale="1" pageWidth="850" pageHeight="1100" math="0" shadow="0">
      <root>
        <mxCell id="AF5z89GnzM-xfP7-TtyQ-0" />
        <mxCell id="AF5z89GnzM-xfP7-TtyQ-1" parent="AF5z89GnzM-xfP7-TtyQ-0" />
        <mxCell id="AF5z89GnzM-xfP7-TtyQ-2" value="" style="rounded=0;whiteSpace=wrap;html=1;" vertex="1" parent="AF5z89GnzM-xfP7-TtyQ-1">
          <mxGeometry x="30" y="20" width="120" height="60" as="geometry" />
        </mxCell>
        <mxCell id="AF5z89GnzM-xfP7-TtyQ-3" value="&lt;div style=&quot;font-size: 20px;&quot;&gt;Etapa 2&lt;br&gt;&lt;/div&gt;" style="text;html=1;align=center;verticalAlign=middle;whiteSpace=wrap;rounded=0;" vertex="1" parent="AF5z89GnzM-xfP7-TtyQ-1">
          <mxGeometry x="30" y="20" width="120" height="60" as="geometry" />
        </mxCell>
        <mxCell id="AF5z89GnzM-xfP7-TtyQ-47" value="" style="rounded=0;whiteSpace=wrap;html=1;" vertex="1" parent="AF5z89GnzM-xfP7-TtyQ-1">
          <mxGeometry x="30" y="100" width="90" height="40" as="geometry" />
        </mxCell>
        <mxCell id="AF5z89GnzM-xfP7-TtyQ-48" value="2.4" style="text;html=1;align=center;verticalAlign=middle;whiteSpace=wrap;rounded=0;" vertex="1" parent="AF5z89GnzM-xfP7-TtyQ-1">
          <mxGeometry x="30" y="100" width="90" height="40" as="geometry" />
        </mxCell>
        <mxCell id="AF5z89GnzM-xfP7-TtyQ-49" value="" style="endArrow=classic;html=1;rounded=0;exitX=0.5;exitY=1;exitDx=0;exitDy=0;" edge="1" parent="AF5z89GnzM-xfP7-TtyQ-1" source="AF5z89GnzM-xfP7-TtyQ-51">
          <mxGeometry width="50" height="50" relative="1" as="geometry">
            <mxPoint x="170" y="200" as="sourcePoint" />
            <mxPoint x="190" y="240" as="targetPoint" />
          </mxGeometry>
        </mxCell>
        <mxCell id="AF5z89GnzM-xfP7-TtyQ-50" value="" style="endArrow=classic;html=1;rounded=0;exitX=0.5;exitY=1;exitDx=0;exitDy=0;" edge="1" parent="AF5z89GnzM-xfP7-TtyQ-1" source="AF5z89GnzM-xfP7-TtyQ-52">
          <mxGeometry width="50" height="50" relative="1" as="geometry">
            <mxPoint x="260" y="200" as="sourcePoint" />
            <mxPoint x="220" y="240" as="targetPoint" />
          </mxGeometry>
        </mxCell>
        <mxCell id="AF5z89GnzM-xfP7-TtyQ-51" value="Inicio" style="text;html=1;align=center;verticalAlign=middle;whiteSpace=wrap;rounded=0;" vertex="1" parent="AF5z89GnzM-xfP7-TtyQ-1">
          <mxGeometry x="120" y="160" width="60" height="30" as="geometry" />
        </mxCell>
        <mxCell id="AF5z89GnzM-xfP7-TtyQ-52" value="Fim" style="text;html=1;align=center;verticalAlign=middle;whiteSpace=wrap;rounded=0;" vertex="1" parent="AF5z89GnzM-xfP7-TtyQ-1">
          <mxGeometry x="230" y="160" width="60" height="30" as="geometry" />
        </mxCell>
        <mxCell id="AF5z89GnzM-xfP7-TtyQ-60" value="" style="endArrow=none;html=1;rounded=0;" edge="1" parent="AF5z89GnzM-xfP7-TtyQ-1">
          <mxGeometry width="50" height="50" relative="1" as="geometry">
            <mxPoint x="180" y="250" as="sourcePoint" />
            <mxPoint x="230" y="250" as="targetPoint" />
          </mxGeometry>
        </mxCell>
        <mxCell id="AF5z89GnzM-xfP7-TtyQ-61" value="" style="endArrow=none;html=1;rounded=0;" edge="1" parent="AF5z89GnzM-xfP7-TtyQ-1">
          <mxGeometry width="50" height="50" relative="1" as="geometry">
            <mxPoint x="185" y="260" as="sourcePoint" />
            <mxPoint x="225" y="260" as="targetPoint" />
          </mxGeometry>
        </mxCell>
        <mxCell id="57uapdA2I9An4yuFtcV9-0" value="" style="whiteSpace=wrap;html=1;aspect=fixed;" vertex="1" parent="AF5z89GnzM-xfP7-TtyQ-1">
          <mxGeometry x="300" y="920" width="60" height="60" as="geometry" />
        </mxCell>
        <mxCell id="57uapdA2I9An4yuFtcV9-1" value="&lt;font style=&quot;font-size: 20px;&quot;&gt;2&lt;/font&gt;" style="text;html=1;align=center;verticalAlign=middle;whiteSpace=wrap;rounded=0;" vertex="1" parent="AF5z89GnzM-xfP7-TtyQ-1">
          <mxGeometry x="300" y="920" width="60" height="60" as="geometry" />
        </mxCell>
        <mxCell id="57uapdA2I9An4yuFtcV9-2" value="" style="endArrow=classic;html=1;rounded=0;" edge="1" parent="AF5z89GnzM-xfP7-TtyQ-1">
          <mxGeometry width="50" height="50" relative="1" as="geometry">
            <mxPoint x="330" y="990" as="sourcePoint" />
            <mxPoint x="330" y="1060" as="targetPoint" />
          </mxGeometry>
        </mxCell>
        <mxCell id="57uapdA2I9An4yuFtcV9-3" value="" style="endArrow=none;html=1;rounded=0;" edge="1" parent="AF5z89GnzM-xfP7-TtyQ-1">
          <mxGeometry width="50" height="50" relative="1" as="geometry">
            <mxPoint x="305" y="1070" as="sourcePoint" />
            <mxPoint x="355" y="1070" as="targetPoint" />
          </mxGeometry>
        </mxCell>
        <mxCell id="57uapdA2I9An4yuFtcV9-4" value="" style="endArrow=none;html=1;rounded=0;" edge="1" parent="AF5z89GnzM-xfP7-TtyQ-1">
          <mxGeometry width="50" height="50" relative="1" as="geometry">
            <mxPoint x="310" y="1080" as="sourcePoint" />
            <mxPoint x="350" y="1080" as="targetPoint" />
          </mxGeometry>
        </mxCell>
        <mxCell id="57uapdA2I9An4yuFtcV9-5" value="" style="endArrow=classic;html=1;rounded=0;" edge="1" parent="AF5z89GnzM-xfP7-TtyQ-1">
          <mxGeometry width="50" height="50" relative="1" as="geometry">
            <mxPoint x="620" y="470" as="sourcePoint" />
            <mxPoint x="620" y="540" as="targetPoint" />
          </mxGeometry>
        </mxCell>
        <mxCell id="57uapdA2I9An4yuFtcV9-6" value="" style="endArrow=classic;html=1;rounded=0;" edge="1" parent="AF5z89GnzM-xfP7-TtyQ-1">
          <mxGeometry width="50" height="50" relative="1" as="geometry">
            <mxPoint x="710" y="470" as="sourcePoint" />
            <mxPoint x="710" y="540" as="targetPoint" />
          </mxGeometry>
        </mxCell>
        <mxCell id="57uapdA2I9An4yuFtcV9-7" value="Inicio" style="text;html=1;align=center;verticalAlign=middle;whiteSpace=wrap;rounded=0;" vertex="1" parent="AF5z89GnzM-xfP7-TtyQ-1">
          <mxGeometry x="590" y="430" width="60" height="30" as="geometry" />
        </mxCell>
        <mxCell id="57uapdA2I9An4yuFtcV9-8" value="Fim" style="text;html=1;align=center;verticalAlign=middle;whiteSpace=wrap;rounded=0;" vertex="1" parent="AF5z89GnzM-xfP7-TtyQ-1">
          <mxGeometry x="680" y="430" width="60" height="30" as="geometry" />
        </mxCell>
        <mxCell id="57uapdA2I9An4yuFtcV9-9" value="" style="endArrow=none;html=1;rounded=0;" edge="1" parent="AF5z89GnzM-xfP7-TtyQ-1">
          <mxGeometry width="50" height="50" relative="1" as="geometry">
            <mxPoint x="685" y="550" as="sourcePoint" />
            <mxPoint x="735" y="550" as="targetPoint" />
          </mxGeometry>
        </mxCell>
        <mxCell id="57uapdA2I9An4yuFtcV9-10" value="" style="endArrow=none;html=1;rounded=0;" edge="1" parent="AF5z89GnzM-xfP7-TtyQ-1">
          <mxGeometry width="50" height="50" relative="1" as="geometry">
            <mxPoint x="690" y="560" as="sourcePoint" />
            <mxPoint x="730" y="560" as="targetPoint" />
          </mxGeometry>
        </mxCell>
        <mxCell id="57uapdA2I9An4yuFtcV9-11" value="" style="whiteSpace=wrap;html=1;aspect=fixed;" vertex="1" parent="AF5z89GnzM-xfP7-TtyQ-1">
          <mxGeometry x="590" y="550" width="60" height="60" as="geometry" />
        </mxCell>
        <mxCell id="57uapdA2I9An4yuFtcV9-12" value="&lt;font style=&quot;font-size: 20px;&quot;&gt;3&lt;/font&gt;" style="text;html=1;align=center;verticalAlign=middle;whiteSpace=wrap;rounded=0;" vertex="1" parent="AF5z89GnzM-xfP7-TtyQ-1">
          <mxGeometry x="590" y="550" width="60" height="60" as="geometry" />
        </mxCell>
        <mxCell id="57uapdA2I9An4yuFtcV9-13" value="" style="endArrow=classic;html=1;rounded=0;" edge="1" parent="AF5z89GnzM-xfP7-TtyQ-1">
          <mxGeometry width="50" height="50" relative="1" as="geometry">
            <mxPoint x="620" y="620" as="sourcePoint" />
            <mxPoint x="620" y="690" as="targetPoint" />
          </mxGeometry>
        </mxCell>
        <mxCell id="57uapdA2I9An4yuFtcV9-14" value="" style="endArrow=none;html=1;rounded=0;" edge="1" parent="AF5z89GnzM-xfP7-TtyQ-1">
          <mxGeometry width="50" height="50" relative="1" as="geometry">
            <mxPoint x="595" y="700" as="sourcePoint" />
            <mxPoint x="645" y="700" as="targetPoint" />
          </mxGeometry>
        </mxCell>
        <mxCell id="57uapdA2I9An4yuFtcV9-15" value="" style="endArrow=none;html=1;rounded=0;" edge="1" parent="AF5z89GnzM-xfP7-TtyQ-1">
          <mxGeometry width="50" height="50" relative="1" as="geometry">
            <mxPoint x="600" y="710" as="sourcePoint" />
            <mxPoint x="640" y="710" as="targetPoint" />
          </mxGeometry>
        </mxCell>
        <mxCell id="57uapdA2I9An4yuFtcV9-16" value="" style="rounded=0;whiteSpace=wrap;html=1;" vertex="1" parent="AF5z89GnzM-xfP7-TtyQ-1">
          <mxGeometry x="470" y="410" width="90" height="40" as="geometry" />
        </mxCell>
        <mxCell id="57uapdA2I9An4yuFtcV9-17" value="3.1" style="text;html=1;align=center;verticalAlign=middle;whiteSpace=wrap;rounded=0;" vertex="1" parent="AF5z89GnzM-xfP7-TtyQ-1">
          <mxGeometry x="470" y="410" width="90" height="40" as="geometry" />
        </mxCell>
        <mxCell id="57uapdA2I9An4yuFtcV9-18" value="" style="rounded=0;whiteSpace=wrap;html=1;" vertex="1" parent="AF5z89GnzM-xfP7-TtyQ-1">
          <mxGeometry x="30" y="330" width="120" height="60" as="geometry" />
        </mxCell>
        <mxCell id="57uapdA2I9An4yuFtcV9-19" value="&lt;div style=&quot;font-size: 20px;&quot;&gt;Etapa 3&lt;br&gt;&lt;/div&gt;" style="text;html=1;align=center;verticalAlign=middle;whiteSpace=wrap;rounded=0;" vertex="1" parent="AF5z89GnzM-xfP7-TtyQ-1">
          <mxGeometry x="30" y="330" width="120" height="60" as="geometry" />
        </mxCell>
        <mxCell id="57uapdA2I9An4yuFtcV9-20" value="" style="rounded=0;whiteSpace=wrap;html=1;" vertex="1" parent="AF5z89GnzM-xfP7-TtyQ-1">
          <mxGeometry x="30" y="410" width="90" height="40" as="geometry" />
        </mxCell>
        <mxCell id="57uapdA2I9An4yuFtcV9-21" value="3.0" style="text;html=1;align=center;verticalAlign=middle;whiteSpace=wrap;rounded=0;" vertex="1" parent="AF5z89GnzM-xfP7-TtyQ-1">
          <mxGeometry x="30" y="410" width="90" height="40" as="geometry" />
        </mxCell>
        <mxCell id="57uapdA2I9An4yuFtcV9-22" value="" style="endArrow=classic;html=1;rounded=0;exitX=0.5;exitY=1;exitDx=0;exitDy=0;" edge="1" parent="AF5z89GnzM-xfP7-TtyQ-1" source="57uapdA2I9An4yuFtcV9-24">
          <mxGeometry width="50" height="50" relative="1" as="geometry">
            <mxPoint x="170" y="510" as="sourcePoint" />
            <mxPoint x="190" y="550" as="targetPoint" />
          </mxGeometry>
        </mxCell>
        <mxCell id="57uapdA2I9An4yuFtcV9-23" value="" style="endArrow=classic;html=1;rounded=0;exitX=0.5;exitY=1;exitDx=0;exitDy=0;" edge="1" parent="AF5z89GnzM-xfP7-TtyQ-1" source="57uapdA2I9An4yuFtcV9-25">
          <mxGeometry width="50" height="50" relative="1" as="geometry">
            <mxPoint x="260" y="510" as="sourcePoint" />
            <mxPoint x="220" y="550" as="targetPoint" />
          </mxGeometry>
        </mxCell>
        <mxCell id="57uapdA2I9An4yuFtcV9-24" value="Inicio" style="text;html=1;align=center;verticalAlign=middle;whiteSpace=wrap;rounded=0;" vertex="1" parent="AF5z89GnzM-xfP7-TtyQ-1">
          <mxGeometry x="120" y="470" width="60" height="30" as="geometry" />
        </mxCell>
        <mxCell id="57uapdA2I9An4yuFtcV9-25" value="Fim" style="text;html=1;align=center;verticalAlign=middle;whiteSpace=wrap;rounded=0;" vertex="1" parent="AF5z89GnzM-xfP7-TtyQ-1">
          <mxGeometry x="230" y="470" width="60" height="30" as="geometry" />
        </mxCell>
        <mxCell id="57uapdA2I9An4yuFtcV9-26" value="" style="endArrow=none;html=1;rounded=0;" edge="1" parent="AF5z89GnzM-xfP7-TtyQ-1">
          <mxGeometry width="50" height="50" relative="1" as="geometry">
            <mxPoint x="180" y="560" as="sourcePoint" />
            <mxPoint x="230" y="560" as="targetPoint" />
          </mxGeometry>
        </mxCell>
        <mxCell id="57uapdA2I9An4yuFtcV9-27" value="" style="endArrow=none;html=1;rounded=0;" edge="1" parent="AF5z89GnzM-xfP7-TtyQ-1">
          <mxGeometry width="50" height="50" relative="1" as="geometry">
            <mxPoint x="185" y="570" as="sourcePoint" />
            <mxPoint x="225" y="570" as="targetPoint" />
          </mxGeometry>
        </mxCell>
        <mxCell id="vTgNQYCrC0eeHRBtuaLD-0" value="" style="rounded=0;whiteSpace=wrap;html=1;" vertex="1" parent="AF5z89GnzM-xfP7-TtyQ-1">
          <mxGeometry x="30" y="760" width="90" height="40" as="geometry" />
        </mxCell>
        <mxCell id="vTgNQYCrC0eeHRBtuaLD-1" value="" style="endArrow=classic;html=1;rounded=0;" edge="1" parent="AF5z89GnzM-xfP7-TtyQ-1">
          <mxGeometry width="50" height="50" relative="1" as="geometry">
            <mxPoint x="160" y="840" as="sourcePoint" />
            <mxPoint x="200" y="910" as="targetPoint" />
          </mxGeometry>
        </mxCell>
        <mxCell id="vTgNQYCrC0eeHRBtuaLD-2" value="" style="endArrow=classic;html=1;rounded=0;" edge="1" parent="AF5z89GnzM-xfP7-TtyQ-1">
          <mxGeometry width="50" height="50" relative="1" as="geometry">
            <mxPoint x="250" y="840" as="sourcePoint" />
            <mxPoint x="220" y="910" as="targetPoint" />
          </mxGeometry>
        </mxCell>
        <mxCell id="vTgNQYCrC0eeHRBtuaLD-3" value="3.2" style="text;html=1;align=center;verticalAlign=middle;whiteSpace=wrap;rounded=0;" vertex="1" parent="AF5z89GnzM-xfP7-TtyQ-1">
          <mxGeometry x="30" y="760" width="90" height="40" as="geometry" />
        </mxCell>
        <mxCell id="vTgNQYCrC0eeHRBtuaLD-4" value="Inicio" style="text;html=1;align=center;verticalAlign=middle;whiteSpace=wrap;rounded=0;" vertex="1" parent="AF5z89GnzM-xfP7-TtyQ-1">
          <mxGeometry x="130" y="800" width="60" height="30" as="geometry" />
        </mxCell>
        <mxCell id="vTgNQYCrC0eeHRBtuaLD-5" value="Fim" style="text;html=1;align=center;verticalAlign=middle;whiteSpace=wrap;rounded=0;" vertex="1" parent="AF5z89GnzM-xfP7-TtyQ-1">
          <mxGeometry x="220" y="800" width="60" height="30" as="geometry" />
        </mxCell>
        <mxCell id="vTgNQYCrC0eeHRBtuaLD-6" value="" style="whiteSpace=wrap;html=1;aspect=fixed;" vertex="1" parent="AF5z89GnzM-xfP7-TtyQ-1">
          <mxGeometry x="180" y="920" width="60" height="60" as="geometry" />
        </mxCell>
        <mxCell id="vTgNQYCrC0eeHRBtuaLD-7" value="&lt;font style=&quot;font-size: 20px;&quot;&gt;3&lt;/font&gt;" style="text;html=1;align=center;verticalAlign=middle;whiteSpace=wrap;rounded=0;" vertex="1" parent="AF5z89GnzM-xfP7-TtyQ-1">
          <mxGeometry x="180" y="920" width="60" height="60" as="geometry" />
        </mxCell>
        <mxCell id="vTgNQYCrC0eeHRBtuaLD-8" value="" style="endArrow=classic;html=1;rounded=0;" edge="1" parent="AF5z89GnzM-xfP7-TtyQ-1">
          <mxGeometry width="50" height="50" relative="1" as="geometry">
            <mxPoint x="210" y="990" as="sourcePoint" />
            <mxPoint x="210" y="1060" as="targetPoint" />
          </mxGeometry>
        </mxCell>
        <mxCell id="vTgNQYCrC0eeHRBtuaLD-9" value="" style="endArrow=none;html=1;rounded=0;" edge="1" parent="AF5z89GnzM-xfP7-TtyQ-1">
          <mxGeometry width="50" height="50" relative="1" as="geometry">
            <mxPoint x="185" y="1070" as="sourcePoint" />
            <mxPoint x="235" y="1070" as="targetPoint" />
          </mxGeometry>
        </mxCell>
        <mxCell id="vTgNQYCrC0eeHRBtuaLD-10" value="" style="endArrow=none;html=1;rounded=0;" edge="1" parent="AF5z89GnzM-xfP7-TtyQ-1">
          <mxGeometry width="50" height="50" relative="1" as="geometry">
            <mxPoint x="190" y="1080" as="sourcePoint" />
            <mxPoint x="230" y="1080" as="targetPoint" />
          </mxGeometry>
        </mxCell>
        <mxCell id="yY0WCCjE_Tubj7FVDjS0-0" value="" style="rounded=0;whiteSpace=wrap;html=1;" vertex="1" parent="AF5z89GnzM-xfP7-TtyQ-1">
          <mxGeometry x="410" y="760" width="90" height="40" as="geometry" />
        </mxCell>
        <mxCell id="yY0WCCjE_Tubj7FVDjS0-1" value="3.3" style="text;html=1;align=center;verticalAlign=middle;whiteSpace=wrap;rounded=0;" vertex="1" parent="AF5z89GnzM-xfP7-TtyQ-1">
          <mxGeometry x="410" y="760" width="90" height="40" as="geometry" />
        </mxCell>
        <mxCell id="yY0WCCjE_Tubj7FVDjS0-2" value="" style="endArrow=classic;html=1;rounded=0;" edge="1" parent="AF5z89GnzM-xfP7-TtyQ-1">
          <mxGeometry width="50" height="50" relative="1" as="geometry">
            <mxPoint x="550" y="829.5" as="sourcePoint" />
            <mxPoint x="590" y="899.5" as="targetPoint" />
          </mxGeometry>
        </mxCell>
        <mxCell id="yY0WCCjE_Tubj7FVDjS0-3" value="" style="endArrow=classic;html=1;rounded=0;" edge="1" parent="AF5z89GnzM-xfP7-TtyQ-1">
          <mxGeometry width="50" height="50" relative="1" as="geometry">
            <mxPoint x="640" y="829.5" as="sourcePoint" />
            <mxPoint x="610" y="899.5" as="targetPoint" />
          </mxGeometry>
        </mxCell>
        <mxCell id="yY0WCCjE_Tubj7FVDjS0-4" value="Inicio" style="text;html=1;align=center;verticalAlign=middle;whiteSpace=wrap;rounded=0;" vertex="1" parent="AF5z89GnzM-xfP7-TtyQ-1">
          <mxGeometry x="520" y="789.5" width="60" height="30" as="geometry" />
        </mxCell>
        <mxCell id="yY0WCCjE_Tubj7FVDjS0-5" value="Fim" style="text;html=1;align=center;verticalAlign=middle;whiteSpace=wrap;rounded=0;" vertex="1" parent="AF5z89GnzM-xfP7-TtyQ-1">
          <mxGeometry x="610" y="789.5" width="60" height="30" as="geometry" />
        </mxCell>
        <mxCell id="yY0WCCjE_Tubj7FVDjS0-6" value="" style="whiteSpace=wrap;html=1;aspect=fixed;" vertex="1" parent="AF5z89GnzM-xfP7-TtyQ-1">
          <mxGeometry x="570" y="909.5" width="60" height="60" as="geometry" />
        </mxCell>
        <mxCell id="yY0WCCjE_Tubj7FVDjS0-7" value="&lt;font style=&quot;font-size: 20px;&quot;&gt;3&lt;/font&gt;" style="text;html=1;align=center;verticalAlign=middle;whiteSpace=wrap;rounded=0;" vertex="1" parent="AF5z89GnzM-xfP7-TtyQ-1">
          <mxGeometry x="570" y="909.5" width="60" height="60" as="geometry" />
        </mxCell>
        <mxCell id="yY0WCCjE_Tubj7FVDjS0-8" value="" style="endArrow=classic;html=1;rounded=0;" edge="1" parent="AF5z89GnzM-xfP7-TtyQ-1">
          <mxGeometry width="50" height="50" relative="1" as="geometry">
            <mxPoint x="650" y="940" as="sourcePoint" />
            <mxPoint x="700" y="940" as="targetPoint" />
          </mxGeometry>
        </mxCell>
        <mxCell id="yY0WCCjE_Tubj7FVDjS0-9" value="" style="whiteSpace=wrap;html=1;aspect=fixed;" vertex="1" parent="AF5z89GnzM-xfP7-TtyQ-1">
          <mxGeometry x="720" y="909.5" width="60" height="60" as="geometry" />
        </mxCell>
        <mxCell id="yY0WCCjE_Tubj7FVDjS0-10" value="&lt;font style=&quot;font-size: 20px;&quot;&gt;2&lt;/font&gt;" style="text;html=1;align=center;verticalAlign=middle;whiteSpace=wrap;rounded=0;" vertex="1" parent="AF5z89GnzM-xfP7-TtyQ-1">
          <mxGeometry x="720" y="909.5" width="60" height="60" as="geometry" />
        </mxCell>
        <mxCell id="yY0WCCjE_Tubj7FVDjS0-11" value="" style="endArrow=classic;html=1;rounded=0;" edge="1" parent="AF5z89GnzM-xfP7-TtyQ-1">
          <mxGeometry width="50" height="50" relative="1" as="geometry">
            <mxPoint x="750" y="979.5" as="sourcePoint" />
            <mxPoint x="750" y="1049.5" as="targetPoint" />
          </mxGeometry>
        </mxCell>
        <mxCell id="yY0WCCjE_Tubj7FVDjS0-12" value="" style="endArrow=none;html=1;rounded=0;" edge="1" parent="AF5z89GnzM-xfP7-TtyQ-1">
          <mxGeometry width="50" height="50" relative="1" as="geometry">
            <mxPoint x="725" y="1059.5" as="sourcePoint" />
            <mxPoint x="775" y="1059.5" as="targetPoint" />
          </mxGeometry>
        </mxCell>
        <mxCell id="yY0WCCjE_Tubj7FVDjS0-13" value="" style="endArrow=none;html=1;rounded=0;" edge="1" parent="AF5z89GnzM-xfP7-TtyQ-1">
          <mxGeometry width="50" height="50" relative="1" as="geometry">
            <mxPoint x="730" y="1069.5" as="sourcePoint" />
            <mxPoint x="770" y="1069.5" as="targetPoint" />
          </mxGeometry>
        </mxCell>
        <mxCell id="EEn5RytSLNK639xI2ehW-0" value="" style="whiteSpace=wrap;html=1;aspect=fixed;" vertex="1" parent="AF5z89GnzM-xfP7-TtyQ-1">
          <mxGeometry x="320" y="460" width="60" height="60" as="geometry" />
        </mxCell>
        <mxCell id="EEn5RytSLNK639xI2ehW-1" value="&lt;font style=&quot;font-size: 20px;&quot;&gt;3&lt;/font&gt;" style="text;html=1;align=center;verticalAlign=middle;whiteSpace=wrap;rounded=0;" vertex="1" parent="AF5z89GnzM-xfP7-TtyQ-1">
          <mxGeometry x="320" y="460" width="60" height="60" as="geometry" />
        </mxCell>
        <mxCell id="EEn5RytSLNK639xI2ehW-2" value="" style="endArrow=classic;html=1;rounded=0;" edge="1" parent="AF5z89GnzM-xfP7-TtyQ-1">
          <mxGeometry width="50" height="50" relative="1" as="geometry">
            <mxPoint x="350" y="530" as="sourcePoint" />
            <mxPoint x="350" y="600" as="targetPoint" />
          </mxGeometry>
        </mxCell>
        <mxCell id="EEn5RytSLNK639xI2ehW-3" value="" style="endArrow=none;html=1;rounded=0;" edge="1" parent="AF5z89GnzM-xfP7-TtyQ-1">
          <mxGeometry width="50" height="50" relative="1" as="geometry">
            <mxPoint x="325" y="610" as="sourcePoint" />
            <mxPoint x="375" y="610" as="targetPoint" />
          </mxGeometry>
        </mxCell>
        <mxCell id="EEn5RytSLNK639xI2ehW-4" value="" style="endArrow=none;html=1;rounded=0;" edge="1" parent="AF5z89GnzM-xfP7-TtyQ-1">
          <mxGeometry width="50" height="50" relative="1" as="geometry">
            <mxPoint x="330" y="620" as="sourcePoint" />
            <mxPoint x="370" y="620" as="targetPoint" />
          </mxGeometry>
        </mxCell>
      </root>
    </mxGraphModel>
  </diagram>
  <diagram name="Etapa 3-4" id="ra85emR7B-JoJnuJbx--">
    <mxGraphModel dx="1434" dy="750" grid="1" gridSize="10" guides="1" tooltips="1" connect="1" arrows="1" fold="1" page="1" pageScale="1" pageWidth="850" pageHeight="1100" math="0" shadow="0">
      <root>
        <mxCell id="jyxrAdpHVHjkb9tFdF00-0" />
        <mxCell id="jyxrAdpHVHjkb9tFdF00-1" parent="jyxrAdpHVHjkb9tFdF00-0" />
        <mxCell id="jyxrAdpHVHjkb9tFdF00-2" value="" style="rounded=0;whiteSpace=wrap;html=1;" vertex="1" parent="jyxrAdpHVHjkb9tFdF00-1">
          <mxGeometry x="30" y="20" width="120" height="60" as="geometry" />
        </mxCell>
        <mxCell id="jyxrAdpHVHjkb9tFdF00-3" value="&lt;div style=&quot;font-size: 20px;&quot;&gt;Etapa 3&lt;br&gt;&lt;/div&gt;" style="text;html=1;align=center;verticalAlign=middle;whiteSpace=wrap;rounded=0;" vertex="1" parent="jyxrAdpHVHjkb9tFdF00-1">
          <mxGeometry x="30" y="20" width="120" height="60" as="geometry" />
        </mxCell>
        <mxCell id="P9JxoLDAzTatVNcUuHCQ-0" value="" style="rounded=0;whiteSpace=wrap;html=1;" vertex="1" parent="jyxrAdpHVHjkb9tFdF00-1">
          <mxGeometry x="30" y="100" width="90" height="40" as="geometry" />
        </mxCell>
        <mxCell id="P9JxoLDAzTatVNcUuHCQ-1" value="3.4" style="text;html=1;align=center;verticalAlign=middle;whiteSpace=wrap;rounded=0;" vertex="1" parent="jyxrAdpHVHjkb9tFdF00-1">
          <mxGeometry x="30" y="100" width="90" height="40" as="geometry" />
        </mxCell>
        <mxCell id="P9JxoLDAzTatVNcUuHCQ-2" value="" style="endArrow=classic;html=1;rounded=0;" edge="1" parent="jyxrAdpHVHjkb9tFdF00-1">
          <mxGeometry width="50" height="50" relative="1" as="geometry">
            <mxPoint x="190" y="179" as="sourcePoint" />
            <mxPoint x="190" y="249" as="targetPoint" />
          </mxGeometry>
        </mxCell>
        <mxCell id="P9JxoLDAzTatVNcUuHCQ-3" value="" style="endArrow=classic;html=1;rounded=0;" edge="1" parent="jyxrAdpHVHjkb9tFdF00-1">
          <mxGeometry width="50" height="50" relative="1" as="geometry">
            <mxPoint x="350" y="179.5" as="sourcePoint" />
            <mxPoint x="350" y="250" as="targetPoint" />
          </mxGeometry>
        </mxCell>
        <mxCell id="P9JxoLDAzTatVNcUuHCQ-4" value="Inicio" style="text;html=1;align=center;verticalAlign=middle;whiteSpace=wrap;rounded=0;" vertex="1" parent="jyxrAdpHVHjkb9tFdF00-1">
          <mxGeometry x="160" y="140" width="60" height="30" as="geometry" />
        </mxCell>
        <mxCell id="P9JxoLDAzTatVNcUuHCQ-5" value="Fim" style="text;html=1;align=center;verticalAlign=middle;whiteSpace=wrap;rounded=0;" vertex="1" parent="jyxrAdpHVHjkb9tFdF00-1">
          <mxGeometry x="320" y="140" width="60" height="30" as="geometry" />
        </mxCell>
        <mxCell id="P9JxoLDAzTatVNcUuHCQ-6" value="" style="whiteSpace=wrap;html=1;aspect=fixed;" vertex="1" parent="jyxrAdpHVHjkb9tFdF00-1">
          <mxGeometry x="170" y="259" width="60" height="60" as="geometry" />
        </mxCell>
        <mxCell id="P9JxoLDAzTatVNcUuHCQ-7" value="&lt;font style=&quot;font-size: 20px;&quot;&gt;3&lt;/font&gt;" style="text;html=1;align=center;verticalAlign=middle;whiteSpace=wrap;rounded=0;" vertex="1" parent="jyxrAdpHVHjkb9tFdF00-1">
          <mxGeometry x="170" y="259" width="60" height="60" as="geometry" />
        </mxCell>
        <mxCell id="P9JxoLDAzTatVNcUuHCQ-8" value="" style="endArrow=classic;html=1;rounded=0;" edge="1" parent="jyxrAdpHVHjkb9tFdF00-1">
          <mxGeometry width="50" height="50" relative="1" as="geometry">
            <mxPoint x="250" y="289.5" as="sourcePoint" />
            <mxPoint x="300" y="289.5" as="targetPoint" />
          </mxGeometry>
        </mxCell>
        <mxCell id="P9JxoLDAzTatVNcUuHCQ-9" value="" style="whiteSpace=wrap;html=1;aspect=fixed;" vertex="1" parent="jyxrAdpHVHjkb9tFdF00-1">
          <mxGeometry x="320" y="259" width="60" height="60" as="geometry" />
        </mxCell>
        <mxCell id="P9JxoLDAzTatVNcUuHCQ-10" value="&lt;font style=&quot;font-size: 20px;&quot;&gt;2&lt;/font&gt;" style="text;html=1;align=center;verticalAlign=middle;whiteSpace=wrap;rounded=0;" vertex="1" parent="jyxrAdpHVHjkb9tFdF00-1">
          <mxGeometry x="320" y="259" width="60" height="60" as="geometry" />
        </mxCell>
        <mxCell id="P9JxoLDAzTatVNcUuHCQ-11" value="" style="endArrow=classic;html=1;rounded=0;" edge="1" parent="jyxrAdpHVHjkb9tFdF00-1">
          <mxGeometry width="50" height="50" relative="1" as="geometry">
            <mxPoint x="350" y="329" as="sourcePoint" />
            <mxPoint x="350" y="399" as="targetPoint" />
          </mxGeometry>
        </mxCell>
        <mxCell id="P9JxoLDAzTatVNcUuHCQ-12" value="" style="endArrow=none;html=1;rounded=0;" edge="1" parent="jyxrAdpHVHjkb9tFdF00-1">
          <mxGeometry width="50" height="50" relative="1" as="geometry">
            <mxPoint x="325" y="409" as="sourcePoint" />
            <mxPoint x="375" y="409" as="targetPoint" />
          </mxGeometry>
        </mxCell>
        <mxCell id="P9JxoLDAzTatVNcUuHCQ-13" value="" style="endArrow=none;html=1;rounded=0;" edge="1" parent="jyxrAdpHVHjkb9tFdF00-1">
          <mxGeometry width="50" height="50" relative="1" as="geometry">
            <mxPoint x="330" y="419" as="sourcePoint" />
            <mxPoint x="370" y="419" as="targetPoint" />
          </mxGeometry>
        </mxCell>
        <mxCell id="P9JxoLDAzTatVNcUuHCQ-14" value="" style="rounded=0;whiteSpace=wrap;html=1;" vertex="1" parent="jyxrAdpHVHjkb9tFdF00-1">
          <mxGeometry x="30" y="470" width="120" height="60" as="geometry" />
        </mxCell>
        <mxCell id="P9JxoLDAzTatVNcUuHCQ-15" value="&lt;div style=&quot;font-size: 20px;&quot;&gt;Etapa 4&lt;br&gt;&lt;/div&gt;" style="text;html=1;align=center;verticalAlign=middle;whiteSpace=wrap;rounded=0;" vertex="1" parent="jyxrAdpHVHjkb9tFdF00-1">
          <mxGeometry x="30" y="470" width="120" height="60" as="geometry" />
        </mxCell>
        <mxCell id="P9JxoLDAzTatVNcUuHCQ-16" value="" style="rounded=0;whiteSpace=wrap;html=1;" vertex="1" parent="jyxrAdpHVHjkb9tFdF00-1">
          <mxGeometry x="30" y="550" width="90" height="40" as="geometry" />
        </mxCell>
        <mxCell id="P9JxoLDAzTatVNcUuHCQ-17" value="4.0" style="text;html=1;align=center;verticalAlign=middle;whiteSpace=wrap;rounded=0;" vertex="1" parent="jyxrAdpHVHjkb9tFdF00-1">
          <mxGeometry x="30" y="550" width="90" height="40" as="geometry" />
        </mxCell>
        <mxCell id="P9JxoLDAzTatVNcUuHCQ-18" value="" style="endArrow=classic;html=1;rounded=0;" edge="1" parent="jyxrAdpHVHjkb9tFdF00-1">
          <mxGeometry width="50" height="50" relative="1" as="geometry">
            <mxPoint x="190" y="629" as="sourcePoint" />
            <mxPoint x="190" y="699" as="targetPoint" />
          </mxGeometry>
        </mxCell>
        <mxCell id="P9JxoLDAzTatVNcUuHCQ-19" value="" style="endArrow=classic;html=1;rounded=0;" edge="1" parent="jyxrAdpHVHjkb9tFdF00-1">
          <mxGeometry width="50" height="50" relative="1" as="geometry">
            <mxPoint x="350" y="629.5" as="sourcePoint" />
            <mxPoint x="350" y="700" as="targetPoint" />
          </mxGeometry>
        </mxCell>
        <mxCell id="P9JxoLDAzTatVNcUuHCQ-20" value="Inicio" style="text;html=1;align=center;verticalAlign=middle;whiteSpace=wrap;rounded=0;" vertex="1" parent="jyxrAdpHVHjkb9tFdF00-1">
          <mxGeometry x="160" y="590" width="60" height="30" as="geometry" />
        </mxCell>
        <mxCell id="P9JxoLDAzTatVNcUuHCQ-21" value="Fim" style="text;html=1;align=center;verticalAlign=middle;whiteSpace=wrap;rounded=0;" vertex="1" parent="jyxrAdpHVHjkb9tFdF00-1">
          <mxGeometry x="320" y="590" width="60" height="30" as="geometry" />
        </mxCell>
        <mxCell id="P9JxoLDAzTatVNcUuHCQ-22" value="" style="whiteSpace=wrap;html=1;aspect=fixed;" vertex="1" parent="jyxrAdpHVHjkb9tFdF00-1">
          <mxGeometry x="170" y="709" width="60" height="60" as="geometry" />
        </mxCell>
        <mxCell id="P9JxoLDAzTatVNcUuHCQ-23" value="&lt;font style=&quot;font-size: 20px;&quot;&gt;3&lt;/font&gt;" style="text;html=1;align=center;verticalAlign=middle;whiteSpace=wrap;rounded=0;" vertex="1" parent="jyxrAdpHVHjkb9tFdF00-1">
          <mxGeometry x="170" y="709" width="60" height="60" as="geometry" />
        </mxCell>
        <mxCell id="P9JxoLDAzTatVNcUuHCQ-24" value="" style="endArrow=classic;html=1;rounded=0;" edge="1" parent="jyxrAdpHVHjkb9tFdF00-1">
          <mxGeometry width="50" height="50" relative="1" as="geometry">
            <mxPoint x="250" y="739.5" as="sourcePoint" />
            <mxPoint x="300" y="739.5" as="targetPoint" />
          </mxGeometry>
        </mxCell>
        <mxCell id="P9JxoLDAzTatVNcUuHCQ-25" value="" style="whiteSpace=wrap;html=1;aspect=fixed;" vertex="1" parent="jyxrAdpHVHjkb9tFdF00-1">
          <mxGeometry x="320" y="709" width="60" height="60" as="geometry" />
        </mxCell>
        <mxCell id="P9JxoLDAzTatVNcUuHCQ-26" value="&lt;font style=&quot;font-size: 20px;&quot;&gt;2&lt;/font&gt;" style="text;html=1;align=center;verticalAlign=middle;whiteSpace=wrap;rounded=0;" vertex="1" parent="jyxrAdpHVHjkb9tFdF00-1">
          <mxGeometry x="320" y="709" width="60" height="60" as="geometry" />
        </mxCell>
        <mxCell id="P9JxoLDAzTatVNcUuHCQ-27" value="" style="endArrow=classic;html=1;rounded=0;" edge="1" parent="jyxrAdpHVHjkb9tFdF00-1">
          <mxGeometry width="50" height="50" relative="1" as="geometry">
            <mxPoint x="350" y="779" as="sourcePoint" />
            <mxPoint x="350" y="849" as="targetPoint" />
          </mxGeometry>
        </mxCell>
        <mxCell id="P9JxoLDAzTatVNcUuHCQ-28" value="" style="endArrow=none;html=1;rounded=0;" edge="1" parent="jyxrAdpHVHjkb9tFdF00-1">
          <mxGeometry width="50" height="50" relative="1" as="geometry">
            <mxPoint x="325" y="859" as="sourcePoint" />
            <mxPoint x="375" y="859" as="targetPoint" />
          </mxGeometry>
        </mxCell>
        <mxCell id="P9JxoLDAzTatVNcUuHCQ-29" value="" style="endArrow=none;html=1;rounded=0;" edge="1" parent="jyxrAdpHVHjkb9tFdF00-1">
          <mxGeometry width="50" height="50" relative="1" as="geometry">
            <mxPoint x="330" y="869" as="sourcePoint" />
            <mxPoint x="370" y="869" as="targetPoint" />
          </mxGeometry>
        </mxCell>
        <mxCell id="tOF5P0khcTUz8FQ9X9L1-0" value="" style="rounded=0;whiteSpace=wrap;html=1;" vertex="1" parent="jyxrAdpHVHjkb9tFdF00-1">
          <mxGeometry x="460" y="550" width="90" height="40" as="geometry" />
        </mxCell>
        <mxCell id="tOF5P0khcTUz8FQ9X9L1-1" value="4.1" style="text;html=1;align=center;verticalAlign=middle;whiteSpace=wrap;rounded=0;" vertex="1" parent="jyxrAdpHVHjkb9tFdF00-1">
          <mxGeometry x="460" y="550" width="90" height="40" as="geometry" />
        </mxCell>
        <mxCell id="tOF5P0khcTUz8FQ9X9L1-2" value="" style="endArrow=classic;html=1;rounded=0;exitX=0.5;exitY=1;exitDx=0;exitDy=0;" edge="1" parent="jyxrAdpHVHjkb9tFdF00-1" source="tOF5P0khcTUz8FQ9X9L1-4">
          <mxGeometry width="50" height="50" relative="1" as="geometry">
            <mxPoint x="725" y="624" as="sourcePoint" />
            <mxPoint x="725" y="694" as="targetPoint" />
          </mxGeometry>
        </mxCell>
        <mxCell id="tOF5P0khcTUz8FQ9X9L1-3" value="" style="endArrow=classic;html=1;rounded=0;exitX=0.5;exitY=1;exitDx=0;exitDy=0;" edge="1" parent="jyxrAdpHVHjkb9tFdF00-1" source="tOF5P0khcTUz8FQ9X9L1-5">
          <mxGeometry width="50" height="50" relative="1" as="geometry">
            <mxPoint x="765" y="623.5" as="sourcePoint" />
            <mxPoint x="765" y="694" as="targetPoint" />
          </mxGeometry>
        </mxCell>
        <mxCell id="tOF5P0khcTUz8FQ9X9L1-4" value="Inicio" style="text;html=1;align=center;verticalAlign=middle;whiteSpace=wrap;rounded=0;" vertex="1" parent="jyxrAdpHVHjkb9tFdF00-1">
          <mxGeometry x="655" y="580" width="60" height="30" as="geometry" />
        </mxCell>
        <mxCell id="tOF5P0khcTUz8FQ9X9L1-5" value="Fim" style="text;html=1;align=center;verticalAlign=middle;whiteSpace=wrap;rounded=0;" vertex="1" parent="jyxrAdpHVHjkb9tFdF00-1">
          <mxGeometry x="765" y="580" width="60" height="30" as="geometry" />
        </mxCell>
        <mxCell id="tOF5P0khcTUz8FQ9X9L1-6" value="" style="whiteSpace=wrap;html=1;aspect=fixed;" vertex="1" parent="jyxrAdpHVHjkb9tFdF00-1">
          <mxGeometry x="565" y="699" width="60" height="60" as="geometry" />
        </mxCell>
        <mxCell id="tOF5P0khcTUz8FQ9X9L1-7" value="&lt;font style=&quot;font-size: 20px;&quot;&gt;3&lt;/font&gt;" style="text;html=1;align=center;verticalAlign=middle;whiteSpace=wrap;rounded=0;" vertex="1" parent="jyxrAdpHVHjkb9tFdF00-1">
          <mxGeometry x="565" y="699" width="60" height="60" as="geometry" />
        </mxCell>
        <mxCell id="tOF5P0khcTUz8FQ9X9L1-8" value="" style="endArrow=classic;html=1;rounded=0;" edge="1" parent="jyxrAdpHVHjkb9tFdF00-1">
          <mxGeometry width="50" height="50" relative="1" as="geometry">
            <mxPoint x="645" y="729.5" as="sourcePoint" />
            <mxPoint x="695" y="729.5" as="targetPoint" />
          </mxGeometry>
        </mxCell>
        <mxCell id="tOF5P0khcTUz8FQ9X9L1-9" value="" style="whiteSpace=wrap;html=1;aspect=fixed;" vertex="1" parent="jyxrAdpHVHjkb9tFdF00-1">
          <mxGeometry x="715" y="699" width="60" height="60" as="geometry" />
        </mxCell>
        <mxCell id="tOF5P0khcTUz8FQ9X9L1-10" value="&lt;font style=&quot;font-size: 20px;&quot;&gt;2&lt;/font&gt;" style="text;html=1;align=center;verticalAlign=middle;whiteSpace=wrap;rounded=0;" vertex="1" parent="jyxrAdpHVHjkb9tFdF00-1">
          <mxGeometry x="715" y="699" width="60" height="60" as="geometry" />
        </mxCell>
        <mxCell id="tOF5P0khcTUz8FQ9X9L1-11" value="" style="endArrow=classic;html=1;rounded=0;" edge="1" parent="jyxrAdpHVHjkb9tFdF00-1">
          <mxGeometry width="50" height="50" relative="1" as="geometry">
            <mxPoint x="745" y="769" as="sourcePoint" />
            <mxPoint x="745" y="839" as="targetPoint" />
          </mxGeometry>
        </mxCell>
        <mxCell id="tOF5P0khcTUz8FQ9X9L1-12" value="" style="endArrow=none;html=1;rounded=0;" edge="1" parent="jyxrAdpHVHjkb9tFdF00-1">
          <mxGeometry width="50" height="50" relative="1" as="geometry">
            <mxPoint x="720" y="849" as="sourcePoint" />
            <mxPoint x="770" y="849" as="targetPoint" />
          </mxGeometry>
        </mxCell>
        <mxCell id="tOF5P0khcTUz8FQ9X9L1-13" value="" style="endArrow=none;html=1;rounded=0;" edge="1" parent="jyxrAdpHVHjkb9tFdF00-1">
          <mxGeometry width="50" height="50" relative="1" as="geometry">
            <mxPoint x="725" y="859" as="sourcePoint" />
            <mxPoint x="765" y="859" as="targetPoint" />
          </mxGeometry>
        </mxCell>
        <mxCell id="TO45E_P4zOyVVsoNsp10-0" value="" style="endArrow=classic;html=1;rounded=0;" edge="1" parent="jyxrAdpHVHjkb9tFdF00-1">
          <mxGeometry width="50" height="50" relative="1" as="geometry">
            <mxPoint x="90" y="735" as="sourcePoint" />
            <mxPoint x="160" y="735" as="targetPoint" />
          </mxGeometry>
        </mxCell>
        <mxCell id="TO45E_P4zOyVVsoNsp10-1" value="Aux" style="text;html=1;align=center;verticalAlign=middle;whiteSpace=wrap;rounded=0;" vertex="1" parent="jyxrAdpHVHjkb9tFdF00-1">
          <mxGeometry x="30" y="724" width="60" height="30" as="geometry" />
        </mxCell>
        <mxCell id="TO45E_P4zOyVVsoNsp10-2" value="" style="endArrow=classic;html=1;rounded=0;" edge="1" parent="jyxrAdpHVHjkb9tFdF00-1">
          <mxGeometry width="50" height="50" relative="1" as="geometry">
            <mxPoint x="485" y="725" as="sourcePoint" />
            <mxPoint x="555" y="725" as="targetPoint" />
          </mxGeometry>
        </mxCell>
        <mxCell id="TO45E_P4zOyVVsoNsp10-3" value="Aux" style="text;html=1;align=center;verticalAlign=middle;whiteSpace=wrap;rounded=0;" vertex="1" parent="jyxrAdpHVHjkb9tFdF00-1">
          <mxGeometry x="425" y="714" width="60" height="30" as="geometry" />
        </mxCell>
      </root>
    </mxGraphModel>
  </diagram>
  <diagram name="Etapa 4-5" id="cFfnmdk1kei1asI1_5mP">
    <mxGraphModel dx="1434" dy="750" grid="1" gridSize="10" guides="1" tooltips="1" connect="1" arrows="1" fold="1" page="1" pageScale="1" pageWidth="850" pageHeight="1100" math="0" shadow="0">
      <root>
        <mxCell id="co9D93VX88kNsYAik7qa-0" />
        <mxCell id="co9D93VX88kNsYAik7qa-1" parent="co9D93VX88kNsYAik7qa-0" />
        <mxCell id="co9D93VX88kNsYAik7qa-18" value="" style="rounded=0;whiteSpace=wrap;html=1;" vertex="1" parent="co9D93VX88kNsYAik7qa-1">
          <mxGeometry x="28" y="30" width="120" height="60" as="geometry" />
        </mxCell>
        <mxCell id="co9D93VX88kNsYAik7qa-19" value="&lt;div style=&quot;font-size: 20px;&quot;&gt;Etapa 4&lt;br&gt;&lt;/div&gt;" style="text;html=1;align=center;verticalAlign=middle;whiteSpace=wrap;rounded=0;" vertex="1" parent="co9D93VX88kNsYAik7qa-1">
          <mxGeometry x="28" y="30" width="120" height="60" as="geometry" />
        </mxCell>
        <mxCell id="co9D93VX88kNsYAik7qa-20" value="" style="rounded=0;whiteSpace=wrap;html=1;" vertex="1" parent="co9D93VX88kNsYAik7qa-1">
          <mxGeometry x="28" y="110" width="90" height="40" as="geometry" />
        </mxCell>
        <mxCell id="co9D93VX88kNsYAik7qa-21" value="4.2" style="text;html=1;align=center;verticalAlign=middle;whiteSpace=wrap;rounded=0;" vertex="1" parent="co9D93VX88kNsYAik7qa-1">
          <mxGeometry x="28" y="110" width="90" height="40" as="geometry" />
        </mxCell>
        <mxCell id="co9D93VX88kNsYAik7qa-34" value="" style="rounded=0;whiteSpace=wrap;html=1;" vertex="1" parent="co9D93VX88kNsYAik7qa-1">
          <mxGeometry x="458" y="110" width="90" height="40" as="geometry" />
        </mxCell>
        <mxCell id="co9D93VX88kNsYAik7qa-35" value="4.3" style="text;html=1;align=center;verticalAlign=middle;whiteSpace=wrap;rounded=0;" vertex="1" parent="co9D93VX88kNsYAik7qa-1">
          <mxGeometry x="458" y="110" width="90" height="40" as="geometry" />
        </mxCell>
        <mxCell id="co9D93VX88kNsYAik7qa-36" value="" style="endArrow=classic;html=1;rounded=0;exitX=0.5;exitY=1;exitDx=0;exitDy=0;" edge="1" parent="co9D93VX88kNsYAik7qa-1" source="co9D93VX88kNsYAik7qa-38">
          <mxGeometry width="50" height="50" relative="1" as="geometry">
            <mxPoint x="325" y="184" as="sourcePoint" />
            <mxPoint x="325" y="254" as="targetPoint" />
          </mxGeometry>
        </mxCell>
        <mxCell id="co9D93VX88kNsYAik7qa-37" value="" style="endArrow=classic;html=1;rounded=0;exitX=0.5;exitY=1;exitDx=0;exitDy=0;" edge="1" parent="co9D93VX88kNsYAik7qa-1" source="co9D93VX88kNsYAik7qa-39">
          <mxGeometry width="50" height="50" relative="1" as="geometry">
            <mxPoint x="365" y="183.5" as="sourcePoint" />
            <mxPoint x="365" y="254" as="targetPoint" />
          </mxGeometry>
        </mxCell>
        <mxCell id="co9D93VX88kNsYAik7qa-38" value="Inicio" style="text;html=1;align=center;verticalAlign=middle;whiteSpace=wrap;rounded=0;" vertex="1" parent="co9D93VX88kNsYAik7qa-1">
          <mxGeometry x="255" y="140" width="60" height="30" as="geometry" />
        </mxCell>
        <mxCell id="co9D93VX88kNsYAik7qa-39" value="Fim" style="text;html=1;align=center;verticalAlign=middle;whiteSpace=wrap;rounded=0;" vertex="1" parent="co9D93VX88kNsYAik7qa-1">
          <mxGeometry x="365" y="140" width="60" height="30" as="geometry" />
        </mxCell>
        <mxCell id="co9D93VX88kNsYAik7qa-40" value="" style="whiteSpace=wrap;html=1;aspect=fixed;" vertex="1" parent="co9D93VX88kNsYAik7qa-1">
          <mxGeometry x="165" y="259" width="60" height="60" as="geometry" />
        </mxCell>
        <mxCell id="co9D93VX88kNsYAik7qa-41" value="&lt;font style=&quot;font-size: 20px;&quot;&gt;3&lt;/font&gt;" style="text;html=1;align=center;verticalAlign=middle;whiteSpace=wrap;rounded=0;" vertex="1" parent="co9D93VX88kNsYAik7qa-1">
          <mxGeometry x="165" y="259" width="60" height="60" as="geometry" />
        </mxCell>
        <mxCell id="co9D93VX88kNsYAik7qa-42" value="" style="endArrow=classic;html=1;rounded=0;" edge="1" parent="co9D93VX88kNsYAik7qa-1">
          <mxGeometry width="50" height="50" relative="1" as="geometry">
            <mxPoint x="245" y="289.5" as="sourcePoint" />
            <mxPoint x="295" y="289.5" as="targetPoint" />
          </mxGeometry>
        </mxCell>
        <mxCell id="co9D93VX88kNsYAik7qa-43" value="" style="whiteSpace=wrap;html=1;aspect=fixed;" vertex="1" parent="co9D93VX88kNsYAik7qa-1">
          <mxGeometry x="315" y="259" width="60" height="60" as="geometry" />
        </mxCell>
        <mxCell id="co9D93VX88kNsYAik7qa-44" value="&lt;font style=&quot;font-size: 20px;&quot;&gt;2&lt;/font&gt;" style="text;html=1;align=center;verticalAlign=middle;whiteSpace=wrap;rounded=0;" vertex="1" parent="co9D93VX88kNsYAik7qa-1">
          <mxGeometry x="315" y="259" width="60" height="60" as="geometry" />
        </mxCell>
        <mxCell id="co9D93VX88kNsYAik7qa-45" value="" style="endArrow=classic;html=1;rounded=0;" edge="1" parent="co9D93VX88kNsYAik7qa-1">
          <mxGeometry width="50" height="50" relative="1" as="geometry">
            <mxPoint x="345" y="329" as="sourcePoint" />
            <mxPoint x="345" y="399" as="targetPoint" />
          </mxGeometry>
        </mxCell>
        <mxCell id="co9D93VX88kNsYAik7qa-46" value="" style="endArrow=none;html=1;rounded=0;" edge="1" parent="co9D93VX88kNsYAik7qa-1">
          <mxGeometry width="50" height="50" relative="1" as="geometry">
            <mxPoint x="320" y="409" as="sourcePoint" />
            <mxPoint x="370" y="409" as="targetPoint" />
          </mxGeometry>
        </mxCell>
        <mxCell id="co9D93VX88kNsYAik7qa-47" value="" style="endArrow=none;html=1;rounded=0;" edge="1" parent="co9D93VX88kNsYAik7qa-1">
          <mxGeometry width="50" height="50" relative="1" as="geometry">
            <mxPoint x="325" y="419" as="sourcePoint" />
            <mxPoint x="365" y="419" as="targetPoint" />
          </mxGeometry>
        </mxCell>
        <mxCell id="co9D93VX88kNsYAik7qa-50" value="" style="endArrow=classic;html=1;rounded=0;" edge="1" parent="co9D93VX88kNsYAik7qa-1">
          <mxGeometry width="50" height="50" relative="1" as="geometry">
            <mxPoint x="85" y="285" as="sourcePoint" />
            <mxPoint x="155" y="285" as="targetPoint" />
          </mxGeometry>
        </mxCell>
        <mxCell id="co9D93VX88kNsYAik7qa-51" value="Aux" style="text;html=1;align=center;verticalAlign=middle;whiteSpace=wrap;rounded=0;" vertex="1" parent="co9D93VX88kNsYAik7qa-1">
          <mxGeometry x="25" y="274" width="60" height="30" as="geometry" />
        </mxCell>
        <mxCell id="IDo2F18LqBYLQyzGSzdJ-0" value="" style="shape=cross;whiteSpace=wrap;html=1;direction=south;rotation=45;fillColor=#f8cecc;strokeColor=#b85450;" vertex="1" parent="co9D93VX88kNsYAik7qa-1">
          <mxGeometry x="154.9985424949238" y="248.9985424949238" width="80" height="80" as="geometry" />
        </mxCell>
        <mxCell id="IDo2F18LqBYLQyzGSzdJ-1" value="" style="endArrow=classic;html=1;rounded=0;exitX=0.5;exitY=1;exitDx=0;exitDy=0;" edge="1" parent="co9D93VX88kNsYAik7qa-1" source="IDo2F18LqBYLQyzGSzdJ-3">
          <mxGeometry width="50" height="50" relative="1" as="geometry">
            <mxPoint x="670" y="174" as="sourcePoint" />
            <mxPoint x="670" y="244" as="targetPoint" />
          </mxGeometry>
        </mxCell>
        <mxCell id="IDo2F18LqBYLQyzGSzdJ-2" value="" style="endArrow=classic;html=1;rounded=0;exitX=0.5;exitY=1;exitDx=0;exitDy=0;" edge="1" parent="co9D93VX88kNsYAik7qa-1" source="IDo2F18LqBYLQyzGSzdJ-4">
          <mxGeometry width="50" height="50" relative="1" as="geometry">
            <mxPoint x="710" y="173.5" as="sourcePoint" />
            <mxPoint x="710" y="244" as="targetPoint" />
          </mxGeometry>
        </mxCell>
        <mxCell id="IDo2F18LqBYLQyzGSzdJ-3" value="Inicio" style="text;html=1;align=center;verticalAlign=middle;whiteSpace=wrap;rounded=0;" vertex="1" parent="co9D93VX88kNsYAik7qa-1">
          <mxGeometry x="600" y="130" width="60" height="30" as="geometry" />
        </mxCell>
        <mxCell id="IDo2F18LqBYLQyzGSzdJ-4" value="Fim" style="text;html=1;align=center;verticalAlign=middle;whiteSpace=wrap;rounded=0;" vertex="1" parent="co9D93VX88kNsYAik7qa-1">
          <mxGeometry x="710" y="130" width="60" height="30" as="geometry" />
        </mxCell>
        <mxCell id="IDo2F18LqBYLQyzGSzdJ-6" value="" style="whiteSpace=wrap;html=1;aspect=fixed;" vertex="1" parent="co9D93VX88kNsYAik7qa-1">
          <mxGeometry x="660" y="249" width="60" height="60" as="geometry" />
        </mxCell>
        <mxCell id="IDo2F18LqBYLQyzGSzdJ-7" value="&lt;font style=&quot;font-size: 20px;&quot;&gt;2&lt;/font&gt;" style="text;html=1;align=center;verticalAlign=middle;whiteSpace=wrap;rounded=0;" vertex="1" parent="co9D93VX88kNsYAik7qa-1">
          <mxGeometry x="660" y="249" width="60" height="60" as="geometry" />
        </mxCell>
        <mxCell id="IDo2F18LqBYLQyzGSzdJ-8" value="" style="endArrow=classic;html=1;rounded=0;" edge="1" parent="co9D93VX88kNsYAik7qa-1">
          <mxGeometry width="50" height="50" relative="1" as="geometry">
            <mxPoint x="690" y="319" as="sourcePoint" />
            <mxPoint x="690" y="389" as="targetPoint" />
          </mxGeometry>
        </mxCell>
        <mxCell id="IDo2F18LqBYLQyzGSzdJ-9" value="" style="endArrow=none;html=1;rounded=0;" edge="1" parent="co9D93VX88kNsYAik7qa-1">
          <mxGeometry width="50" height="50" relative="1" as="geometry">
            <mxPoint x="665" y="399" as="sourcePoint" />
            <mxPoint x="715" y="399" as="targetPoint" />
          </mxGeometry>
        </mxCell>
        <mxCell id="IDo2F18LqBYLQyzGSzdJ-10" value="" style="endArrow=none;html=1;rounded=0;" edge="1" parent="co9D93VX88kNsYAik7qa-1">
          <mxGeometry width="50" height="50" relative="1" as="geometry">
            <mxPoint x="670" y="409" as="sourcePoint" />
            <mxPoint x="710" y="409" as="targetPoint" />
          </mxGeometry>
        </mxCell>
        <mxCell id="Rl3Camn3kfKMhpIkDjNh-0" value="" style="rounded=0;whiteSpace=wrap;html=1;" vertex="1" parent="co9D93VX88kNsYAik7qa-1">
          <mxGeometry x="28" y="490" width="120" height="60" as="geometry" />
        </mxCell>
        <mxCell id="Rl3Camn3kfKMhpIkDjNh-1" value="&lt;div style=&quot;font-size: 20px;&quot;&gt;Etapa 5&lt;br&gt;&lt;/div&gt;" style="text;html=1;align=center;verticalAlign=middle;whiteSpace=wrap;rounded=0;" vertex="1" parent="co9D93VX88kNsYAik7qa-1">
          <mxGeometry x="28" y="490" width="120" height="60" as="geometry" />
        </mxCell>
        <mxCell id="Rl3Camn3kfKMhpIkDjNh-2" value="" style="endArrow=classic;html=1;rounded=0;exitX=0.5;exitY=1;exitDx=0;exitDy=0;" edge="1" parent="co9D93VX88kNsYAik7qa-1" source="Rl3Camn3kfKMhpIkDjNh-4">
          <mxGeometry width="50" height="50" relative="1" as="geometry">
            <mxPoint x="140" y="654" as="sourcePoint" />
            <mxPoint x="140" y="724" as="targetPoint" />
          </mxGeometry>
        </mxCell>
        <mxCell id="Rl3Camn3kfKMhpIkDjNh-3" value="" style="endArrow=classic;html=1;rounded=0;exitX=0.5;exitY=1;exitDx=0;exitDy=0;" edge="1" parent="co9D93VX88kNsYAik7qa-1" source="Rl3Camn3kfKMhpIkDjNh-5">
          <mxGeometry width="50" height="50" relative="1" as="geometry">
            <mxPoint x="180" y="653.5" as="sourcePoint" />
            <mxPoint x="180" y="724" as="targetPoint" />
          </mxGeometry>
        </mxCell>
        <mxCell id="Rl3Camn3kfKMhpIkDjNh-4" value="Inicio" style="text;html=1;align=center;verticalAlign=middle;whiteSpace=wrap;rounded=0;" vertex="1" parent="co9D93VX88kNsYAik7qa-1">
          <mxGeometry x="70" y="610" width="60" height="30" as="geometry" />
        </mxCell>
        <mxCell id="Rl3Camn3kfKMhpIkDjNh-5" value="Fim" style="text;html=1;align=center;verticalAlign=middle;whiteSpace=wrap;rounded=0;" vertex="1" parent="co9D93VX88kNsYAik7qa-1">
          <mxGeometry x="180" y="610" width="60" height="30" as="geometry" />
        </mxCell>
        <mxCell id="Rl3Camn3kfKMhpIkDjNh-6" value="" style="whiteSpace=wrap;html=1;aspect=fixed;" vertex="1" parent="co9D93VX88kNsYAik7qa-1">
          <mxGeometry x="130" y="729" width="60" height="60" as="geometry" />
        </mxCell>
        <mxCell id="Rl3Camn3kfKMhpIkDjNh-7" value="&lt;font style=&quot;font-size: 20px;&quot;&gt;2&lt;/font&gt;" style="text;html=1;align=center;verticalAlign=middle;whiteSpace=wrap;rounded=0;" vertex="1" parent="co9D93VX88kNsYAik7qa-1">
          <mxGeometry x="130" y="729" width="60" height="60" as="geometry" />
        </mxCell>
        <mxCell id="Rl3Camn3kfKMhpIkDjNh-8" value="" style="endArrow=classic;html=1;rounded=0;" edge="1" parent="co9D93VX88kNsYAik7qa-1">
          <mxGeometry width="50" height="50" relative="1" as="geometry">
            <mxPoint x="160" y="799" as="sourcePoint" />
            <mxPoint x="160" y="869" as="targetPoint" />
          </mxGeometry>
        </mxCell>
        <mxCell id="Rl3Camn3kfKMhpIkDjNh-9" value="" style="endArrow=none;html=1;rounded=0;" edge="1" parent="co9D93VX88kNsYAik7qa-1">
          <mxGeometry width="50" height="50" relative="1" as="geometry">
            <mxPoint x="135" y="879" as="sourcePoint" />
            <mxPoint x="185" y="879" as="targetPoint" />
          </mxGeometry>
        </mxCell>
        <mxCell id="Rl3Camn3kfKMhpIkDjNh-10" value="" style="endArrow=none;html=1;rounded=0;" edge="1" parent="co9D93VX88kNsYAik7qa-1">
          <mxGeometry width="50" height="50" relative="1" as="geometry">
            <mxPoint x="140" y="889" as="sourcePoint" />
            <mxPoint x="180" y="889" as="targetPoint" />
          </mxGeometry>
        </mxCell>
        <mxCell id="Rl3Camn3kfKMhpIkDjNh-11" value="" style="rounded=0;whiteSpace=wrap;html=1;" vertex="1" parent="co9D93VX88kNsYAik7qa-1">
          <mxGeometry x="28" y="560" width="90" height="40" as="geometry" />
        </mxCell>
        <mxCell id="Rl3Camn3kfKMhpIkDjNh-12" value="5.0" style="text;html=1;align=center;verticalAlign=middle;whiteSpace=wrap;rounded=0;" vertex="1" parent="co9D93VX88kNsYAik7qa-1">
          <mxGeometry x="28" y="560" width="90" height="40" as="geometry" />
        </mxCell>
        <mxCell id="Rl3Camn3kfKMhpIkDjNh-13" value="" style="whiteSpace=wrap;html=1;aspect=fixed;" vertex="1" parent="co9D93VX88kNsYAik7qa-1">
          <mxGeometry x="240" y="729" width="60" height="60" as="geometry" />
        </mxCell>
        <mxCell id="Rl3Camn3kfKMhpIkDjNh-14" value="&lt;font style=&quot;font-size: 20px;&quot;&gt;12&lt;/font&gt;" style="text;html=1;align=center;verticalAlign=middle;whiteSpace=wrap;rounded=0;" vertex="1" parent="co9D93VX88kNsYAik7qa-1">
          <mxGeometry x="240" y="729" width="60" height="60" as="geometry" />
        </mxCell>
        <mxCell id="Rl3Camn3kfKMhpIkDjNh-15" value="" style="endArrow=classic;html=1;rounded=0;" edge="1" parent="co9D93VX88kNsYAik7qa-1">
          <mxGeometry width="50" height="50" relative="1" as="geometry">
            <mxPoint x="270" y="799" as="sourcePoint" />
            <mxPoint x="270" y="869" as="targetPoint" />
          </mxGeometry>
        </mxCell>
        <mxCell id="Rl3Camn3kfKMhpIkDjNh-16" value="" style="endArrow=none;html=1;rounded=0;" edge="1" parent="co9D93VX88kNsYAik7qa-1">
          <mxGeometry width="50" height="50" relative="1" as="geometry">
            <mxPoint x="245" y="879" as="sourcePoint" />
            <mxPoint x="295" y="879" as="targetPoint" />
          </mxGeometry>
        </mxCell>
        <mxCell id="Rl3Camn3kfKMhpIkDjNh-17" value="" style="endArrow=none;html=1;rounded=0;" edge="1" parent="co9D93VX88kNsYAik7qa-1">
          <mxGeometry width="50" height="50" relative="1" as="geometry">
            <mxPoint x="250" y="889" as="sourcePoint" />
            <mxPoint x="290" y="889" as="targetPoint" />
          </mxGeometry>
        </mxCell>
        <mxCell id="Rl3Camn3kfKMhpIkDjNh-18" value="" style="endArrow=classic;html=1;rounded=0;exitX=0.5;exitY=1;exitDx=0;exitDy=0;" edge="1" parent="co9D93VX88kNsYAik7qa-1" source="Rl3Camn3kfKMhpIkDjNh-20">
          <mxGeometry width="50" height="50" relative="1" as="geometry">
            <mxPoint x="479" y="654" as="sourcePoint" />
            <mxPoint x="479" y="724" as="targetPoint" />
          </mxGeometry>
        </mxCell>
        <mxCell id="Rl3Camn3kfKMhpIkDjNh-19" value="" style="endArrow=classic;html=1;rounded=0;exitX=0.5;exitY=1;exitDx=0;exitDy=0;" edge="1" parent="co9D93VX88kNsYAik7qa-1" source="Rl3Camn3kfKMhpIkDjNh-21">
          <mxGeometry width="50" height="50" relative="1" as="geometry">
            <mxPoint x="519" y="653.5" as="sourcePoint" />
            <mxPoint x="519" y="724" as="targetPoint" />
          </mxGeometry>
        </mxCell>
        <mxCell id="Rl3Camn3kfKMhpIkDjNh-20" value="Inicio" style="text;html=1;align=center;verticalAlign=middle;whiteSpace=wrap;rounded=0;" vertex="1" parent="co9D93VX88kNsYAik7qa-1">
          <mxGeometry x="409" y="610" width="60" height="30" as="geometry" />
        </mxCell>
        <mxCell id="Rl3Camn3kfKMhpIkDjNh-21" value="Fim" style="text;html=1;align=center;verticalAlign=middle;whiteSpace=wrap;rounded=0;" vertex="1" parent="co9D93VX88kNsYAik7qa-1">
          <mxGeometry x="519" y="610" width="60" height="30" as="geometry" />
        </mxCell>
        <mxCell id="Rl3Camn3kfKMhpIkDjNh-22" value="" style="whiteSpace=wrap;html=1;aspect=fixed;" vertex="1" parent="co9D93VX88kNsYAik7qa-1">
          <mxGeometry x="469" y="729" width="60" height="60" as="geometry" />
        </mxCell>
        <mxCell id="Rl3Camn3kfKMhpIkDjNh-23" value="&lt;font style=&quot;font-size: 20px;&quot;&gt;2&lt;/font&gt;" style="text;html=1;align=center;verticalAlign=middle;whiteSpace=wrap;rounded=0;" vertex="1" parent="co9D93VX88kNsYAik7qa-1">
          <mxGeometry x="469" y="729" width="60" height="60" as="geometry" />
        </mxCell>
        <mxCell id="Rl3Camn3kfKMhpIkDjNh-24" value="" style="endArrow=classic;html=1;rounded=0;" edge="1" parent="co9D93VX88kNsYAik7qa-1">
          <mxGeometry width="50" height="50" relative="1" as="geometry">
            <mxPoint x="548" y="760" as="sourcePoint" />
            <mxPoint x="630" y="760" as="targetPoint" />
          </mxGeometry>
        </mxCell>
        <mxCell id="Rl3Camn3kfKMhpIkDjNh-27" value="" style="rounded=0;whiteSpace=wrap;html=1;" vertex="1" parent="co9D93VX88kNsYAik7qa-1">
          <mxGeometry x="367" y="560" width="90" height="40" as="geometry" />
        </mxCell>
        <mxCell id="Rl3Camn3kfKMhpIkDjNh-28" value="5.1" style="text;html=1;align=center;verticalAlign=middle;whiteSpace=wrap;rounded=0;" vertex="1" parent="co9D93VX88kNsYAik7qa-1">
          <mxGeometry x="367" y="560" width="90" height="40" as="geometry" />
        </mxCell>
        <mxCell id="Rl3Camn3kfKMhpIkDjNh-29" value="" style="whiteSpace=wrap;html=1;aspect=fixed;" vertex="1" parent="co9D93VX88kNsYAik7qa-1">
          <mxGeometry x="650" y="729" width="60" height="60" as="geometry" />
        </mxCell>
        <mxCell id="Rl3Camn3kfKMhpIkDjNh-30" value="&lt;font style=&quot;font-size: 20px;&quot;&gt;12&lt;/font&gt;" style="text;html=1;align=center;verticalAlign=middle;whiteSpace=wrap;rounded=0;" vertex="1" parent="co9D93VX88kNsYAik7qa-1">
          <mxGeometry x="650" y="729" width="60" height="60" as="geometry" />
        </mxCell>
        <mxCell id="Rl3Camn3kfKMhpIkDjNh-31" value="" style="endArrow=classic;html=1;rounded=0;" edge="1" parent="co9D93VX88kNsYAik7qa-1">
          <mxGeometry width="50" height="50" relative="1" as="geometry">
            <mxPoint x="680" y="799" as="sourcePoint" />
            <mxPoint x="680" y="869" as="targetPoint" />
          </mxGeometry>
        </mxCell>
        <mxCell id="Rl3Camn3kfKMhpIkDjNh-32" value="" style="endArrow=none;html=1;rounded=0;" edge="1" parent="co9D93VX88kNsYAik7qa-1">
          <mxGeometry width="50" height="50" relative="1" as="geometry">
            <mxPoint x="655" y="879" as="sourcePoint" />
            <mxPoint x="705" y="879" as="targetPoint" />
          </mxGeometry>
        </mxCell>
        <mxCell id="Rl3Camn3kfKMhpIkDjNh-33" value="" style="endArrow=none;html=1;rounded=0;" edge="1" parent="co9D93VX88kNsYAik7qa-1">
          <mxGeometry width="50" height="50" relative="1" as="geometry">
            <mxPoint x="660" y="889" as="sourcePoint" />
            <mxPoint x="700" y="889" as="targetPoint" />
          </mxGeometry>
        </mxCell>
      </root>
    </mxGraphModel>
  </diagram>
  <diagram name="Etapa 5" id="ffAQYc-4wG055zs_Z71_">
    <mxGraphModel dx="1434" dy="750" grid="1" gridSize="10" guides="1" tooltips="1" connect="1" arrows="1" fold="1" page="1" pageScale="1" pageWidth="850" pageHeight="1100" math="0" shadow="0">
      <root>
        <mxCell id="tWxhmKknS-z-39Nv_uJR-0" />
        <mxCell id="tWxhmKknS-z-39Nv_uJR-1" parent="tWxhmKknS-z-39Nv_uJR-0" />
        <mxCell id="tWxhmKknS-z-39Nv_uJR-32" value="" style="rounded=0;whiteSpace=wrap;html=1;" vertex="1" parent="tWxhmKknS-z-39Nv_uJR-1">
          <mxGeometry x="28" y="20" width="120" height="60" as="geometry" />
        </mxCell>
        <mxCell id="tWxhmKknS-z-39Nv_uJR-33" value="&lt;div style=&quot;font-size: 20px;&quot;&gt;Etapa 5&lt;br&gt;&lt;/div&gt;" style="text;html=1;align=center;verticalAlign=middle;whiteSpace=wrap;rounded=0;" vertex="1" parent="tWxhmKknS-z-39Nv_uJR-1">
          <mxGeometry x="28" y="20" width="120" height="60" as="geometry" />
        </mxCell>
        <mxCell id="tWxhmKknS-z-39Nv_uJR-50" value="" style="endArrow=classic;html=1;rounded=0;exitX=0.5;exitY=1;exitDx=0;exitDy=0;" edge="1" parent="tWxhmKknS-z-39Nv_uJR-1" source="tWxhmKknS-z-39Nv_uJR-52">
          <mxGeometry width="50" height="50" relative="1" as="geometry">
            <mxPoint x="140" y="194" as="sourcePoint" />
            <mxPoint x="140" y="264" as="targetPoint" />
          </mxGeometry>
        </mxCell>
        <mxCell id="tWxhmKknS-z-39Nv_uJR-51" value="" style="endArrow=classic;html=1;rounded=0;exitX=0.5;exitY=1;exitDx=0;exitDy=0;" edge="1" parent="tWxhmKknS-z-39Nv_uJR-1" source="tWxhmKknS-z-39Nv_uJR-53">
          <mxGeometry width="50" height="50" relative="1" as="geometry">
            <mxPoint x="180" y="193.5" as="sourcePoint" />
            <mxPoint x="180" y="264" as="targetPoint" />
          </mxGeometry>
        </mxCell>
        <mxCell id="tWxhmKknS-z-39Nv_uJR-52" value="Inicio" style="text;html=1;align=center;verticalAlign=middle;whiteSpace=wrap;rounded=0;" vertex="1" parent="tWxhmKknS-z-39Nv_uJR-1">
          <mxGeometry x="70" y="150" width="60" height="30" as="geometry" />
        </mxCell>
        <mxCell id="tWxhmKknS-z-39Nv_uJR-53" value="Fim" style="text;html=1;align=center;verticalAlign=middle;whiteSpace=wrap;rounded=0;" vertex="1" parent="tWxhmKknS-z-39Nv_uJR-1">
          <mxGeometry x="180" y="150" width="60" height="30" as="geometry" />
        </mxCell>
        <mxCell id="tWxhmKknS-z-39Nv_uJR-54" value="" style="whiteSpace=wrap;html=1;aspect=fixed;" vertex="1" parent="tWxhmKknS-z-39Nv_uJR-1">
          <mxGeometry x="130" y="269" width="60" height="60" as="geometry" />
        </mxCell>
        <mxCell id="tWxhmKknS-z-39Nv_uJR-55" value="&lt;font style=&quot;font-size: 20px;&quot;&gt;2&lt;/font&gt;" style="text;html=1;align=center;verticalAlign=middle;whiteSpace=wrap;rounded=0;" vertex="1" parent="tWxhmKknS-z-39Nv_uJR-1">
          <mxGeometry x="130" y="269" width="60" height="60" as="geometry" />
        </mxCell>
        <mxCell id="tWxhmKknS-z-39Nv_uJR-56" value="" style="endArrow=classic;html=1;rounded=0;" edge="1" parent="tWxhmKknS-z-39Nv_uJR-1">
          <mxGeometry width="50" height="50" relative="1" as="geometry">
            <mxPoint x="209" y="300" as="sourcePoint" />
            <mxPoint x="291" y="300" as="targetPoint" />
          </mxGeometry>
        </mxCell>
        <mxCell id="tWxhmKknS-z-39Nv_uJR-57" value="" style="rounded=0;whiteSpace=wrap;html=1;" vertex="1" parent="tWxhmKknS-z-39Nv_uJR-1">
          <mxGeometry x="28" y="100" width="90" height="40" as="geometry" />
        </mxCell>
        <mxCell id="tWxhmKknS-z-39Nv_uJR-58" value="5.2" style="text;html=1;align=center;verticalAlign=middle;whiteSpace=wrap;rounded=0;" vertex="1" parent="tWxhmKknS-z-39Nv_uJR-1">
          <mxGeometry x="28" y="100" width="90" height="40" as="geometry" />
        </mxCell>
        <mxCell id="tWxhmKknS-z-39Nv_uJR-59" value="" style="whiteSpace=wrap;html=1;aspect=fixed;" vertex="1" parent="tWxhmKknS-z-39Nv_uJR-1">
          <mxGeometry x="311" y="269" width="60" height="60" as="geometry" />
        </mxCell>
        <mxCell id="tWxhmKknS-z-39Nv_uJR-60" value="&lt;font style=&quot;font-size: 20px;&quot;&gt;12&lt;/font&gt;" style="text;html=1;align=center;verticalAlign=middle;whiteSpace=wrap;rounded=0;" vertex="1" parent="tWxhmKknS-z-39Nv_uJR-1">
          <mxGeometry x="311" y="269" width="60" height="60" as="geometry" />
        </mxCell>
        <mxCell id="tWxhmKknS-z-39Nv_uJR-61" value="" style="endArrow=classic;html=1;rounded=0;" edge="1" parent="tWxhmKknS-z-39Nv_uJR-1">
          <mxGeometry width="50" height="50" relative="1" as="geometry">
            <mxPoint x="341" y="339" as="sourcePoint" />
            <mxPoint x="341" y="409" as="targetPoint" />
          </mxGeometry>
        </mxCell>
        <mxCell id="tWxhmKknS-z-39Nv_uJR-62" value="" style="endArrow=none;html=1;rounded=0;" edge="1" parent="tWxhmKknS-z-39Nv_uJR-1">
          <mxGeometry width="50" height="50" relative="1" as="geometry">
            <mxPoint x="316" y="419" as="sourcePoint" />
            <mxPoint x="366" y="419" as="targetPoint" />
          </mxGeometry>
        </mxCell>
        <mxCell id="tWxhmKknS-z-39Nv_uJR-63" value="" style="endArrow=none;html=1;rounded=0;" edge="1" parent="tWxhmKknS-z-39Nv_uJR-1">
          <mxGeometry width="50" height="50" relative="1" as="geometry">
            <mxPoint x="321" y="429" as="sourcePoint" />
            <mxPoint x="361" y="429" as="targetPoint" />
          </mxGeometry>
        </mxCell>
        <mxCell id="zuthKPLKpRVJIr3GoMiO-0" value="" style="endArrow=classic;html=1;rounded=0;exitX=0.5;exitY=1;exitDx=0;exitDy=0;" edge="1" parent="tWxhmKknS-z-39Nv_uJR-1" source="zuthKPLKpRVJIr3GoMiO-2">
          <mxGeometry width="50" height="50" relative="1" as="geometry">
            <mxPoint x="582" y="194" as="sourcePoint" />
            <mxPoint x="542" y="260" as="targetPoint" />
          </mxGeometry>
        </mxCell>
        <mxCell id="zuthKPLKpRVJIr3GoMiO-1" value="" style="endArrow=classic;html=1;rounded=0;exitX=0.5;exitY=1;exitDx=0;exitDy=0;" edge="1" parent="tWxhmKknS-z-39Nv_uJR-1" source="zuthKPLKpRVJIr3GoMiO-3">
          <mxGeometry width="50" height="50" relative="1" as="geometry">
            <mxPoint x="693" y="193.5" as="sourcePoint" />
            <mxPoint x="722" y="260" as="targetPoint" />
          </mxGeometry>
        </mxCell>
        <mxCell id="zuthKPLKpRVJIr3GoMiO-2" value="Inicio" style="text;html=1;align=center;verticalAlign=middle;whiteSpace=wrap;rounded=0;" vertex="1" parent="tWxhmKknS-z-39Nv_uJR-1">
          <mxGeometry x="512" y="150" width="60" height="30" as="geometry" />
        </mxCell>
        <mxCell id="zuthKPLKpRVJIr3GoMiO-3" value="Fim" style="text;html=1;align=center;verticalAlign=middle;whiteSpace=wrap;rounded=0;" vertex="1" parent="tWxhmKknS-z-39Nv_uJR-1">
          <mxGeometry x="693" y="150" width="58" height="30" as="geometry" />
        </mxCell>
        <mxCell id="zuthKPLKpRVJIr3GoMiO-4" value="" style="whiteSpace=wrap;html=1;aspect=fixed;" vertex="1" parent="tWxhmKknS-z-39Nv_uJR-1">
          <mxGeometry x="512" y="269" width="60" height="60" as="geometry" />
        </mxCell>
        <mxCell id="zuthKPLKpRVJIr3GoMiO-5" value="&lt;font style=&quot;font-size: 20px;&quot;&gt;2&lt;/font&gt;" style="text;html=1;align=center;verticalAlign=middle;whiteSpace=wrap;rounded=0;" vertex="1" parent="tWxhmKknS-z-39Nv_uJR-1">
          <mxGeometry x="512" y="269" width="60" height="60" as="geometry" />
        </mxCell>
        <mxCell id="zuthKPLKpRVJIr3GoMiO-6" value="" style="endArrow=classic;html=1;rounded=0;" edge="1" parent="tWxhmKknS-z-39Nv_uJR-1">
          <mxGeometry width="50" height="50" relative="1" as="geometry">
            <mxPoint x="591" y="300" as="sourcePoint" />
            <mxPoint x="673" y="300" as="targetPoint" />
          </mxGeometry>
        </mxCell>
        <mxCell id="zuthKPLKpRVJIr3GoMiO-7" value="" style="rounded=0;whiteSpace=wrap;html=1;" vertex="1" parent="tWxhmKknS-z-39Nv_uJR-1">
          <mxGeometry x="410" y="100" width="90" height="40" as="geometry" />
        </mxCell>
        <mxCell id="zuthKPLKpRVJIr3GoMiO-8" value="5.3" style="text;html=1;align=center;verticalAlign=middle;whiteSpace=wrap;rounded=0;" vertex="1" parent="tWxhmKknS-z-39Nv_uJR-1">
          <mxGeometry x="410" y="100" width="90" height="40" as="geometry" />
        </mxCell>
        <mxCell id="zuthKPLKpRVJIr3GoMiO-9" value="" style="whiteSpace=wrap;html=1;aspect=fixed;" vertex="1" parent="tWxhmKknS-z-39Nv_uJR-1">
          <mxGeometry x="693" y="269" width="60" height="60" as="geometry" />
        </mxCell>
        <mxCell id="zuthKPLKpRVJIr3GoMiO-10" value="&lt;font style=&quot;font-size: 20px;&quot;&gt;12&lt;/font&gt;" style="text;html=1;align=center;verticalAlign=middle;whiteSpace=wrap;rounded=0;" vertex="1" parent="tWxhmKknS-z-39Nv_uJR-1">
          <mxGeometry x="693" y="269" width="60" height="60" as="geometry" />
        </mxCell>
        <mxCell id="zuthKPLKpRVJIr3GoMiO-11" value="" style="endArrow=classic;html=1;rounded=0;" edge="1" parent="tWxhmKknS-z-39Nv_uJR-1">
          <mxGeometry width="50" height="50" relative="1" as="geometry">
            <mxPoint x="723" y="339" as="sourcePoint" />
            <mxPoint x="723" y="409" as="targetPoint" />
          </mxGeometry>
        </mxCell>
        <mxCell id="zuthKPLKpRVJIr3GoMiO-12" value="" style="endArrow=none;html=1;rounded=0;" edge="1" parent="tWxhmKknS-z-39Nv_uJR-1">
          <mxGeometry width="50" height="50" relative="1" as="geometry">
            <mxPoint x="698" y="419" as="sourcePoint" />
            <mxPoint x="748" y="419" as="targetPoint" />
          </mxGeometry>
        </mxCell>
        <mxCell id="zuthKPLKpRVJIr3GoMiO-13" value="" style="endArrow=none;html=1;rounded=0;" edge="1" parent="tWxhmKknS-z-39Nv_uJR-1">
          <mxGeometry width="50" height="50" relative="1" as="geometry">
            <mxPoint x="703" y="429" as="sourcePoint" />
            <mxPoint x="743" y="429" as="targetPoint" />
          </mxGeometry>
        </mxCell>
        <mxCell id="iScZH8IiRQsN_cA_TJLo-0" value="" style="endArrow=classic;html=1;rounded=0;exitX=0.5;exitY=1;exitDx=0;exitDy=0;" edge="1" parent="tWxhmKknS-z-39Nv_uJR-1" source="iScZH8IiRQsN_cA_TJLo-2">
          <mxGeometry width="50" height="50" relative="1" as="geometry">
            <mxPoint x="98" y="644" as="sourcePoint" />
            <mxPoint x="58" y="710" as="targetPoint" />
          </mxGeometry>
        </mxCell>
        <mxCell id="iScZH8IiRQsN_cA_TJLo-1" value="" style="endArrow=classic;html=1;rounded=0;exitX=0.5;exitY=1;exitDx=0;exitDy=0;" edge="1" parent="tWxhmKknS-z-39Nv_uJR-1" source="iScZH8IiRQsN_cA_TJLo-3">
          <mxGeometry width="50" height="50" relative="1" as="geometry">
            <mxPoint x="209" y="643.5" as="sourcePoint" />
            <mxPoint x="238" y="710" as="targetPoint" />
          </mxGeometry>
        </mxCell>
        <mxCell id="iScZH8IiRQsN_cA_TJLo-2" value="Inicio" style="text;html=1;align=center;verticalAlign=middle;whiteSpace=wrap;rounded=0;" vertex="1" parent="tWxhmKknS-z-39Nv_uJR-1">
          <mxGeometry x="28" y="600" width="60" height="30" as="geometry" />
        </mxCell>
        <mxCell id="iScZH8IiRQsN_cA_TJLo-3" value="Fim" style="text;html=1;align=center;verticalAlign=middle;whiteSpace=wrap;rounded=0;" vertex="1" parent="tWxhmKknS-z-39Nv_uJR-1">
          <mxGeometry x="209" y="600" width="58" height="30" as="geometry" />
        </mxCell>
        <mxCell id="iScZH8IiRQsN_cA_TJLo-4" value="" style="whiteSpace=wrap;html=1;aspect=fixed;" vertex="1" parent="tWxhmKknS-z-39Nv_uJR-1">
          <mxGeometry x="28" y="719" width="60" height="60" as="geometry" />
        </mxCell>
        <mxCell id="iScZH8IiRQsN_cA_TJLo-5" value="&lt;font style=&quot;font-size: 20px;&quot;&gt;2&lt;/font&gt;" style="text;html=1;align=center;verticalAlign=middle;whiteSpace=wrap;rounded=0;" vertex="1" parent="tWxhmKknS-z-39Nv_uJR-1">
          <mxGeometry x="28" y="719" width="60" height="60" as="geometry" />
        </mxCell>
        <mxCell id="iScZH8IiRQsN_cA_TJLo-6" value="" style="endArrow=classic;html=1;rounded=0;" edge="1" parent="tWxhmKknS-z-39Nv_uJR-1">
          <mxGeometry width="50" height="50" relative="1" as="geometry">
            <mxPoint x="107" y="750" as="sourcePoint" />
            <mxPoint x="189" y="750" as="targetPoint" />
          </mxGeometry>
        </mxCell>
        <mxCell id="iScZH8IiRQsN_cA_TJLo-7" value="" style="rounded=0;whiteSpace=wrap;html=1;" vertex="1" parent="tWxhmKknS-z-39Nv_uJR-1">
          <mxGeometry x="28" y="540" width="90" height="40" as="geometry" />
        </mxCell>
        <mxCell id="iScZH8IiRQsN_cA_TJLo-8" value="5.4" style="text;html=1;align=center;verticalAlign=middle;whiteSpace=wrap;rounded=0;" vertex="1" parent="tWxhmKknS-z-39Nv_uJR-1">
          <mxGeometry x="28" y="540" width="90" height="40" as="geometry" />
        </mxCell>
        <mxCell id="iScZH8IiRQsN_cA_TJLo-9" value="" style="whiteSpace=wrap;html=1;aspect=fixed;" vertex="1" parent="tWxhmKknS-z-39Nv_uJR-1">
          <mxGeometry x="209" y="719" width="60" height="60" as="geometry" />
        </mxCell>
        <mxCell id="iScZH8IiRQsN_cA_TJLo-10" value="&lt;font style=&quot;font-size: 20px;&quot;&gt;12&lt;/font&gt;" style="text;html=1;align=center;verticalAlign=middle;whiteSpace=wrap;rounded=0;" vertex="1" parent="tWxhmKknS-z-39Nv_uJR-1">
          <mxGeometry x="209" y="719" width="60" height="60" as="geometry" />
        </mxCell>
        <mxCell id="iScZH8IiRQsN_cA_TJLo-11" value="" style="endArrow=classic;html=1;rounded=0;" edge="1" parent="tWxhmKknS-z-39Nv_uJR-1">
          <mxGeometry width="50" height="50" relative="1" as="geometry">
            <mxPoint x="239" y="789" as="sourcePoint" />
            <mxPoint x="239" y="859" as="targetPoint" />
          </mxGeometry>
        </mxCell>
        <mxCell id="iScZH8IiRQsN_cA_TJLo-12" value="" style="endArrow=none;html=1;rounded=0;" edge="1" parent="tWxhmKknS-z-39Nv_uJR-1">
          <mxGeometry width="50" height="50" relative="1" as="geometry">
            <mxPoint x="214" y="869" as="sourcePoint" />
            <mxPoint x="264" y="869" as="targetPoint" />
          </mxGeometry>
        </mxCell>
        <mxCell id="iScZH8IiRQsN_cA_TJLo-13" value="" style="endArrow=none;html=1;rounded=0;" edge="1" parent="tWxhmKknS-z-39Nv_uJR-1">
          <mxGeometry width="50" height="50" relative="1" as="geometry">
            <mxPoint x="219" y="879" as="sourcePoint" />
            <mxPoint x="259" y="879" as="targetPoint" />
          </mxGeometry>
        </mxCell>
        <mxCell id="iScZH8IiRQsN_cA_TJLo-14" value="" style="whiteSpace=wrap;html=1;aspect=fixed;" vertex="1" parent="tWxhmKknS-z-39Nv_uJR-1">
          <mxGeometry x="321" y="719" width="60" height="60" as="geometry" />
        </mxCell>
        <mxCell id="iScZH8IiRQsN_cA_TJLo-15" value="&lt;font style=&quot;font-size: 20px;&quot;&gt;4&lt;/font&gt;" style="text;html=1;align=center;verticalAlign=middle;whiteSpace=wrap;rounded=0;" vertex="1" parent="tWxhmKknS-z-39Nv_uJR-1">
          <mxGeometry x="321" y="719" width="60" height="60" as="geometry" />
        </mxCell>
        <mxCell id="iScZH8IiRQsN_cA_TJLo-16" value="" style="endArrow=classic;html=1;rounded=0;" edge="1" parent="tWxhmKknS-z-39Nv_uJR-1">
          <mxGeometry width="50" height="50" relative="1" as="geometry">
            <mxPoint x="351" y="789" as="sourcePoint" />
            <mxPoint x="351" y="859" as="targetPoint" />
          </mxGeometry>
        </mxCell>
        <mxCell id="iScZH8IiRQsN_cA_TJLo-17" value="" style="endArrow=none;html=1;rounded=0;" edge="1" parent="tWxhmKknS-z-39Nv_uJR-1">
          <mxGeometry width="50" height="50" relative="1" as="geometry">
            <mxPoint x="326" y="869" as="sourcePoint" />
            <mxPoint x="376" y="869" as="targetPoint" />
          </mxGeometry>
        </mxCell>
        <mxCell id="iScZH8IiRQsN_cA_TJLo-18" value="" style="endArrow=none;html=1;rounded=0;" edge="1" parent="tWxhmKknS-z-39Nv_uJR-1">
          <mxGeometry width="50" height="50" relative="1" as="geometry">
            <mxPoint x="331" y="879" as="sourcePoint" />
            <mxPoint x="371" y="879" as="targetPoint" />
          </mxGeometry>
        </mxCell>
        <mxCell id="iScZH8IiRQsN_cA_TJLo-39" value="" style="endArrow=classic;html=1;rounded=0;exitX=0.5;exitY=1;exitDx=0;exitDy=0;" edge="1" parent="tWxhmKknS-z-39Nv_uJR-1" source="iScZH8IiRQsN_cA_TJLo-41">
          <mxGeometry width="50" height="50" relative="1" as="geometry">
            <mxPoint x="530" y="644" as="sourcePoint" />
            <mxPoint x="490" y="710" as="targetPoint" />
          </mxGeometry>
        </mxCell>
        <mxCell id="iScZH8IiRQsN_cA_TJLo-40" value="" style="endArrow=classic;html=1;rounded=0;exitX=0.5;exitY=1;exitDx=0;exitDy=0;" edge="1" parent="tWxhmKknS-z-39Nv_uJR-1" source="iScZH8IiRQsN_cA_TJLo-42">
          <mxGeometry width="50" height="50" relative="1" as="geometry">
            <mxPoint x="610" y="643.5" as="sourcePoint" />
            <mxPoint x="639" y="710" as="targetPoint" />
          </mxGeometry>
        </mxCell>
        <mxCell id="iScZH8IiRQsN_cA_TJLo-41" value="Inicio" style="text;html=1;align=center;verticalAlign=middle;whiteSpace=wrap;rounded=0;" vertex="1" parent="tWxhmKknS-z-39Nv_uJR-1">
          <mxGeometry x="460" y="600" width="60" height="30" as="geometry" />
        </mxCell>
        <mxCell id="iScZH8IiRQsN_cA_TJLo-42" value="Fim" style="text;html=1;align=center;verticalAlign=middle;whiteSpace=wrap;rounded=0;" vertex="1" parent="tWxhmKknS-z-39Nv_uJR-1">
          <mxGeometry x="610" y="600" width="58" height="30" as="geometry" />
        </mxCell>
        <mxCell id="iScZH8IiRQsN_cA_TJLo-43" value="" style="whiteSpace=wrap;html=1;aspect=fixed;" vertex="1" parent="tWxhmKknS-z-39Nv_uJR-1">
          <mxGeometry x="460" y="719" width="60" height="60" as="geometry" />
        </mxCell>
        <mxCell id="iScZH8IiRQsN_cA_TJLo-44" value="&lt;font style=&quot;font-size: 20px;&quot;&gt;2&lt;/font&gt;" style="text;html=1;align=center;verticalAlign=middle;whiteSpace=wrap;rounded=0;" vertex="1" parent="tWxhmKknS-z-39Nv_uJR-1">
          <mxGeometry x="460" y="719" width="60" height="60" as="geometry" />
        </mxCell>
        <mxCell id="iScZH8IiRQsN_cA_TJLo-45" value="" style="endArrow=classic;html=1;rounded=0;" edge="1" parent="tWxhmKknS-z-39Nv_uJR-1">
          <mxGeometry width="50" height="50" relative="1" as="geometry">
            <mxPoint x="539" y="750" as="sourcePoint" />
            <mxPoint x="590" y="750" as="targetPoint" />
          </mxGeometry>
        </mxCell>
        <mxCell id="iScZH8IiRQsN_cA_TJLo-46" value="" style="rounded=0;whiteSpace=wrap;html=1;" vertex="1" parent="tWxhmKknS-z-39Nv_uJR-1">
          <mxGeometry x="460" y="540" width="90" height="40" as="geometry" />
        </mxCell>
        <mxCell id="iScZH8IiRQsN_cA_TJLo-47" value="5.5" style="text;html=1;align=center;verticalAlign=middle;whiteSpace=wrap;rounded=0;" vertex="1" parent="tWxhmKknS-z-39Nv_uJR-1">
          <mxGeometry x="460" y="540" width="90" height="40" as="geometry" />
        </mxCell>
        <mxCell id="iScZH8IiRQsN_cA_TJLo-48" value="" style="whiteSpace=wrap;html=1;aspect=fixed;" vertex="1" parent="tWxhmKknS-z-39Nv_uJR-1">
          <mxGeometry x="610" y="719" width="60" height="60" as="geometry" />
        </mxCell>
        <mxCell id="iScZH8IiRQsN_cA_TJLo-49" value="&lt;font style=&quot;font-size: 20px;&quot;&gt;12&lt;/font&gt;" style="text;html=1;align=center;verticalAlign=middle;whiteSpace=wrap;rounded=0;" vertex="1" parent="tWxhmKknS-z-39Nv_uJR-1">
          <mxGeometry x="610" y="719" width="60" height="60" as="geometry" />
        </mxCell>
        <mxCell id="iScZH8IiRQsN_cA_TJLo-53" value="" style="whiteSpace=wrap;html=1;aspect=fixed;" vertex="1" parent="tWxhmKknS-z-39Nv_uJR-1">
          <mxGeometry x="753" y="719" width="60" height="60" as="geometry" />
        </mxCell>
        <mxCell id="iScZH8IiRQsN_cA_TJLo-54" value="&lt;font style=&quot;font-size: 20px;&quot;&gt;4&lt;/font&gt;" style="text;html=1;align=center;verticalAlign=middle;whiteSpace=wrap;rounded=0;" vertex="1" parent="tWxhmKknS-z-39Nv_uJR-1">
          <mxGeometry x="753" y="719" width="60" height="60" as="geometry" />
        </mxCell>
        <mxCell id="iScZH8IiRQsN_cA_TJLo-55" value="" style="endArrow=classic;html=1;rounded=0;" edge="1" parent="tWxhmKknS-z-39Nv_uJR-1">
          <mxGeometry width="50" height="50" relative="1" as="geometry">
            <mxPoint x="783" y="789" as="sourcePoint" />
            <mxPoint x="783" y="859" as="targetPoint" />
          </mxGeometry>
        </mxCell>
        <mxCell id="iScZH8IiRQsN_cA_TJLo-56" value="" style="endArrow=none;html=1;rounded=0;" edge="1" parent="tWxhmKknS-z-39Nv_uJR-1">
          <mxGeometry width="50" height="50" relative="1" as="geometry">
            <mxPoint x="758" y="869" as="sourcePoint" />
            <mxPoint x="808" y="869" as="targetPoint" />
          </mxGeometry>
        </mxCell>
        <mxCell id="iScZH8IiRQsN_cA_TJLo-57" value="" style="endArrow=none;html=1;rounded=0;" edge="1" parent="tWxhmKknS-z-39Nv_uJR-1">
          <mxGeometry width="50" height="50" relative="1" as="geometry">
            <mxPoint x="763" y="879" as="sourcePoint" />
            <mxPoint x="803" y="879" as="targetPoint" />
          </mxGeometry>
        </mxCell>
        <mxCell id="iScZH8IiRQsN_cA_TJLo-58" value="" style="endArrow=classic;html=1;rounded=0;" edge="1" parent="tWxhmKknS-z-39Nv_uJR-1">
          <mxGeometry width="50" height="50" relative="1" as="geometry">
            <mxPoint x="690" y="748.5" as="sourcePoint" />
            <mxPoint x="741" y="748.5" as="targetPoint" />
          </mxGeometry>
        </mxCell>
      </root>
    </mxGraphModel>
  </diagram>
  <diagram name="Etapa 5-6" id="-Sv7hJ0UdeccaE-cYG89">
    <mxGraphModel dx="1434" dy="750" grid="1" gridSize="10" guides="1" tooltips="1" connect="1" arrows="1" fold="1" page="1" pageScale="1" pageWidth="850" pageHeight="1100" math="0" shadow="0">
      <root>
        <mxCell id="kJqU-GPynRpW3giI0s3T-0" />
        <mxCell id="kJqU-GPynRpW3giI0s3T-1" parent="kJqU-GPynRpW3giI0s3T-0" />
        <mxCell id="kJqU-GPynRpW3giI0s3T-2" value="" style="rounded=0;whiteSpace=wrap;html=1;" vertex="1" parent="kJqU-GPynRpW3giI0s3T-1">
          <mxGeometry x="28" y="20" width="120" height="60" as="geometry" />
        </mxCell>
        <mxCell id="kJqU-GPynRpW3giI0s3T-3" value="&lt;div style=&quot;font-size: 20px;&quot;&gt;Etapa 5&lt;br&gt;&lt;/div&gt;" style="text;html=1;align=center;verticalAlign=middle;whiteSpace=wrap;rounded=0;" vertex="1" parent="kJqU-GPynRpW3giI0s3T-1">
          <mxGeometry x="28" y="20" width="120" height="60" as="geometry" />
        </mxCell>
        <mxCell id="kJqU-GPynRpW3giI0s3T-51" value="" style="endArrow=classic;html=1;rounded=0;exitX=0.5;exitY=1;exitDx=0;exitDy=0;" edge="1" parent="kJqU-GPynRpW3giI0s3T-1" source="kJqU-GPynRpW3giI0s3T-53">
          <mxGeometry width="50" height="50" relative="1" as="geometry">
            <mxPoint x="98" y="204" as="sourcePoint" />
            <mxPoint x="58" y="270" as="targetPoint" />
          </mxGeometry>
        </mxCell>
        <mxCell id="kJqU-GPynRpW3giI0s3T-52" value="" style="endArrow=classic;html=1;rounded=0;exitX=0.5;exitY=1;exitDx=0;exitDy=0;" edge="1" parent="kJqU-GPynRpW3giI0s3T-1" source="kJqU-GPynRpW3giI0s3T-54">
          <mxGeometry width="50" height="50" relative="1" as="geometry">
            <mxPoint x="321" y="203.5" as="sourcePoint" />
            <mxPoint x="350" y="270" as="targetPoint" />
          </mxGeometry>
        </mxCell>
        <mxCell id="kJqU-GPynRpW3giI0s3T-53" value="Inicio" style="text;html=1;align=center;verticalAlign=middle;whiteSpace=wrap;rounded=0;" vertex="1" parent="kJqU-GPynRpW3giI0s3T-1">
          <mxGeometry x="28" y="160" width="60" height="30" as="geometry" />
        </mxCell>
        <mxCell id="kJqU-GPynRpW3giI0s3T-54" value="Fim" style="text;html=1;align=center;verticalAlign=middle;whiteSpace=wrap;rounded=0;" vertex="1" parent="kJqU-GPynRpW3giI0s3T-1">
          <mxGeometry x="321" y="160" width="58" height="30" as="geometry" />
        </mxCell>
        <mxCell id="kJqU-GPynRpW3giI0s3T-55" value="" style="whiteSpace=wrap;html=1;aspect=fixed;" vertex="1" parent="kJqU-GPynRpW3giI0s3T-1">
          <mxGeometry x="28" y="279" width="60" height="60" as="geometry" />
        </mxCell>
        <mxCell id="kJqU-GPynRpW3giI0s3T-56" value="&lt;font style=&quot;font-size: 20px;&quot;&gt;2&lt;/font&gt;" style="text;html=1;align=center;verticalAlign=middle;whiteSpace=wrap;rounded=0;" vertex="1" parent="kJqU-GPynRpW3giI0s3T-1">
          <mxGeometry x="28" y="279" width="60" height="60" as="geometry" />
        </mxCell>
        <mxCell id="kJqU-GPynRpW3giI0s3T-57" value="" style="endArrow=classic;html=1;rounded=0;" edge="1" parent="kJqU-GPynRpW3giI0s3T-1">
          <mxGeometry width="50" height="50" relative="1" as="geometry">
            <mxPoint x="107" y="310" as="sourcePoint" />
            <mxPoint x="158" y="310" as="targetPoint" />
          </mxGeometry>
        </mxCell>
        <mxCell id="kJqU-GPynRpW3giI0s3T-58" value="" style="rounded=0;whiteSpace=wrap;html=1;" vertex="1" parent="kJqU-GPynRpW3giI0s3T-1">
          <mxGeometry x="28" y="100" width="90" height="40" as="geometry" />
        </mxCell>
        <mxCell id="kJqU-GPynRpW3giI0s3T-59" value="5.6" style="text;html=1;align=center;verticalAlign=middle;whiteSpace=wrap;rounded=0;" vertex="1" parent="kJqU-GPynRpW3giI0s3T-1">
          <mxGeometry x="28" y="100" width="90" height="40" as="geometry" />
        </mxCell>
        <mxCell id="kJqU-GPynRpW3giI0s3T-60" value="" style="whiteSpace=wrap;html=1;aspect=fixed;" vertex="1" parent="kJqU-GPynRpW3giI0s3T-1">
          <mxGeometry x="178" y="279" width="60" height="60" as="geometry" />
        </mxCell>
        <mxCell id="kJqU-GPynRpW3giI0s3T-61" value="&lt;font style=&quot;font-size: 20px;&quot;&gt;12&lt;/font&gt;" style="text;html=1;align=center;verticalAlign=middle;whiteSpace=wrap;rounded=0;" vertex="1" parent="kJqU-GPynRpW3giI0s3T-1">
          <mxGeometry x="178" y="279" width="60" height="60" as="geometry" />
        </mxCell>
        <mxCell id="kJqU-GPynRpW3giI0s3T-62" value="" style="whiteSpace=wrap;html=1;aspect=fixed;" vertex="1" parent="kJqU-GPynRpW3giI0s3T-1">
          <mxGeometry x="321" y="279" width="60" height="60" as="geometry" />
        </mxCell>
        <mxCell id="kJqU-GPynRpW3giI0s3T-63" value="&lt;font style=&quot;font-size: 20px;&quot;&gt;4&lt;/font&gt;" style="text;html=1;align=center;verticalAlign=middle;whiteSpace=wrap;rounded=0;" vertex="1" parent="kJqU-GPynRpW3giI0s3T-1">
          <mxGeometry x="321" y="279" width="60" height="60" as="geometry" />
        </mxCell>
        <mxCell id="kJqU-GPynRpW3giI0s3T-64" value="" style="endArrow=classic;html=1;rounded=0;" edge="1" parent="kJqU-GPynRpW3giI0s3T-1">
          <mxGeometry width="50" height="50" relative="1" as="geometry">
            <mxPoint x="351" y="349" as="sourcePoint" />
            <mxPoint x="351" y="419" as="targetPoint" />
          </mxGeometry>
        </mxCell>
        <mxCell id="kJqU-GPynRpW3giI0s3T-65" value="" style="endArrow=none;html=1;rounded=0;" edge="1" parent="kJqU-GPynRpW3giI0s3T-1">
          <mxGeometry width="50" height="50" relative="1" as="geometry">
            <mxPoint x="326" y="429" as="sourcePoint" />
            <mxPoint x="376" y="429" as="targetPoint" />
          </mxGeometry>
        </mxCell>
        <mxCell id="kJqU-GPynRpW3giI0s3T-66" value="" style="endArrow=none;html=1;rounded=0;" edge="1" parent="kJqU-GPynRpW3giI0s3T-1">
          <mxGeometry width="50" height="50" relative="1" as="geometry">
            <mxPoint x="331" y="439" as="sourcePoint" />
            <mxPoint x="371" y="439" as="targetPoint" />
          </mxGeometry>
        </mxCell>
        <mxCell id="kJqU-GPynRpW3giI0s3T-67" value="" style="endArrow=classic;html=1;rounded=0;" edge="1" parent="kJqU-GPynRpW3giI0s3T-1">
          <mxGeometry width="50" height="50" relative="1" as="geometry">
            <mxPoint x="258" y="308.5" as="sourcePoint" />
            <mxPoint x="309" y="308.5" as="targetPoint" />
          </mxGeometry>
        </mxCell>
        <mxCell id="xpIZ8VqjTXBmMDQBOcw--0" value="" style="rounded=0;whiteSpace=wrap;html=1;" vertex="1" parent="kJqU-GPynRpW3giI0s3T-1">
          <mxGeometry x="28" y="530" width="120" height="60" as="geometry" />
        </mxCell>
        <mxCell id="xpIZ8VqjTXBmMDQBOcw--1" value="&lt;div style=&quot;font-size: 20px;&quot;&gt;Etapa 6&lt;br&gt;&lt;/div&gt;" style="text;html=1;align=center;verticalAlign=middle;whiteSpace=wrap;rounded=0;" vertex="1" parent="kJqU-GPynRpW3giI0s3T-1">
          <mxGeometry x="28" y="530" width="120" height="60" as="geometry" />
        </mxCell>
        <mxCell id="xpIZ8VqjTXBmMDQBOcw--2" value="" style="endArrow=classic;html=1;rounded=0;exitX=0.5;exitY=1;exitDx=0;exitDy=0;" edge="1" parent="kJqU-GPynRpW3giI0s3T-1" source="xpIZ8VqjTXBmMDQBOcw--4">
          <mxGeometry width="50" height="50" relative="1" as="geometry">
            <mxPoint x="243.5" y="724" as="sourcePoint" />
            <mxPoint x="203.5" y="790" as="targetPoint" />
          </mxGeometry>
        </mxCell>
        <mxCell id="xpIZ8VqjTXBmMDQBOcw--3" value="" style="endArrow=classic;html=1;rounded=0;exitX=0.5;exitY=1;exitDx=0;exitDy=0;" edge="1" parent="kJqU-GPynRpW3giI0s3T-1" source="xpIZ8VqjTXBmMDQBOcw--5">
          <mxGeometry width="50" height="50" relative="1" as="geometry">
            <mxPoint x="466.5" y="723.5" as="sourcePoint" />
            <mxPoint x="495.5" y="790" as="targetPoint" />
          </mxGeometry>
        </mxCell>
        <mxCell id="xpIZ8VqjTXBmMDQBOcw--4" value="Inicio" style="text;html=1;align=center;verticalAlign=middle;whiteSpace=wrap;rounded=0;" vertex="1" parent="kJqU-GPynRpW3giI0s3T-1">
          <mxGeometry x="173.5" y="680" width="60" height="30" as="geometry" />
        </mxCell>
        <mxCell id="xpIZ8VqjTXBmMDQBOcw--5" value="Fim" style="text;html=1;align=center;verticalAlign=middle;whiteSpace=wrap;rounded=0;" vertex="1" parent="kJqU-GPynRpW3giI0s3T-1">
          <mxGeometry x="466.5" y="680" width="58" height="30" as="geometry" />
        </mxCell>
        <mxCell id="xpIZ8VqjTXBmMDQBOcw--6" value="" style="whiteSpace=wrap;html=1;aspect=fixed;" vertex="1" parent="kJqU-GPynRpW3giI0s3T-1">
          <mxGeometry x="173.5" y="799" width="60" height="60" as="geometry" />
        </mxCell>
        <mxCell id="xpIZ8VqjTXBmMDQBOcw--7" value="&lt;font style=&quot;font-size: 20px;&quot;&gt;2&lt;/font&gt;" style="text;html=1;align=center;verticalAlign=middle;whiteSpace=wrap;rounded=0;" vertex="1" parent="kJqU-GPynRpW3giI0s3T-1">
          <mxGeometry x="173.5" y="799" width="60" height="60" as="geometry" />
        </mxCell>
        <mxCell id="xpIZ8VqjTXBmMDQBOcw--8" value="" style="endArrow=classic;html=1;rounded=0;" edge="1" parent="kJqU-GPynRpW3giI0s3T-1">
          <mxGeometry width="50" height="50" relative="1" as="geometry">
            <mxPoint x="252.5" y="830" as="sourcePoint" />
            <mxPoint x="303.5" y="830" as="targetPoint" />
          </mxGeometry>
        </mxCell>
        <mxCell id="xpIZ8VqjTXBmMDQBOcw--9" value="" style="rounded=0;whiteSpace=wrap;html=1;" vertex="1" parent="kJqU-GPynRpW3giI0s3T-1">
          <mxGeometry x="28" y="610" width="90" height="40" as="geometry" />
        </mxCell>
        <mxCell id="xpIZ8VqjTXBmMDQBOcw--10" value="6.0" style="text;html=1;align=center;verticalAlign=middle;whiteSpace=wrap;rounded=0;" vertex="1" parent="kJqU-GPynRpW3giI0s3T-1">
          <mxGeometry x="28" y="610" width="90" height="40" as="geometry" />
        </mxCell>
        <mxCell id="xpIZ8VqjTXBmMDQBOcw--11" value="" style="whiteSpace=wrap;html=1;aspect=fixed;" vertex="1" parent="kJqU-GPynRpW3giI0s3T-1">
          <mxGeometry x="323.5" y="799" width="60" height="60" as="geometry" />
        </mxCell>
        <mxCell id="xpIZ8VqjTXBmMDQBOcw--12" value="&lt;font style=&quot;font-size: 20px;&quot;&gt;12&lt;/font&gt;" style="text;html=1;align=center;verticalAlign=middle;whiteSpace=wrap;rounded=0;" vertex="1" parent="kJqU-GPynRpW3giI0s3T-1">
          <mxGeometry x="323.5" y="799" width="60" height="60" as="geometry" />
        </mxCell>
        <mxCell id="xpIZ8VqjTXBmMDQBOcw--13" value="" style="whiteSpace=wrap;html=1;aspect=fixed;" vertex="1" parent="kJqU-GPynRpW3giI0s3T-1">
          <mxGeometry x="466.5" y="799" width="60" height="60" as="geometry" />
        </mxCell>
        <mxCell id="xpIZ8VqjTXBmMDQBOcw--14" value="&lt;font style=&quot;font-size: 20px;&quot;&gt;4&lt;/font&gt;" style="text;html=1;align=center;verticalAlign=middle;whiteSpace=wrap;rounded=0;" vertex="1" parent="kJqU-GPynRpW3giI0s3T-1">
          <mxGeometry x="466.5" y="799" width="60" height="60" as="geometry" />
        </mxCell>
        <mxCell id="xpIZ8VqjTXBmMDQBOcw--15" value="" style="endArrow=classic;html=1;rounded=0;" edge="1" parent="kJqU-GPynRpW3giI0s3T-1">
          <mxGeometry width="50" height="50" relative="1" as="geometry">
            <mxPoint x="496.5" y="869" as="sourcePoint" />
            <mxPoint x="496.5" y="939" as="targetPoint" />
          </mxGeometry>
        </mxCell>
        <mxCell id="xpIZ8VqjTXBmMDQBOcw--16" value="" style="endArrow=none;html=1;rounded=0;" edge="1" parent="kJqU-GPynRpW3giI0s3T-1">
          <mxGeometry width="50" height="50" relative="1" as="geometry">
            <mxPoint x="471.5" y="949" as="sourcePoint" />
            <mxPoint x="521.5" y="949" as="targetPoint" />
          </mxGeometry>
        </mxCell>
        <mxCell id="xpIZ8VqjTXBmMDQBOcw--17" value="" style="endArrow=none;html=1;rounded=0;" edge="1" parent="kJqU-GPynRpW3giI0s3T-1">
          <mxGeometry width="50" height="50" relative="1" as="geometry">
            <mxPoint x="476.5" y="959" as="sourcePoint" />
            <mxPoint x="516.5" y="959" as="targetPoint" />
          </mxGeometry>
        </mxCell>
        <mxCell id="xpIZ8VqjTXBmMDQBOcw--18" value="" style="endArrow=classic;html=1;rounded=0;" edge="1" parent="kJqU-GPynRpW3giI0s3T-1">
          <mxGeometry width="50" height="50" relative="1" as="geometry">
            <mxPoint x="403.5" y="828.5" as="sourcePoint" />
            <mxPoint x="454.5" y="828.5" as="targetPoint" />
          </mxGeometry>
        </mxCell>
        <mxCell id="qJECfglhC80h9zd270nJ-0" value="" style="endArrow=classic;html=1;rounded=0;" edge="1" parent="kJqU-GPynRpW3giI0s3T-1">
          <mxGeometry width="50" height="50" relative="1" as="geometry">
            <mxPoint x="88" y="825" as="sourcePoint" />
            <mxPoint x="158" y="825" as="targetPoint" />
          </mxGeometry>
        </mxCell>
        <mxCell id="qJECfglhC80h9zd270nJ-1" value="Aux" style="text;html=1;align=center;verticalAlign=middle;whiteSpace=wrap;rounded=0;" vertex="1" parent="kJqU-GPynRpW3giI0s3T-1">
          <mxGeometry x="28" y="814" width="60" height="30" as="geometry" />
        </mxCell>
      </root>
    </mxGraphModel>
  </diagram>
  <diagram name="Etapa 6" id="wKkFst4nTEs9rT4jR-Gx">
    <mxGraphModel dx="1434" dy="750" grid="1" gridSize="10" guides="1" tooltips="1" connect="1" arrows="1" fold="1" page="1" pageScale="1" pageWidth="850" pageHeight="1100" math="0" shadow="0">
      <root>
        <mxCell id="YoyKi8F_KK8ZLQ4NTWcx-0" />
        <mxCell id="YoyKi8F_KK8ZLQ4NTWcx-1" parent="YoyKi8F_KK8ZLQ4NTWcx-0" />
        <mxCell id="YoyKi8F_KK8ZLQ4NTWcx-21" value="" style="rounded=0;whiteSpace=wrap;html=1;" vertex="1" parent="YoyKi8F_KK8ZLQ4NTWcx-1">
          <mxGeometry x="28" y="30" width="120" height="60" as="geometry" />
        </mxCell>
        <mxCell id="YoyKi8F_KK8ZLQ4NTWcx-22" value="&lt;div style=&quot;font-size: 20px;&quot;&gt;Etapa 6&lt;br&gt;&lt;/div&gt;" style="text;html=1;align=center;verticalAlign=middle;whiteSpace=wrap;rounded=0;" vertex="1" parent="YoyKi8F_KK8ZLQ4NTWcx-1">
          <mxGeometry x="28" y="30" width="120" height="60" as="geometry" />
        </mxCell>
        <mxCell id="YoyKi8F_KK8ZLQ4NTWcx-23" value="" style="endArrow=classic;html=1;rounded=0;exitX=0.5;exitY=1;exitDx=0;exitDy=0;" edge="1" parent="YoyKi8F_KK8ZLQ4NTWcx-1" source="YoyKi8F_KK8ZLQ4NTWcx-25">
          <mxGeometry width="50" height="50" relative="1" as="geometry">
            <mxPoint x="393.5" y="224" as="sourcePoint" />
            <mxPoint x="353.5" y="290" as="targetPoint" />
          </mxGeometry>
        </mxCell>
        <mxCell id="YoyKi8F_KK8ZLQ4NTWcx-24" value="" style="endArrow=classic;html=1;rounded=0;exitX=0.5;exitY=1;exitDx=0;exitDy=0;" edge="1" parent="YoyKi8F_KK8ZLQ4NTWcx-1" source="YoyKi8F_KK8ZLQ4NTWcx-26">
          <mxGeometry width="50" height="50" relative="1" as="geometry">
            <mxPoint x="466.5" y="223.5" as="sourcePoint" />
            <mxPoint x="495.5" y="290" as="targetPoint" />
          </mxGeometry>
        </mxCell>
        <mxCell id="YoyKi8F_KK8ZLQ4NTWcx-25" value="Inicio" style="text;html=1;align=center;verticalAlign=middle;whiteSpace=wrap;rounded=0;" vertex="1" parent="YoyKi8F_KK8ZLQ4NTWcx-1">
          <mxGeometry x="323.5" y="180" width="60" height="30" as="geometry" />
        </mxCell>
        <mxCell id="YoyKi8F_KK8ZLQ4NTWcx-26" value="Fim" style="text;html=1;align=center;verticalAlign=middle;whiteSpace=wrap;rounded=0;" vertex="1" parent="YoyKi8F_KK8ZLQ4NTWcx-1">
          <mxGeometry x="466.5" y="180" width="58" height="30" as="geometry" />
        </mxCell>
        <mxCell id="YoyKi8F_KK8ZLQ4NTWcx-27" value="" style="whiteSpace=wrap;html=1;aspect=fixed;" vertex="1" parent="YoyKi8F_KK8ZLQ4NTWcx-1">
          <mxGeometry x="173.5" y="299" width="60" height="60" as="geometry" />
        </mxCell>
        <mxCell id="YoyKi8F_KK8ZLQ4NTWcx-28" value="&lt;font style=&quot;font-size: 20px;&quot;&gt;2&lt;/font&gt;" style="text;html=1;align=center;verticalAlign=middle;whiteSpace=wrap;rounded=0;" vertex="1" parent="YoyKi8F_KK8ZLQ4NTWcx-1">
          <mxGeometry x="173.5" y="299" width="60" height="60" as="geometry" />
        </mxCell>
        <mxCell id="YoyKi8F_KK8ZLQ4NTWcx-29" value="" style="endArrow=classic;html=1;rounded=0;" edge="1" parent="YoyKi8F_KK8ZLQ4NTWcx-1">
          <mxGeometry width="50" height="50" relative="1" as="geometry">
            <mxPoint x="252.5" y="330" as="sourcePoint" />
            <mxPoint x="303.5" y="330" as="targetPoint" />
          </mxGeometry>
        </mxCell>
        <mxCell id="YoyKi8F_KK8ZLQ4NTWcx-30" value="" style="rounded=0;whiteSpace=wrap;html=1;" vertex="1" parent="YoyKi8F_KK8ZLQ4NTWcx-1">
          <mxGeometry x="28" y="110" width="90" height="40" as="geometry" />
        </mxCell>
        <mxCell id="YoyKi8F_KK8ZLQ4NTWcx-31" value="6.1" style="text;html=1;align=center;verticalAlign=middle;whiteSpace=wrap;rounded=0;" vertex="1" parent="YoyKi8F_KK8ZLQ4NTWcx-1">
          <mxGeometry x="28" y="110" width="90" height="40" as="geometry" />
        </mxCell>
        <mxCell id="YoyKi8F_KK8ZLQ4NTWcx-32" value="" style="whiteSpace=wrap;html=1;aspect=fixed;" vertex="1" parent="YoyKi8F_KK8ZLQ4NTWcx-1">
          <mxGeometry x="323.5" y="299" width="60" height="60" as="geometry" />
        </mxCell>
        <mxCell id="YoyKi8F_KK8ZLQ4NTWcx-33" value="&lt;font style=&quot;font-size: 20px;&quot;&gt;12&lt;/font&gt;" style="text;html=1;align=center;verticalAlign=middle;whiteSpace=wrap;rounded=0;" vertex="1" parent="YoyKi8F_KK8ZLQ4NTWcx-1">
          <mxGeometry x="323.5" y="299" width="60" height="60" as="geometry" />
        </mxCell>
        <mxCell id="YoyKi8F_KK8ZLQ4NTWcx-34" value="" style="whiteSpace=wrap;html=1;aspect=fixed;" vertex="1" parent="YoyKi8F_KK8ZLQ4NTWcx-1">
          <mxGeometry x="466.5" y="299" width="60" height="60" as="geometry" />
        </mxCell>
        <mxCell id="YoyKi8F_KK8ZLQ4NTWcx-35" value="&lt;font style=&quot;font-size: 20px;&quot;&gt;4&lt;/font&gt;" style="text;html=1;align=center;verticalAlign=middle;whiteSpace=wrap;rounded=0;" vertex="1" parent="YoyKi8F_KK8ZLQ4NTWcx-1">
          <mxGeometry x="466.5" y="299" width="60" height="60" as="geometry" />
        </mxCell>
        <mxCell id="YoyKi8F_KK8ZLQ4NTWcx-36" value="" style="endArrow=classic;html=1;rounded=0;" edge="1" parent="YoyKi8F_KK8ZLQ4NTWcx-1">
          <mxGeometry width="50" height="50" relative="1" as="geometry">
            <mxPoint x="496.5" y="369" as="sourcePoint" />
            <mxPoint x="496.5" y="439" as="targetPoint" />
          </mxGeometry>
        </mxCell>
        <mxCell id="YoyKi8F_KK8ZLQ4NTWcx-37" value="" style="endArrow=none;html=1;rounded=0;" edge="1" parent="YoyKi8F_KK8ZLQ4NTWcx-1">
          <mxGeometry width="50" height="50" relative="1" as="geometry">
            <mxPoint x="471.5" y="449" as="sourcePoint" />
            <mxPoint x="521.5" y="449" as="targetPoint" />
          </mxGeometry>
        </mxCell>
        <mxCell id="YoyKi8F_KK8ZLQ4NTWcx-38" value="" style="endArrow=none;html=1;rounded=0;" edge="1" parent="YoyKi8F_KK8ZLQ4NTWcx-1">
          <mxGeometry width="50" height="50" relative="1" as="geometry">
            <mxPoint x="476.5" y="459" as="sourcePoint" />
            <mxPoint x="516.5" y="459" as="targetPoint" />
          </mxGeometry>
        </mxCell>
        <mxCell id="YoyKi8F_KK8ZLQ4NTWcx-39" value="" style="endArrow=classic;html=1;rounded=0;" edge="1" parent="YoyKi8F_KK8ZLQ4NTWcx-1">
          <mxGeometry width="50" height="50" relative="1" as="geometry">
            <mxPoint x="403.5" y="328.5" as="sourcePoint" />
            <mxPoint x="454.5" y="328.5" as="targetPoint" />
          </mxGeometry>
        </mxCell>
        <mxCell id="YoyKi8F_KK8ZLQ4NTWcx-40" value="" style="endArrow=classic;html=1;rounded=0;" edge="1" parent="YoyKi8F_KK8ZLQ4NTWcx-1">
          <mxGeometry width="50" height="50" relative="1" as="geometry">
            <mxPoint x="88" y="325" as="sourcePoint" />
            <mxPoint x="158" y="325" as="targetPoint" />
          </mxGeometry>
        </mxCell>
        <mxCell id="YoyKi8F_KK8ZLQ4NTWcx-41" value="Aux" style="text;html=1;align=center;verticalAlign=middle;whiteSpace=wrap;rounded=0;" vertex="1" parent="YoyKi8F_KK8ZLQ4NTWcx-1">
          <mxGeometry x="28" y="314" width="60" height="30" as="geometry" />
        </mxCell>
        <mxCell id="SwTbmkhlQjPG7U7Xbu-n-0" value="" style="endArrow=classic;html=1;rounded=0;exitX=0.5;exitY=1;exitDx=0;exitDy=0;" edge="1" parent="YoyKi8F_KK8ZLQ4NTWcx-1" source="SwTbmkhlQjPG7U7Xbu-n-2">
          <mxGeometry width="50" height="50" relative="1" as="geometry">
            <mxPoint x="393.5" y="634" as="sourcePoint" />
            <mxPoint x="353.5" y="700" as="targetPoint" />
          </mxGeometry>
        </mxCell>
        <mxCell id="SwTbmkhlQjPG7U7Xbu-n-1" value="" style="endArrow=classic;html=1;rounded=0;exitX=0.5;exitY=1;exitDx=0;exitDy=0;" edge="1" parent="YoyKi8F_KK8ZLQ4NTWcx-1" source="SwTbmkhlQjPG7U7Xbu-n-3">
          <mxGeometry width="50" height="50" relative="1" as="geometry">
            <mxPoint x="466.5" y="633.5" as="sourcePoint" />
            <mxPoint x="495.5" y="700" as="targetPoint" />
          </mxGeometry>
        </mxCell>
        <mxCell id="SwTbmkhlQjPG7U7Xbu-n-2" value="Inicio" style="text;html=1;align=center;verticalAlign=middle;whiteSpace=wrap;rounded=0;" vertex="1" parent="YoyKi8F_KK8ZLQ4NTWcx-1">
          <mxGeometry x="323.5" y="590" width="60" height="30" as="geometry" />
        </mxCell>
        <mxCell id="SwTbmkhlQjPG7U7Xbu-n-3" value="Fim" style="text;html=1;align=center;verticalAlign=middle;whiteSpace=wrap;rounded=0;" vertex="1" parent="YoyKi8F_KK8ZLQ4NTWcx-1">
          <mxGeometry x="466.5" y="590" width="58" height="30" as="geometry" />
        </mxCell>
        <mxCell id="SwTbmkhlQjPG7U7Xbu-n-4" value="" style="whiteSpace=wrap;html=1;aspect=fixed;" vertex="1" parent="YoyKi8F_KK8ZLQ4NTWcx-1">
          <mxGeometry x="173.5" y="709" width="60" height="60" as="geometry" />
        </mxCell>
        <mxCell id="SwTbmkhlQjPG7U7Xbu-n-5" value="&lt;font style=&quot;font-size: 20px;&quot;&gt;2&lt;/font&gt;" style="text;html=1;align=center;verticalAlign=middle;whiteSpace=wrap;rounded=0;" vertex="1" parent="YoyKi8F_KK8ZLQ4NTWcx-1">
          <mxGeometry x="173.5" y="709" width="60" height="60" as="geometry" />
        </mxCell>
        <mxCell id="SwTbmkhlQjPG7U7Xbu-n-6" value="" style="endArrow=classic;html=1;rounded=0;" edge="1" parent="YoyKi8F_KK8ZLQ4NTWcx-1">
          <mxGeometry width="50" height="50" relative="1" as="geometry">
            <mxPoint x="252.5" y="740" as="sourcePoint" />
            <mxPoint x="303.5" y="740" as="targetPoint" />
          </mxGeometry>
        </mxCell>
        <mxCell id="SwTbmkhlQjPG7U7Xbu-n-7" value="" style="rounded=0;whiteSpace=wrap;html=1;" vertex="1" parent="YoyKi8F_KK8ZLQ4NTWcx-1">
          <mxGeometry x="28" y="520" width="90" height="40" as="geometry" />
        </mxCell>
        <mxCell id="SwTbmkhlQjPG7U7Xbu-n-8" value="6.2" style="text;html=1;align=center;verticalAlign=middle;whiteSpace=wrap;rounded=0;" vertex="1" parent="YoyKi8F_KK8ZLQ4NTWcx-1">
          <mxGeometry x="28" y="520" width="90" height="40" as="geometry" />
        </mxCell>
        <mxCell id="SwTbmkhlQjPG7U7Xbu-n-9" value="" style="whiteSpace=wrap;html=1;aspect=fixed;" vertex="1" parent="YoyKi8F_KK8ZLQ4NTWcx-1">
          <mxGeometry x="323.5" y="709" width="60" height="60" as="geometry" />
        </mxCell>
        <mxCell id="SwTbmkhlQjPG7U7Xbu-n-10" value="&lt;font style=&quot;font-size: 20px;&quot;&gt;12&lt;/font&gt;" style="text;html=1;align=center;verticalAlign=middle;whiteSpace=wrap;rounded=0;" vertex="1" parent="YoyKi8F_KK8ZLQ4NTWcx-1">
          <mxGeometry x="323.5" y="709" width="60" height="60" as="geometry" />
        </mxCell>
        <mxCell id="SwTbmkhlQjPG7U7Xbu-n-11" value="" style="whiteSpace=wrap;html=1;aspect=fixed;" vertex="1" parent="YoyKi8F_KK8ZLQ4NTWcx-1">
          <mxGeometry x="466.5" y="709" width="60" height="60" as="geometry" />
        </mxCell>
        <mxCell id="SwTbmkhlQjPG7U7Xbu-n-12" value="&lt;font style=&quot;font-size: 20px;&quot;&gt;4&lt;/font&gt;" style="text;html=1;align=center;verticalAlign=middle;whiteSpace=wrap;rounded=0;" vertex="1" parent="YoyKi8F_KK8ZLQ4NTWcx-1">
          <mxGeometry x="466.5" y="709" width="60" height="60" as="geometry" />
        </mxCell>
        <mxCell id="SwTbmkhlQjPG7U7Xbu-n-13" value="" style="endArrow=classic;html=1;rounded=0;" edge="1" parent="YoyKi8F_KK8ZLQ4NTWcx-1">
          <mxGeometry width="50" height="50" relative="1" as="geometry">
            <mxPoint x="496.5" y="779" as="sourcePoint" />
            <mxPoint x="496.5" y="849" as="targetPoint" />
          </mxGeometry>
        </mxCell>
        <mxCell id="SwTbmkhlQjPG7U7Xbu-n-14" value="" style="endArrow=none;html=1;rounded=0;" edge="1" parent="YoyKi8F_KK8ZLQ4NTWcx-1">
          <mxGeometry width="50" height="50" relative="1" as="geometry">
            <mxPoint x="471.5" y="859" as="sourcePoint" />
            <mxPoint x="521.5" y="859" as="targetPoint" />
          </mxGeometry>
        </mxCell>
        <mxCell id="SwTbmkhlQjPG7U7Xbu-n-15" value="" style="endArrow=none;html=1;rounded=0;" edge="1" parent="YoyKi8F_KK8ZLQ4NTWcx-1">
          <mxGeometry width="50" height="50" relative="1" as="geometry">
            <mxPoint x="476.5" y="869" as="sourcePoint" />
            <mxPoint x="516.5" y="869" as="targetPoint" />
          </mxGeometry>
        </mxCell>
        <mxCell id="SwTbmkhlQjPG7U7Xbu-n-16" value="" style="endArrow=classic;html=1;rounded=0;" edge="1" parent="YoyKi8F_KK8ZLQ4NTWcx-1">
          <mxGeometry width="50" height="50" relative="1" as="geometry">
            <mxPoint x="403.5" y="738.5" as="sourcePoint" />
            <mxPoint x="454.5" y="738.5" as="targetPoint" />
          </mxGeometry>
        </mxCell>
        <mxCell id="SwTbmkhlQjPG7U7Xbu-n-17" value="" style="endArrow=classic;html=1;rounded=0;" edge="1" parent="YoyKi8F_KK8ZLQ4NTWcx-1">
          <mxGeometry width="50" height="50" relative="1" as="geometry">
            <mxPoint x="88" y="735" as="sourcePoint" />
            <mxPoint x="158" y="735" as="targetPoint" />
          </mxGeometry>
        </mxCell>
        <mxCell id="SwTbmkhlQjPG7U7Xbu-n-18" value="Aux" style="text;html=1;align=center;verticalAlign=middle;whiteSpace=wrap;rounded=0;" vertex="1" parent="YoyKi8F_KK8ZLQ4NTWcx-1">
          <mxGeometry x="28" y="724" width="60" height="30" as="geometry" />
        </mxCell>
        <mxCell id="N5EtahdDdbFd3AKk8s---0" value="" style="shape=cross;whiteSpace=wrap;html=1;direction=south;rotation=45;fillColor=#f8cecc;strokeColor=#b85450;" vertex="1" parent="YoyKi8F_KK8ZLQ4NTWcx-1">
          <mxGeometry x="163.4985424949238" y="698.9985424949238" width="80" height="80" as="geometry" />
        </mxCell>
      </root>
    </mxGraphModel>
  </diagram>
  <diagram name="Etapa 6-7" id="cig7CkTJniC2UfIx6Gvi">
    <mxGraphModel dx="1434" dy="750" grid="1" gridSize="10" guides="1" tooltips="1" connect="1" arrows="1" fold="1" page="1" pageScale="1" pageWidth="850" pageHeight="1100" math="0" shadow="0">
      <root>
        <mxCell id="3VcP_i34IaC4bSyStemv-0" />
        <mxCell id="3VcP_i34IaC4bSyStemv-1" parent="3VcP_i34IaC4bSyStemv-0" />
        <mxCell id="3VcP_i34IaC4bSyStemv-2" value="" style="rounded=0;whiteSpace=wrap;html=1;" vertex="1" parent="3VcP_i34IaC4bSyStemv-1">
          <mxGeometry x="28" y="30" width="120" height="60" as="geometry" />
        </mxCell>
        <mxCell id="3VcP_i34IaC4bSyStemv-3" value="&lt;div style=&quot;font-size: 20px;&quot;&gt;Etapa 6&lt;br&gt;&lt;/div&gt;" style="text;html=1;align=center;verticalAlign=middle;whiteSpace=wrap;rounded=0;" vertex="1" parent="3VcP_i34IaC4bSyStemv-1">
          <mxGeometry x="28" y="30" width="120" height="60" as="geometry" />
        </mxCell>
        <mxCell id="3VcP_i34IaC4bSyStemv-23" value="" style="endArrow=classic;html=1;rounded=0;exitX=0.5;exitY=1;exitDx=0;exitDy=0;" edge="1" parent="3VcP_i34IaC4bSyStemv-1" source="3VcP_i34IaC4bSyStemv-25">
          <mxGeometry width="50" height="50" relative="1" as="geometry">
            <mxPoint x="150" y="224" as="sourcePoint" />
            <mxPoint x="110" y="290" as="targetPoint" />
          </mxGeometry>
        </mxCell>
        <mxCell id="3VcP_i34IaC4bSyStemv-24" value="" style="endArrow=classic;html=1;rounded=0;exitX=0.5;exitY=1;exitDx=0;exitDy=0;" edge="1" parent="3VcP_i34IaC4bSyStemv-1" source="3VcP_i34IaC4bSyStemv-26">
          <mxGeometry width="50" height="50" relative="1" as="geometry">
            <mxPoint x="223" y="223.5" as="sourcePoint" />
            <mxPoint x="252" y="290" as="targetPoint" />
          </mxGeometry>
        </mxCell>
        <mxCell id="3VcP_i34IaC4bSyStemv-25" value="Inicio" style="text;html=1;align=center;verticalAlign=middle;whiteSpace=wrap;rounded=0;" vertex="1" parent="3VcP_i34IaC4bSyStemv-1">
          <mxGeometry x="80" y="180" width="60" height="30" as="geometry" />
        </mxCell>
        <mxCell id="3VcP_i34IaC4bSyStemv-26" value="Fim" style="text;html=1;align=center;verticalAlign=middle;whiteSpace=wrap;rounded=0;" vertex="1" parent="3VcP_i34IaC4bSyStemv-1">
          <mxGeometry x="223" y="180" width="58" height="30" as="geometry" />
        </mxCell>
        <mxCell id="3VcP_i34IaC4bSyStemv-30" value="" style="rounded=0;whiteSpace=wrap;html=1;" vertex="1" parent="3VcP_i34IaC4bSyStemv-1">
          <mxGeometry x="28" y="110" width="90" height="40" as="geometry" />
        </mxCell>
        <mxCell id="3VcP_i34IaC4bSyStemv-31" value="6.3" style="text;html=1;align=center;verticalAlign=middle;whiteSpace=wrap;rounded=0;" vertex="1" parent="3VcP_i34IaC4bSyStemv-1">
          <mxGeometry x="28" y="110" width="90" height="40" as="geometry" />
        </mxCell>
        <mxCell id="3VcP_i34IaC4bSyStemv-32" value="" style="whiteSpace=wrap;html=1;aspect=fixed;" vertex="1" parent="3VcP_i34IaC4bSyStemv-1">
          <mxGeometry x="80" y="299" width="60" height="60" as="geometry" />
        </mxCell>
        <mxCell id="3VcP_i34IaC4bSyStemv-33" value="&lt;font style=&quot;font-size: 20px;&quot;&gt;12&lt;/font&gt;" style="text;html=1;align=center;verticalAlign=middle;whiteSpace=wrap;rounded=0;" vertex="1" parent="3VcP_i34IaC4bSyStemv-1">
          <mxGeometry x="80" y="299" width="60" height="60" as="geometry" />
        </mxCell>
        <mxCell id="3VcP_i34IaC4bSyStemv-34" value="" style="whiteSpace=wrap;html=1;aspect=fixed;" vertex="1" parent="3VcP_i34IaC4bSyStemv-1">
          <mxGeometry x="223" y="299" width="60" height="60" as="geometry" />
        </mxCell>
        <mxCell id="3VcP_i34IaC4bSyStemv-35" value="&lt;font style=&quot;font-size: 20px;&quot;&gt;4&lt;/font&gt;" style="text;html=1;align=center;verticalAlign=middle;whiteSpace=wrap;rounded=0;" vertex="1" parent="3VcP_i34IaC4bSyStemv-1">
          <mxGeometry x="223" y="299" width="60" height="60" as="geometry" />
        </mxCell>
        <mxCell id="3VcP_i34IaC4bSyStemv-36" value="" style="endArrow=classic;html=1;rounded=0;" edge="1" parent="3VcP_i34IaC4bSyStemv-1">
          <mxGeometry width="50" height="50" relative="1" as="geometry">
            <mxPoint x="253" y="369" as="sourcePoint" />
            <mxPoint x="253" y="439" as="targetPoint" />
          </mxGeometry>
        </mxCell>
        <mxCell id="3VcP_i34IaC4bSyStemv-37" value="" style="endArrow=none;html=1;rounded=0;" edge="1" parent="3VcP_i34IaC4bSyStemv-1">
          <mxGeometry width="50" height="50" relative="1" as="geometry">
            <mxPoint x="228" y="449" as="sourcePoint" />
            <mxPoint x="278" y="449" as="targetPoint" />
          </mxGeometry>
        </mxCell>
        <mxCell id="3VcP_i34IaC4bSyStemv-38" value="" style="endArrow=none;html=1;rounded=0;" edge="1" parent="3VcP_i34IaC4bSyStemv-1">
          <mxGeometry width="50" height="50" relative="1" as="geometry">
            <mxPoint x="233" y="459" as="sourcePoint" />
            <mxPoint x="273" y="459" as="targetPoint" />
          </mxGeometry>
        </mxCell>
        <mxCell id="3VcP_i34IaC4bSyStemv-39" value="" style="endArrow=classic;html=1;rounded=0;" edge="1" parent="3VcP_i34IaC4bSyStemv-1">
          <mxGeometry width="50" height="50" relative="1" as="geometry">
            <mxPoint x="160" y="328.5" as="sourcePoint" />
            <mxPoint x="211" y="328.5" as="targetPoint" />
          </mxGeometry>
        </mxCell>
        <mxCell id="Jg7aOZzP7aL2bDd-qnYG-0" value="" style="rounded=0;whiteSpace=wrap;html=1;" vertex="1" parent="3VcP_i34IaC4bSyStemv-1">
          <mxGeometry x="28" y="510" width="120" height="60" as="geometry" />
        </mxCell>
        <mxCell id="Jg7aOZzP7aL2bDd-qnYG-1" value="&lt;div style=&quot;font-size: 20px;&quot;&gt;Etapa 7&lt;br&gt;&lt;/div&gt;" style="text;html=1;align=center;verticalAlign=middle;whiteSpace=wrap;rounded=0;" vertex="1" parent="3VcP_i34IaC4bSyStemv-1">
          <mxGeometry x="28" y="510" width="120" height="60" as="geometry" />
        </mxCell>
        <mxCell id="Jg7aOZzP7aL2bDd-qnYG-2" value="" style="endArrow=classic;html=1;rounded=0;exitX=0.5;exitY=1;exitDx=0;exitDy=0;" edge="1" parent="3VcP_i34IaC4bSyStemv-1" source="Jg7aOZzP7aL2bDd-qnYG-4">
          <mxGeometry width="50" height="50" relative="1" as="geometry">
            <mxPoint x="221.5" y="704" as="sourcePoint" />
            <mxPoint x="181.5" y="770" as="targetPoint" />
          </mxGeometry>
        </mxCell>
        <mxCell id="Jg7aOZzP7aL2bDd-qnYG-3" value="" style="endArrow=classic;html=1;rounded=0;exitX=0.5;exitY=1;exitDx=0;exitDy=0;" edge="1" parent="3VcP_i34IaC4bSyStemv-1" source="Jg7aOZzP7aL2bDd-qnYG-5">
          <mxGeometry width="50" height="50" relative="1" as="geometry">
            <mxPoint x="294.5" y="703.5" as="sourcePoint" />
            <mxPoint x="323.5" y="770" as="targetPoint" />
          </mxGeometry>
        </mxCell>
        <mxCell id="Jg7aOZzP7aL2bDd-qnYG-4" value="Inicio" style="text;html=1;align=center;verticalAlign=middle;whiteSpace=wrap;rounded=0;" vertex="1" parent="3VcP_i34IaC4bSyStemv-1">
          <mxGeometry x="151.5" y="660" width="60" height="30" as="geometry" />
        </mxCell>
        <mxCell id="Jg7aOZzP7aL2bDd-qnYG-5" value="Fim" style="text;html=1;align=center;verticalAlign=middle;whiteSpace=wrap;rounded=0;" vertex="1" parent="3VcP_i34IaC4bSyStemv-1">
          <mxGeometry x="294.5" y="660" width="58" height="30" as="geometry" />
        </mxCell>
        <mxCell id="Jg7aOZzP7aL2bDd-qnYG-6" value="" style="rounded=0;whiteSpace=wrap;html=1;" vertex="1" parent="3VcP_i34IaC4bSyStemv-1">
          <mxGeometry x="28" y="590" width="90" height="40" as="geometry" />
        </mxCell>
        <mxCell id="Jg7aOZzP7aL2bDd-qnYG-7" value="7.0" style="text;html=1;align=center;verticalAlign=middle;whiteSpace=wrap;rounded=0;" vertex="1" parent="3VcP_i34IaC4bSyStemv-1">
          <mxGeometry x="28" y="590" width="90" height="40" as="geometry" />
        </mxCell>
        <mxCell id="Jg7aOZzP7aL2bDd-qnYG-8" value="" style="whiteSpace=wrap;html=1;aspect=fixed;" vertex="1" parent="3VcP_i34IaC4bSyStemv-1">
          <mxGeometry x="151.5" y="779" width="60" height="60" as="geometry" />
        </mxCell>
        <mxCell id="Jg7aOZzP7aL2bDd-qnYG-9" value="&lt;font style=&quot;font-size: 20px;&quot;&gt;12&lt;/font&gt;" style="text;html=1;align=center;verticalAlign=middle;whiteSpace=wrap;rounded=0;" vertex="1" parent="3VcP_i34IaC4bSyStemv-1">
          <mxGeometry x="151.5" y="779" width="60" height="60" as="geometry" />
        </mxCell>
        <mxCell id="Jg7aOZzP7aL2bDd-qnYG-10" value="" style="whiteSpace=wrap;html=1;aspect=fixed;" vertex="1" parent="3VcP_i34IaC4bSyStemv-1">
          <mxGeometry x="294.5" y="779" width="60" height="60" as="geometry" />
        </mxCell>
        <mxCell id="Jg7aOZzP7aL2bDd-qnYG-11" value="&lt;font style=&quot;font-size: 20px;&quot;&gt;4&lt;/font&gt;" style="text;html=1;align=center;verticalAlign=middle;whiteSpace=wrap;rounded=0;" vertex="1" parent="3VcP_i34IaC4bSyStemv-1">
          <mxGeometry x="294.5" y="779" width="60" height="60" as="geometry" />
        </mxCell>
        <mxCell id="Jg7aOZzP7aL2bDd-qnYG-12" value="" style="endArrow=classic;html=1;rounded=0;" edge="1" parent="3VcP_i34IaC4bSyStemv-1">
          <mxGeometry width="50" height="50" relative="1" as="geometry">
            <mxPoint x="324.5" y="849" as="sourcePoint" />
            <mxPoint x="324.5" y="919" as="targetPoint" />
          </mxGeometry>
        </mxCell>
        <mxCell id="Jg7aOZzP7aL2bDd-qnYG-13" value="" style="endArrow=none;html=1;rounded=0;" edge="1" parent="3VcP_i34IaC4bSyStemv-1">
          <mxGeometry width="50" height="50" relative="1" as="geometry">
            <mxPoint x="299.5" y="929" as="sourcePoint" />
            <mxPoint x="349.5" y="929" as="targetPoint" />
          </mxGeometry>
        </mxCell>
        <mxCell id="Jg7aOZzP7aL2bDd-qnYG-14" value="" style="endArrow=none;html=1;rounded=0;" edge="1" parent="3VcP_i34IaC4bSyStemv-1">
          <mxGeometry width="50" height="50" relative="1" as="geometry">
            <mxPoint x="304.5" y="939" as="sourcePoint" />
            <mxPoint x="344.5" y="939" as="targetPoint" />
          </mxGeometry>
        </mxCell>
        <mxCell id="Jg7aOZzP7aL2bDd-qnYG-15" value="" style="endArrow=classic;html=1;rounded=0;" edge="1" parent="3VcP_i34IaC4bSyStemv-1">
          <mxGeometry width="50" height="50" relative="1" as="geometry">
            <mxPoint x="231.5" y="808.5" as="sourcePoint" />
            <mxPoint x="282.5" y="808.5" as="targetPoint" />
          </mxGeometry>
        </mxCell>
        <mxCell id="4PQEJ_R7jtztEdBWDmve-0" value="" style="endArrow=classic;html=1;rounded=0;" edge="1" parent="3VcP_i34IaC4bSyStemv-1">
          <mxGeometry width="50" height="50" relative="1" as="geometry">
            <mxPoint x="88" y="805" as="sourcePoint" />
            <mxPoint x="138" y="805" as="targetPoint" />
          </mxGeometry>
        </mxCell>
        <mxCell id="4PQEJ_R7jtztEdBWDmve-1" value="Aux" style="text;html=1;align=center;verticalAlign=middle;whiteSpace=wrap;rounded=0;" vertex="1" parent="3VcP_i34IaC4bSyStemv-1">
          <mxGeometry x="28" y="794" width="60" height="30" as="geometry" />
        </mxCell>
        <mxCell id="4PQEJ_R7jtztEdBWDmve-2" value="" style="endArrow=classic;html=1;rounded=0;exitX=0.5;exitY=1;exitDx=0;exitDy=0;" edge="1" parent="3VcP_i34IaC4bSyStemv-1" source="4PQEJ_R7jtztEdBWDmve-4">
          <mxGeometry width="50" height="50" relative="1" as="geometry">
            <mxPoint x="760" y="704" as="sourcePoint" />
            <mxPoint x="720" y="770" as="targetPoint" />
          </mxGeometry>
        </mxCell>
        <mxCell id="4PQEJ_R7jtztEdBWDmve-3" value="" style="endArrow=classic;html=1;rounded=0;exitX=0.5;exitY=1;exitDx=0;exitDy=0;" edge="1" parent="3VcP_i34IaC4bSyStemv-1" source="4PQEJ_R7jtztEdBWDmve-5">
          <mxGeometry width="50" height="50" relative="1" as="geometry">
            <mxPoint x="706.5" y="703.5" as="sourcePoint" />
            <mxPoint x="750" y="770" as="targetPoint" />
          </mxGeometry>
        </mxCell>
        <mxCell id="4PQEJ_R7jtztEdBWDmve-4" value="Inicio" style="text;html=1;align=center;verticalAlign=middle;whiteSpace=wrap;rounded=0;" vertex="1" parent="3VcP_i34IaC4bSyStemv-1">
          <mxGeometry x="646.5" y="660" width="60" height="30" as="geometry" />
        </mxCell>
        <mxCell id="4PQEJ_R7jtztEdBWDmve-5" value="Fim" style="text;html=1;align=center;verticalAlign=middle;whiteSpace=wrap;rounded=0;" vertex="1" parent="3VcP_i34IaC4bSyStemv-1">
          <mxGeometry x="760" y="660" width="58" height="30" as="geometry" />
        </mxCell>
        <mxCell id="4PQEJ_R7jtztEdBWDmve-6" value="" style="rounded=0;whiteSpace=wrap;html=1;" vertex="1" parent="3VcP_i34IaC4bSyStemv-1">
          <mxGeometry x="440" y="590" width="90" height="40" as="geometry" />
        </mxCell>
        <mxCell id="4PQEJ_R7jtztEdBWDmve-7" value="7.1" style="text;html=1;align=center;verticalAlign=middle;whiteSpace=wrap;rounded=0;" vertex="1" parent="3VcP_i34IaC4bSyStemv-1">
          <mxGeometry x="440" y="590" width="90" height="40" as="geometry" />
        </mxCell>
        <mxCell id="4PQEJ_R7jtztEdBWDmve-8" value="" style="whiteSpace=wrap;html=1;aspect=fixed;" vertex="1" parent="3VcP_i34IaC4bSyStemv-1">
          <mxGeometry x="563.5" y="779" width="60" height="60" as="geometry" />
        </mxCell>
        <mxCell id="4PQEJ_R7jtztEdBWDmve-9" value="&lt;font style=&quot;font-size: 20px;&quot;&gt;12&lt;/font&gt;" style="text;html=1;align=center;verticalAlign=middle;whiteSpace=wrap;rounded=0;" vertex="1" parent="3VcP_i34IaC4bSyStemv-1">
          <mxGeometry x="563.5" y="779" width="60" height="60" as="geometry" />
        </mxCell>
        <mxCell id="4PQEJ_R7jtztEdBWDmve-10" value="" style="whiteSpace=wrap;html=1;aspect=fixed;" vertex="1" parent="3VcP_i34IaC4bSyStemv-1">
          <mxGeometry x="706.5" y="779" width="60" height="60" as="geometry" />
        </mxCell>
        <mxCell id="4PQEJ_R7jtztEdBWDmve-11" value="&lt;font style=&quot;font-size: 20px;&quot;&gt;4&lt;/font&gt;" style="text;html=1;align=center;verticalAlign=middle;whiteSpace=wrap;rounded=0;" vertex="1" parent="3VcP_i34IaC4bSyStemv-1">
          <mxGeometry x="706.5" y="779" width="60" height="60" as="geometry" />
        </mxCell>
        <mxCell id="4PQEJ_R7jtztEdBWDmve-12" value="" style="endArrow=classic;html=1;rounded=0;" edge="1" parent="3VcP_i34IaC4bSyStemv-1">
          <mxGeometry width="50" height="50" relative="1" as="geometry">
            <mxPoint x="736.5" y="849" as="sourcePoint" />
            <mxPoint x="736.5" y="919" as="targetPoint" />
          </mxGeometry>
        </mxCell>
        <mxCell id="4PQEJ_R7jtztEdBWDmve-13" value="" style="endArrow=none;html=1;rounded=0;" edge="1" parent="3VcP_i34IaC4bSyStemv-1">
          <mxGeometry width="50" height="50" relative="1" as="geometry">
            <mxPoint x="711.5" y="929" as="sourcePoint" />
            <mxPoint x="761.5" y="929" as="targetPoint" />
          </mxGeometry>
        </mxCell>
        <mxCell id="4PQEJ_R7jtztEdBWDmve-14" value="" style="endArrow=none;html=1;rounded=0;" edge="1" parent="3VcP_i34IaC4bSyStemv-1">
          <mxGeometry width="50" height="50" relative="1" as="geometry">
            <mxPoint x="716.5" y="939" as="sourcePoint" />
            <mxPoint x="756.5" y="939" as="targetPoint" />
          </mxGeometry>
        </mxCell>
        <mxCell id="4PQEJ_R7jtztEdBWDmve-15" value="" style="endArrow=classic;html=1;rounded=0;" edge="1" parent="3VcP_i34IaC4bSyStemv-1">
          <mxGeometry width="50" height="50" relative="1" as="geometry">
            <mxPoint x="643.5" y="808.5" as="sourcePoint" />
            <mxPoint x="694.5" y="808.5" as="targetPoint" />
          </mxGeometry>
        </mxCell>
        <mxCell id="4PQEJ_R7jtztEdBWDmve-16" value="" style="endArrow=classic;html=1;rounded=0;" edge="1" parent="3VcP_i34IaC4bSyStemv-1">
          <mxGeometry width="50" height="50" relative="1" as="geometry">
            <mxPoint x="500" y="805" as="sourcePoint" />
            <mxPoint x="550" y="805" as="targetPoint" />
          </mxGeometry>
        </mxCell>
        <mxCell id="4PQEJ_R7jtztEdBWDmve-17" value="Aux" style="text;html=1;align=center;verticalAlign=middle;whiteSpace=wrap;rounded=0;" vertex="1" parent="3VcP_i34IaC4bSyStemv-1">
          <mxGeometry x="440" y="794" width="60" height="30" as="geometry" />
        </mxCell>
      </root>
    </mxGraphModel>
  </diagram>
  <diagram name="Etapa 7" id="dahra-XUt5-Ddr8oQwSr">
    <mxGraphModel dx="1434" dy="750" grid="1" gridSize="10" guides="1" tooltips="1" connect="1" arrows="1" fold="1" page="1" pageScale="1" pageWidth="850" pageHeight="1100" math="0" shadow="0">
      <root>
        <mxCell id="05-82qGbxlMfKfW-q6sU-0" />
        <mxCell id="05-82qGbxlMfKfW-q6sU-1" parent="05-82qGbxlMfKfW-q6sU-0" />
        <mxCell id="05-82qGbxlMfKfW-q6sU-2" value="" style="rounded=0;whiteSpace=wrap;html=1;" vertex="1" parent="05-82qGbxlMfKfW-q6sU-1">
          <mxGeometry x="28" y="30" width="120" height="60" as="geometry" />
        </mxCell>
        <mxCell id="05-82qGbxlMfKfW-q6sU-3" value="&lt;div style=&quot;font-size: 20px;&quot;&gt;Etapa 7&lt;br&gt;&lt;/div&gt;" style="text;html=1;align=center;verticalAlign=middle;whiteSpace=wrap;rounded=0;" vertex="1" parent="05-82qGbxlMfKfW-q6sU-1">
          <mxGeometry x="28" y="30" width="120" height="60" as="geometry" />
        </mxCell>
        <mxCell id="05-82qGbxlMfKfW-q6sU-36" value="" style="endArrow=classic;html=1;rounded=0;exitX=0.5;exitY=1;exitDx=0;exitDy=0;" edge="1" parent="05-82qGbxlMfKfW-q6sU-1" source="05-82qGbxlMfKfW-q6sU-38">
          <mxGeometry width="50" height="50" relative="1" as="geometry">
            <mxPoint x="348" y="224" as="sourcePoint" />
            <mxPoint x="308" y="290" as="targetPoint" />
          </mxGeometry>
        </mxCell>
        <mxCell id="05-82qGbxlMfKfW-q6sU-37" value="" style="endArrow=classic;html=1;rounded=0;exitX=0.5;exitY=1;exitDx=0;exitDy=0;" edge="1" parent="05-82qGbxlMfKfW-q6sU-1" source="05-82qGbxlMfKfW-q6sU-39">
          <mxGeometry width="50" height="50" relative="1" as="geometry">
            <mxPoint x="294.5" y="223.5" as="sourcePoint" />
            <mxPoint x="338" y="290" as="targetPoint" />
          </mxGeometry>
        </mxCell>
        <mxCell id="05-82qGbxlMfKfW-q6sU-38" value="Inicio" style="text;html=1;align=center;verticalAlign=middle;whiteSpace=wrap;rounded=0;" vertex="1" parent="05-82qGbxlMfKfW-q6sU-1">
          <mxGeometry x="234.5" y="180" width="60" height="30" as="geometry" />
        </mxCell>
        <mxCell id="05-82qGbxlMfKfW-q6sU-39" value="Fim" style="text;html=1;align=center;verticalAlign=middle;whiteSpace=wrap;rounded=0;" vertex="1" parent="05-82qGbxlMfKfW-q6sU-1">
          <mxGeometry x="348" y="180" width="58" height="30" as="geometry" />
        </mxCell>
        <mxCell id="05-82qGbxlMfKfW-q6sU-40" value="" style="rounded=0;whiteSpace=wrap;html=1;" vertex="1" parent="05-82qGbxlMfKfW-q6sU-1">
          <mxGeometry x="28" y="110" width="90" height="40" as="geometry" />
        </mxCell>
        <mxCell id="05-82qGbxlMfKfW-q6sU-41" value="7.2" style="text;html=1;align=center;verticalAlign=middle;whiteSpace=wrap;rounded=0;" vertex="1" parent="05-82qGbxlMfKfW-q6sU-1">
          <mxGeometry x="28" y="110" width="90" height="40" as="geometry" />
        </mxCell>
        <mxCell id="05-82qGbxlMfKfW-q6sU-42" value="" style="whiteSpace=wrap;html=1;aspect=fixed;" vertex="1" parent="05-82qGbxlMfKfW-q6sU-1">
          <mxGeometry x="151.5" y="299" width="60" height="60" as="geometry" />
        </mxCell>
        <mxCell id="05-82qGbxlMfKfW-q6sU-43" value="&lt;font style=&quot;font-size: 20px;&quot;&gt;12&lt;/font&gt;" style="text;html=1;align=center;verticalAlign=middle;whiteSpace=wrap;rounded=0;" vertex="1" parent="05-82qGbxlMfKfW-q6sU-1">
          <mxGeometry x="151.5" y="299" width="60" height="60" as="geometry" />
        </mxCell>
        <mxCell id="05-82qGbxlMfKfW-q6sU-44" value="" style="whiteSpace=wrap;html=1;aspect=fixed;" vertex="1" parent="05-82qGbxlMfKfW-q6sU-1">
          <mxGeometry x="294.5" y="299" width="60" height="60" as="geometry" />
        </mxCell>
        <mxCell id="05-82qGbxlMfKfW-q6sU-45" value="&lt;font style=&quot;font-size: 20px;&quot;&gt;4&lt;/font&gt;" style="text;html=1;align=center;verticalAlign=middle;whiteSpace=wrap;rounded=0;" vertex="1" parent="05-82qGbxlMfKfW-q6sU-1">
          <mxGeometry x="294.5" y="299" width="60" height="60" as="geometry" />
        </mxCell>
        <mxCell id="05-82qGbxlMfKfW-q6sU-46" value="" style="endArrow=classic;html=1;rounded=0;" edge="1" parent="05-82qGbxlMfKfW-q6sU-1">
          <mxGeometry width="50" height="50" relative="1" as="geometry">
            <mxPoint x="324.5" y="369" as="sourcePoint" />
            <mxPoint x="324.5" y="439" as="targetPoint" />
          </mxGeometry>
        </mxCell>
        <mxCell id="05-82qGbxlMfKfW-q6sU-47" value="" style="endArrow=none;html=1;rounded=0;" edge="1" parent="05-82qGbxlMfKfW-q6sU-1">
          <mxGeometry width="50" height="50" relative="1" as="geometry">
            <mxPoint x="299.5" y="449" as="sourcePoint" />
            <mxPoint x="349.5" y="449" as="targetPoint" />
          </mxGeometry>
        </mxCell>
        <mxCell id="05-82qGbxlMfKfW-q6sU-48" value="" style="endArrow=none;html=1;rounded=0;" edge="1" parent="05-82qGbxlMfKfW-q6sU-1">
          <mxGeometry width="50" height="50" relative="1" as="geometry">
            <mxPoint x="304.5" y="459" as="sourcePoint" />
            <mxPoint x="344.5" y="459" as="targetPoint" />
          </mxGeometry>
        </mxCell>
        <mxCell id="05-82qGbxlMfKfW-q6sU-49" value="" style="endArrow=classic;html=1;rounded=0;" edge="1" parent="05-82qGbxlMfKfW-q6sU-1">
          <mxGeometry width="50" height="50" relative="1" as="geometry">
            <mxPoint x="231.5" y="328.5" as="sourcePoint" />
            <mxPoint x="282.5" y="328.5" as="targetPoint" />
          </mxGeometry>
        </mxCell>
        <mxCell id="05-82qGbxlMfKfW-q6sU-50" value="" style="endArrow=classic;html=1;rounded=0;" edge="1" parent="05-82qGbxlMfKfW-q6sU-1">
          <mxGeometry width="50" height="50" relative="1" as="geometry">
            <mxPoint x="88" y="325" as="sourcePoint" />
            <mxPoint x="138" y="325" as="targetPoint" />
          </mxGeometry>
        </mxCell>
        <mxCell id="05-82qGbxlMfKfW-q6sU-51" value="Aux" style="text;html=1;align=center;verticalAlign=middle;whiteSpace=wrap;rounded=0;" vertex="1" parent="05-82qGbxlMfKfW-q6sU-1">
          <mxGeometry x="28" y="314" width="60" height="30" as="geometry" />
        </mxCell>
        <mxCell id="wCuUfEU2-gNqpJZXnkva-0" value="" style="shape=cross;whiteSpace=wrap;html=1;direction=south;rotation=45;fillColor=#f8cecc;strokeColor=#b85450;" vertex="1" parent="05-82qGbxlMfKfW-q6sU-1">
          <mxGeometry x="141.4985424949238" y="288.9985424949238" width="80" height="80" as="geometry" />
        </mxCell>
        <mxCell id="wCuUfEU2-gNqpJZXnkva-1" value="" style="rounded=0;whiteSpace=wrap;html=1;" vertex="1" parent="05-82qGbxlMfKfW-q6sU-1">
          <mxGeometry x="28" y="520" width="90" height="40" as="geometry" />
        </mxCell>
        <mxCell id="wCuUfEU2-gNqpJZXnkva-2" value="7.3" style="text;html=1;align=center;verticalAlign=middle;whiteSpace=wrap;rounded=0;" vertex="1" parent="05-82qGbxlMfKfW-q6sU-1">
          <mxGeometry x="28" y="520" width="90" height="40" as="geometry" />
        </mxCell>
        <mxCell id="wCuUfEU2-gNqpJZXnkva-3" value="" style="endArrow=classic;html=1;rounded=0;exitX=0.5;exitY=1;exitDx=0;exitDy=0;" edge="1" parent="05-82qGbxlMfKfW-q6sU-1" source="wCuUfEU2-gNqpJZXnkva-5">
          <mxGeometry width="50" height="50" relative="1" as="geometry">
            <mxPoint x="196.5" y="634" as="sourcePoint" />
            <mxPoint x="156.5" y="700" as="targetPoint" />
          </mxGeometry>
        </mxCell>
        <mxCell id="wCuUfEU2-gNqpJZXnkva-4" value="" style="endArrow=classic;html=1;rounded=0;exitX=0.5;exitY=1;exitDx=0;exitDy=0;" edge="1" parent="05-82qGbxlMfKfW-q6sU-1" source="wCuUfEU2-gNqpJZXnkva-6">
          <mxGeometry width="50" height="50" relative="1" as="geometry">
            <mxPoint x="143" y="633.5" as="sourcePoint" />
            <mxPoint x="186.5" y="700" as="targetPoint" />
          </mxGeometry>
        </mxCell>
        <mxCell id="wCuUfEU2-gNqpJZXnkva-5" value="Inicio" style="text;html=1;align=center;verticalAlign=middle;whiteSpace=wrap;rounded=0;" vertex="1" parent="05-82qGbxlMfKfW-q6sU-1">
          <mxGeometry x="83" y="590" width="60" height="30" as="geometry" />
        </mxCell>
        <mxCell id="wCuUfEU2-gNqpJZXnkva-6" value="Fim" style="text;html=1;align=center;verticalAlign=middle;whiteSpace=wrap;rounded=0;" vertex="1" parent="05-82qGbxlMfKfW-q6sU-1">
          <mxGeometry x="196.5" y="590" width="58" height="30" as="geometry" />
        </mxCell>
        <mxCell id="wCuUfEU2-gNqpJZXnkva-7" value="" style="whiteSpace=wrap;html=1;aspect=fixed;" vertex="1" parent="05-82qGbxlMfKfW-q6sU-1">
          <mxGeometry x="143" y="709" width="60" height="60" as="geometry" />
        </mxCell>
        <mxCell id="wCuUfEU2-gNqpJZXnkva-8" value="&lt;font style=&quot;font-size: 20px;&quot;&gt;4&lt;/font&gt;" style="text;html=1;align=center;verticalAlign=middle;whiteSpace=wrap;rounded=0;" vertex="1" parent="05-82qGbxlMfKfW-q6sU-1">
          <mxGeometry x="143" y="709" width="60" height="60" as="geometry" />
        </mxCell>
        <mxCell id="wCuUfEU2-gNqpJZXnkva-9" value="" style="endArrow=classic;html=1;rounded=0;" edge="1" parent="05-82qGbxlMfKfW-q6sU-1">
          <mxGeometry width="50" height="50" relative="1" as="geometry">
            <mxPoint x="173" y="779" as="sourcePoint" />
            <mxPoint x="173" y="849" as="targetPoint" />
          </mxGeometry>
        </mxCell>
        <mxCell id="wCuUfEU2-gNqpJZXnkva-10" value="" style="endArrow=none;html=1;rounded=0;" edge="1" parent="05-82qGbxlMfKfW-q6sU-1">
          <mxGeometry width="50" height="50" relative="1" as="geometry">
            <mxPoint x="148" y="859" as="sourcePoint" />
            <mxPoint x="198" y="859" as="targetPoint" />
          </mxGeometry>
        </mxCell>
        <mxCell id="wCuUfEU2-gNqpJZXnkva-11" value="" style="endArrow=none;html=1;rounded=0;" edge="1" parent="05-82qGbxlMfKfW-q6sU-1">
          <mxGeometry width="50" height="50" relative="1" as="geometry">
            <mxPoint x="153" y="869" as="sourcePoint" />
            <mxPoint x="193" y="869" as="targetPoint" />
          </mxGeometry>
        </mxCell>
      </root>
    </mxGraphModel>
  </diagram>
</mxfile>
